<?xml version="1.0" encoding="UTF-8"?>
<svg width="60px" height="60px" viewBox="0 0 60 60" version="1.1" xmlns="http://www.w3.org/2000/svg" xmlns:xlink="http://www.w3.org/1999/xlink">
    <!-- Generator: Sketch 52.6 (67491) - http://www.bohemiancoding.com/sketch -->
    <title>AirportRed</title>
    <desc>Created with Sketch.</desc>
    <defs>
        <polygon id="path-1" points="0 34.4878378 37.5771876 34.4878378 37.5771876 0.000486971912 0 0.000486971912"></polygon>
    </defs>
    <g id="AirportRed" stroke="none" stroke-width="1" fill="none" fill-rule="evenodd">
        <g id="Page-1" transform="translate(-4.000000, 12.000000)">
            <polygon id="Fill-3" fill="#D81F27" points="32.9246579 20.7839612 15.4764543 20.7839612 10.8246551 11.3586198 37.5764571 11.3586198"></polygon>
            <polygon id="Fill-5" fill="#D81F27" points="30.8059649 12.0549897 17.5944169 12.0549897 14.0711751 4.91719888 34.3304241 4.91719888"></polygon>
            <mask id="mask-2" fill="white">
                <use xlink:href="#path-1"></use>
            </mask>
            <g id="Clip-8"></g>
            <polygon id="Fill-7" fill="#D81F27" mask="url(#mask-2)" points="20.5660413 35 27.8353145 35 27.8353145 18.4567224 20.5660413 18.4567224"></polygon>
            <polygon id="Fill-9" fill="#D81F27" mask="url(#mask-2)" points="23.4391755 11.2032758 24.9609628 11.2032758 24.9609628 0.760163154 23.4391755 0.760163154"></polygon>
            <polygon id="Fill-10" fill="#D81F27" mask="url(#mask-2)" points="18.9785128 1.5222742 29.4216255 1.5222742 29.4216255 -0.000730457868 18.9785128 -0.000730457868"></polygon>
        </g>
        <polygon id="Rectangle-11" fill="#D91A26" points="6 42.5746079 54.1882516 42.5746079 54.1882516 47 6 47"></polygon>
        <path d="M54.2229995,42.5746079 C54.2229995,42.5746079 52.8472062,41.3102102 49.3987167,41.3102102 C45.9502271,41.3102102 44.5506012,42.5746079 44.5506012,42.5746079 L54.2229995,42.5746079 Z" id="Path-3" fill="#D91A26"></path>
        <path d="M44.5853492,42.5746079 C44.5853492,42.5746079 43.2095559,41.3102102 39.7610664,41.3102102 C36.3125768,41.3102102 34.9129509,42.5746079 34.9129509,42.5746079 L44.5853492,42.5746079 Z" id="Path-3-Copy" fill="#D91A26"></path>
        <path d="M34.9476989,42.5746079 C34.9476989,42.5746079 33.5719056,41.3102102 30.123416,41.3102102 C26.6749265,41.3102102 25.2753006,42.5746079 25.2753006,42.5746079 L34.9476989,42.5746079 Z" id="Path-3-Copy-2" fill="#D91A26"></path>
        <path d="M25.3100486,42.5746079 C25.3100486,42.5746079 23.9342553,41.3102102 20.4857657,41.3102102 C17.0372762,41.3102102 15.6376503,42.5746079 15.6376503,42.5746079 L25.3100486,42.5746079 Z" id="Path-3-Copy-3" fill="#D91A26"></path>
        <path d="M15.6723983,42.5746079 C15.6723983,42.5746079 14.2966049,41.3102102 10.8481154,41.3102102 C7.39962589,41.3102102 6,42.5746079 6,42.5746079 L15.6723983,42.5746079 Z" id="Path-3-Copy-4" fill="#D91A26"></path>
        <path d="M47.0480096,32.8478229 L37.6838315,32.7527508 C37.6838315,32.7527508 35.8706087,32.2285692 34.7562946,31.4106062 L34,29.6402086 L34.3905667,29.4397863 L36.4607412,31.312108 L39.1013486,31.3626418 L37.9938866,28.3460283 L38.6696697,28 L42.5522106,31.383198 L47.0223144,31.4457229 C47.0223144,31.4457229 48.1948709,31.677836 48.2385527,32.1985915 C48.2385527,32.1985915 47.9961615,32.709069 47.0480096,32.8478229 Z" id="Fill-1" fill="#D81F27"></path>
    </g>
</svg>