<?xml version="1.0" encoding="UTF-8"?>
<svg width="21px" height="22px" viewBox="0 0 21 22" version="1.1" xmlns="http://www.w3.org/2000/svg" xmlns:xlink="http://www.w3.org/1999/xlink">
    <!-- Generator: Sketch 50.2 (55047) - http://www.bohemiancoding.com/sketch -->
    <title>ArrowRight</title>
    <desc>Created with Sketch.</desc>
    <defs></defs>
    <g id="ArrowRight" stroke="none" stroke-width="1" fill="none" fill-rule="evenodd">
        <path d="M17.8892501,12.0198443 L0.866134995,12.0198443 C0.387781846,12.0198443 5.85813653e-17,11.6320625 0,11.1537093 C-5.85813653e-17,10.6753562 0.387781846,10.2875743 0.866134995,10.2875743 L18.1966688,10.2875743 L9.36871843,1.45962399 C9.03047168,1.12137723 9.03047168,0.572970886 9.36871843,0.23472413 C9.70696519,-0.103522625 10.2553715,-0.103522625 10.5936183,0.23472413 L20.5056502,10.1467561 C20.6138039,10.2549097 20.6873756,10.3845498 20.7263655,10.5219358 C20.8947874,10.6799509 21,10.9045433 21,11.1537093 C21,11.5493739 20.7346955,11.8830733 20.3722765,11.9866177 L10.5936183,21.7652759 C10.2553715,22.1035226 9.70696519,22.1035226 9.36871843,21.7652759 C9.03047168,21.4270291 9.03047168,20.8786228 9.36871843,20.540376 L17.8892501,12.0198443 Z" id="Combined-Shape" fill="#373C8C"></path>
    </g>
</svg>