<?xml version="1.0" encoding="UTF-8"?>
<svg width="23px" height="22px" viewBox="0 0 23 22" version="1.1" xmlns="http://www.w3.org/2000/svg" xmlns:xlink="http://www.w3.org/1999/xlink">
    <!-- Generator: Sketch 50.2 (55047) - http://www.bohemiancoding.com/sketch -->
    <title>ArrowDown</title>
    <desc>Created with Sketch.</desc>
    <defs></defs>
    <g id="ArrowDown" stroke="none" stroke-width="1" fill="none" fill-rule="evenodd">
        <path d="M18.8892501,12.0198443 L1.86613499,12.0198443 C1.38778185,12.0198443 1,11.6320625 1,11.1537093 C1,10.6753562 1.38778185,10.2875743 1.86613499,10.2875743 L19.1966688,10.2875743 L10.3687184,1.45962399 C10.0304717,1.12137723 10.0304717,0.572970886 10.3687184,0.23472413 C10.7069652,-0.103522625 11.2553715,-0.103522625 11.5936183,0.23472413 L21.5056502,10.1467561 C21.6138039,10.2549097 21.6873756,10.3845498 21.7263655,10.5219358 C21.8947874,10.6799509 22,10.9045433 22,11.1537093 C22,11.5493739 21.7346955,11.8830733 21.3722765,11.9866177 L11.5936183,21.7652759 C11.2553715,22.1035226 10.7069652,22.1035226 10.3687184,21.7652759 C10.0304717,21.4270291 10.0304717,20.8786228 10.3687184,20.540376 L18.8892501,12.0198443 Z" id="Combined-Shape" fill="#373C8C" transform="translate(11.500000, 11.000000) rotate(-270.000000) translate(-11.500000, -11.000000) "></path>
    </g>
</svg>