<?xml version="1.0" encoding="UTF-8"?>
<svg width="11px" height="18px" viewBox="0 0 11 18" version="1.1" xmlns="http://www.w3.org/2000/svg" xmlns:xlink="http://www.w3.org/1999/xlink">
    <!-- Generator: Sketch 50.2 (55047) - http://www.bohemiancoding.com/sketch -->
    <title>BackIconNegative</title>
    <desc>Created with Sketch.</desc>
    <defs></defs>
    <g id="BackIconNegative" stroke="none" stroke-width="1" fill="none" fill-rule="evenodd">
        <path d="M4.27817459,9 L10.2530483,14.9748737 C10.8388348,15.5606602 10.8388348,16.5104076 10.2530483,17.0961941 C9.66726189,17.6819805 8.71751442,17.6819805 8.13172798,17.0961941 L1.36945649,10.3339226 C1.25909226,10.2699188 1.15514205,10.190676 1.06066017,10.0961941 C0.758729121,9.79426303 0.612421952,9.39563969 0.621738665,9 C0.612421952,8.60436031 0.758729121,8.20573697 1.06066017,7.90380592 C1.15514205,7.80932404 1.25909226,7.73008121 1.36945649,7.66607742 L8.13172798,0.903805922 C8.71751442,0.318019485 9.66726189,0.318019485 10.2530483,0.903805922 C10.8388348,1.48959236 10.8388348,2.43933983 10.2530483,3.02512627 L4.27817459,9 Z" id="Combined-Shape" fill="#FFFFFF"></path>
    </g>
</svg>