<?xml version="1.0" encoding="UTF-8"?>
<svg width="60px" height="60px" viewBox="0 0 60 60" version="1.1" xmlns="http://www.w3.org/2000/svg" xmlns:xlink="http://www.w3.org/1999/xlink">
    <!-- Generator: Sketch 52.6 (67491) - http://www.bohemiancoding.com/sketch -->
    <title>BookingGreen</title>
    <desc>Created with Sketch.</desc>
    <g id="BookingGreen" stroke="none" stroke-width="1" fill="none" fill-rule="evenodd">
        <g id="Page-1" transform="translate(11.000000, 15.000000)">
            <path d="M4.78434074,13.6602149 C4.78434074,6.11642975 10.8756,0 18.3883407,0 C25.9010815,0 31.9923407,6.11642975 31.9923407,13.6602149 C31.9923407,21.2054132 25.9010815,27.3204298 18.3883407,27.3204298" id="Stroke-1" stroke="#00C300" stroke-width="2"></path>
            <path d="M14.8712296,27.3204298 C14.8712296,25.3701818 16.4461185,23.7887851 18.3883407,23.7887851 C20.330563,23.7887851 21.9054519,25.3701818 21.9054519,27.3204298 C21.9054519,29.2706777 20.330563,30.8520744 18.3883407,30.8520744 C16.4461185,30.8520744 14.8712296,29.2706777 14.8712296,27.3204298" id="Fill-3" fill="#00C300"></path>
            <path d="M30.4743111,6.83010744 C30.4743111,6.83010744 37.2763111,8.15005785 37.2763111,13.6616281 C37.2763111,18.9414298 30.4743111,20.4917355 30.4743111,20.4917355 L30.4743111,6.83010744 Z" id="Fill-5" fill="#00C300"></path>
            <path d="M6.8027037,6.36642893 C6.8027037,6.36642893 0.000703703704,7.68637934 0.000703703704,13.1965364 C0.000703703704,18.4777512 6.8027037,20.0266438 6.8027037,20.0266438 L6.8027037,6.36642893 Z" id="Fill-7" fill="#00C300"></path>
        </g>
    </g>
</svg>