<?xml version="1.0" encoding="UTF-8"?>
<svg width="16px" height="18px" viewBox="0 0 16 18" version="1.1" xmlns="http://www.w3.org/2000/svg" xmlns:xlink="http://www.w3.org/1999/xlink">
    <!-- Generator: Sketch 50.2 (55047) - http://www.bohemiancoding.com/sketch -->
    <title>CalendarIconNegative</title>
    <desc>Created with Sketch.</desc>
    <defs></defs>
    <g id="CalendarIconNegative" stroke="none" stroke-width="1" fill="none" fill-rule="evenodd">
        <path d="M0,4.36250019 L0,2.1812501 C0,1.97766675 0.0702847253,1.80559036 0.211338898,1.66453618 C0.351423626,1.52445146 0.523500023,1.45416673 0.727083365,1.45416673 L2.90833346,1.45416673 L2.90833346,0 L4.36250019,0 L4.36250019,1.45416673 L11.6333338,1.45416673 L11.6333338,0 L13.0875006,0 L13.0875006,1.45416673 L15.2687507,1.45416673 C15.472334,1.45416673 15.6448951,1.52445146 15.7849799,1.66453618 C15.9255493,1.80559036 15.995834,1.97766675 15.995834,2.1812501 L15.995834,4.36250019 L0,4.36250019 L0,4.36250019 L0,4.36250019 L0,4.36250019 Z M15.995834,5.81666692 L15.995834,16.7229174 C15.995834,16.9168063 15.9255493,17.0864591 15.7849799,17.231391 C15.6448951,17.3772924 15.472334,17.4500008 15.2687507,17.4500008 L0.727083365,17.4500008 C0.523500023,17.4500008 0.351423626,17.3772924 0.211338898,17.231391 C0.0702847253,17.0864591 0,16.9168063 0,16.7229174 L0,5.81666692 L15.995834,5.81666692 L15.995834,5.81666692 L15.995834,5.81666692 L15.995834,5.81666692 Z M1.45416673,10.1791671 L2.90833346,10.1791671 L2.90833346,8.72500038 L1.45416673,8.72500038 L1.45416673,8.72500038 L1.45416673,10.1791671 L1.45416673,10.1791671 Z M1.45416673,13.0875006 L2.90833346,13.0875006 L2.90833346,11.6333338 L1.45416673,11.6333338 L1.45416673,11.6333338 L1.45416673,13.0875006 L1.45416673,13.0875006 Z M1.45416673,15.995834 L2.90833346,15.995834 L2.90833346,14.5416673 L1.45416673,14.5416673 L1.45416673,14.5416673 L1.45416673,15.995834 L1.45416673,15.995834 Z M4.36250019,10.1791671 L5.81666692,10.1791671 L5.81666692,8.72500038 L4.36250019,8.72500038 L4.36250019,8.72500038 L4.36250019,10.1791671 L4.36250019,10.1791671 Z M4.36250019,13.0875006 L5.81666692,13.0875006 L5.81666692,11.6333338 L4.36250019,11.6333338 L4.36250019,11.6333338 L4.36250019,13.0875006 L4.36250019,13.0875006 Z M4.36250019,15.995834 L5.81666692,15.995834 L5.81666692,14.5416673 L4.36250019,14.5416673 L4.36250019,14.5416673 L4.36250019,15.995834 L4.36250019,15.995834 Z M7.27083365,10.1791671 L8.72500038,10.1791671 L8.72500038,8.72500038 L7.27083365,8.72500038 L7.27083365,8.72500038 L7.27083365,10.1791671 L7.27083365,10.1791671 Z M7.27083365,13.0875006 L8.72500038,13.0875006 L8.72500038,11.6333338 L7.27083365,11.6333338 L7.27083365,11.6333338 L7.27083365,13.0875006 L7.27083365,13.0875006 Z M7.27083365,15.995834 L8.72500038,15.995834 L8.72500038,14.5416673 L7.27083365,14.5416673 L7.27083365,14.5416673 L7.27083365,15.995834 L7.27083365,15.995834 Z M10.1791671,10.1791671 L11.6333338,10.1791671 L11.6333338,8.72500038 L10.1791671,8.72500038 L10.1791671,8.72500038 L10.1791671,10.1791671 L10.1791671,10.1791671 Z M10.1791671,13.0875006 L11.6333338,13.0875006 L11.6333338,11.6333338 L10.1791671,11.6333338 L10.1791671,11.6333338 L10.1791671,13.0875006 L10.1791671,13.0875006 Z M10.1791671,15.995834 L11.6333338,15.995834 L11.6333338,14.5416673 L10.1791671,14.5416673 L10.1791671,14.5416673 L10.1791671,15.995834 L10.1791671,15.995834 Z M13.0875006,10.1791671 L14.5416673,10.1791671 L14.5416673,8.72500038 L13.0875006,8.72500038 L13.0875006,8.72500038 L13.0875006,10.1791671 L13.0875006,10.1791671 Z M13.0875006,13.0875006 L14.5416673,13.0875006 L14.5416673,11.6333338 L13.0875006,11.6333338 L13.0875006,11.6333338 L13.0875006,13.0875006 L13.0875006,13.0875006 Z M13.0875006,15.995834 L14.5416673,15.995834 L14.5416673,14.5416673 L13.0875006,14.5416673 L13.0875006,14.5416673 L13.0875006,15.995834 L13.0875006,15.995834 Z" id="Fill-192" fill="#FFFFFF"></path>
    </g>
</svg>