<?xml version="1.0" encoding="UTF-8"?>
<svg width="23px" height="23px" viewBox="0 0 23 23" version="1.1" xmlns="http://www.w3.org/2000/svg" xmlns:xlink="http://www.w3.org/1999/xlink">
    <!-- Generator: Sketch 50.2 (55047) - http://www.bohemiancoding.com/sketch -->
    <title>CloseIcon</title>
    <desc>Created with Sketch.</desc>
    <defs></defs>
    <g id="CloseIcon" stroke="none" stroke-width="1" fill="none" fill-rule="evenodd">
        <path d="M11.0089208,9.79673778 L20.5546073,0.25105133 C20.8893424,-0.0836837768 21.4320552,-0.0836837768 21.7667903,0.25105133 C22.1015254,0.585786438 22.1015254,1.12849928 21.7667903,1.46323438 L12.2211039,11.0089208 L21.7667903,20.5546073 C22.1015254,20.8893424 22.1015254,21.4320552 21.7667903,21.7667903 C21.4320552,22.1015254 20.8893424,22.1015254 20.5546073,21.7667903 L11.0089208,12.2211039 L1.46323438,21.7667903 C1.12849928,22.1015254 0.585786438,22.1015254 0.25105133,21.7667903 C-0.0836837768,21.4320552 -0.0836837768,20.8893424 0.25105133,20.5546073 L9.79673778,11.0089208 L0.25105133,1.46323438 C-0.0836837768,1.12849928 -0.0836837768,0.585786438 0.25105133,0.25105133 C0.585786438,-0.0836837768 1.12849928,-0.0836837768 1.46323438,0.25105133 L11.0089208,9.79673778 Z" id="Combined-Shape" fill="#FFFFFF"></path>
    </g>
</svg>