<?xml version="1.0" encoding="UTF-8"?>
<svg width="16px" height="18px" viewBox="0 0 16 18" version="1.1" xmlns="http://www.w3.org/2000/svg" xmlns:xlink="http://www.w3.org/1999/xlink">
    <!-- Generator: Sketch 50.2 (55047) - http://www.bohemiancoding.com/sketch -->
    <title>ColumnDisplayIconNegative</title>
    <desc>Created with Sketch.</desc>
    <defs></defs>
    <g id="ColumnDisplayIconNegative" stroke="none" stroke-width="1" fill="none" fill-rule="evenodd">
        <path d="M-0.727272727,2.90909091 L-0.727272727,1.45454545 C-0.727272727,1.25090909 -0.656969697,1.07878788 -0.516363636,0.938181818 C-0.375757576,0.798060606 -0.203636364,0.727272727 6.61248833e-13,0.727272727 L16,0.727272727 C16.2036364,0.727272727 16.3757576,0.798060606 16.5168485,0.938181818 C16.6569697,1.07878788 16.7272727,1.25090909 16.7272727,1.45454545 L16.7272727,2.90909091 C16.7272727,3.1030303 16.6569697,3.27272727 16.5168485,3.41818182 C16.3757576,3.56363636 16.2036364,3.63636364 16,3.63636364 L6.61248833e-13,3.63636364 C-0.203636364,3.63636364 -0.375757576,3.56363636 -0.516363636,3.41818182 C-0.656969697,3.27272727 -0.727272727,3.1030303 -0.727272727,2.90909091 C-0.727272727,2.90909091 -0.727272727,3.1030303 -0.727272727,2.90909091 L-0.727272727,2.90909091 L-0.727272727,2.90909091 Z M-0.727272727,7.27272727 L-0.727272727,5.81818182 C-0.727272727,5.61454545 -0.656969697,5.44242424 -0.516363636,5.30181818 C-0.375757576,5.16169697 -0.203636364,5.09090909 6.61248833e-13,5.09090909 L16,5.09090909 C16.2036364,5.09090909 16.3757576,5.16169697 16.5168485,5.30181818 C16.6569697,5.44242424 16.7272727,5.61454545 16.7272727,5.81818182 L16.7272727,7.27272727 C16.7272727,7.46666667 16.6569697,7.63636364 16.5168485,7.78181818 C16.3757576,7.92727273 16.2036364,8 16,8 L6.61248833e-13,8 C-0.203636364,8 -0.375757576,7.92727273 -0.516363636,7.78181818 C-0.656969697,7.63636364 -0.727272727,7.46666667 -0.727272727,7.27272727 C-0.727272727,7.27272727 -0.727272727,7.46666667 -0.727272727,7.27272727 L-0.727272727,7.27272727 L-0.727272727,7.27272727 Z M-0.727272727,11.6363636 L-0.727272727,10.1818182 C-0.727272727,9.97818182 -0.656969697,9.80606061 -0.516363636,9.66545455 C-0.375757576,9.52533333 -0.203636364,9.45454545 6.61248833e-13,9.45454545 L16,9.45454545 C16.2036364,9.45454545 16.3757576,9.52533333 16.5168485,9.66545455 C16.6569697,9.80606061 16.7272727,9.97818182 16.7272727,10.1818182 L16.7272727,11.6363636 C16.7272727,11.830303 16.6569697,12 16.5168485,12.1454545 C16.3757576,12.2909091 16.2036364,12.3636364 16,12.3636364 L6.61248833e-13,12.3636364 C-0.203636364,12.3636364 -0.375757576,12.2909091 -0.516363636,12.1454545 C-0.656969697,12 -0.727272727,11.830303 -0.727272727,11.6363636 C-0.727272727,11.6363636 -0.727272727,11.830303 -0.727272727,11.6363636 L-0.727272727,11.6363636 L-0.727272727,11.6363636 Z M-0.727272727,16 L-0.727272727,14.5454545 C-0.727272727,14.3418182 -0.656969697,14.169697 -0.516363636,14.0290909 C-0.375757576,13.8889697 -0.203636364,13.8181818 6.61248833e-13,13.8181818 L16,13.8181818 C16.2036364,13.8181818 16.3757576,13.8889697 16.5168485,14.0290909 C16.6569697,14.169697 16.7272727,14.3418182 16.7272727,14.5454545 L16.7272727,16 C16.7272727,16.1939394 16.6569697,16.3636364 16.5168485,16.5090909 C16.3757576,16.6545455 16.2036364,16.7272727 16,16.7272727 L6.61248833e-13,16.7272727 C-0.203636364,16.7272727 -0.375757576,16.6545455 -0.516363636,16.5090909 C-0.656969697,16.3636364 -0.727272727,16.1939394 -0.727272727,16 L-0.727272727,16 Z" id="Fill-58" fill="#FFFFFF" transform="translate(8.000000, 8.727273) rotate(-270.000000) translate(-8.000000, -8.727273) "></path>
    </g>
</svg>