<?xml version="1.0" encoding="UTF-8"?>
<svg width="11px" height="12px" viewBox="0 0 11 12" version="1.1" xmlns="http://www.w3.org/2000/svg" xmlns:xlink="http://www.w3.org/1999/xlink">
    <!-- Generator: Sketch 50.2 (55047) - http://www.bohemiancoding.com/sketch -->
    <title>DeleteIconNegative</title>
    <desc>Created with Sketch.</desc>
    <defs></defs>
    <g id="DeleteIconNegative" stroke="none" stroke-width="1" fill="none" fill-rule="evenodd">
        <path d="M7.37893928,1.84473482 L9.91544965,1.84473482 C9.97694081,1.84473482 10.0307456,1.867794 10.0771714,1.91391238 C10.1229823,1.96003075 10.1460415,2.01383551 10.1460415,2.07532667 L10.1460415,2.53651038 C10.1460415,2.60415065 10.1245196,2.6594927 10.0814758,2.70253651 C10.0387394,2.74558032 9.98308993,2.76710223 9.91544965,2.76710223 L0.230591852,2.76710223 C0.162951576,2.76710223 0.107609531,2.74558032 0.0645657187,2.70253651 C0.021829362,2.6594927 0,2.60415065 0,2.53651038 L0,2.07532667 C0,2.01383551 0.023366641,1.96003075 0.0691775557,1.91391238 C0.115295926,1.867794 0.169100692,1.84473482 0.230591852,1.84473482 L2.76710223,1.84473482 L2.76710223,0.92236741 C2.76710223,0.670253651 2.85780169,0.45349731 3.03920061,0.272098386 C3.22059954,0.0910069178 3.43735588,0 3.68946964,0 L6.45657187,0 C6.70899308,0 6.92574942,0.0910069178 7.10714835,0.272098386 C7.28823982,0.45349731 7.37893928,0.670253651 7.37893928,0.92236741 L7.37893928,1.84473482 L7.37893928,1.84473482 L7.37893928,1.84473482 L7.37893928,1.84473482 Z M0.92236741,3.68946964 L9.2236741,3.68946964 L9.2236741,11.0684089 C9.2236741,11.3205227 9.13297463,11.5388163 8.95188317,11.7232898 C8.77048424,11.9077633 8.5537279,12 8.30130669,12 L1.84473482,12 C1.59262106,12 1.37586472,11.9077633 1.1944658,11.7232898 C1.01306687,11.5388163 0.92236741,11.3205227 0.92236741,11.0684089 L0.92236741,3.68946964 L0.92236741,3.68946964 L0.92236741,3.68946964 L0.92236741,3.68946964 Z M1.84473482,11.0684089 L2.76710223,11.0684089 L2.76710223,4.61183705 L1.84473482,4.61183705 L1.84473482,4.61183705 L1.84473482,11.0684089 L1.84473482,11.0684089 Z M3.68946964,1.84473482 L6.45657187,1.84473482 L6.45657187,0.92236741 L3.68946964,0.92236741 L3.68946964,0.92236741 L3.68946964,1.84473482 L3.68946964,1.84473482 Z M3.68946964,11.0684089 L4.61183705,11.0684089 L4.61183705,4.61183705 L3.68946964,4.61183705 L3.68946964,4.61183705 L3.68946964,11.0684089 L3.68946964,11.0684089 Z M5.53420446,11.0684089 L6.45657187,11.0684089 L6.45657187,4.61183705 L5.53420446,4.61183705 L5.53420446,4.61183705 L5.53420446,11.0684089 L5.53420446,11.0684089 Z M7.37893928,11.0684089 L8.30130669,11.0684089 L8.30130669,4.61183705 L7.37893928,4.61183705 L7.37893928,4.61183705 L7.37893928,11.0684089 L7.37893928,11.0684089 Z" id="Fill-26" fill="#FFFFFF"></path>
    </g>
</svg>