<?xml version="1.0" encoding="UTF-8"?>
<svg width="60px" height="60px" viewBox="0 0 60 60" version="1.1" xmlns="http://www.w3.org/2000/svg" xmlns:xlink="http://www.w3.org/1999/xlink">
    <!-- Generator: Sketch 52.6 (67491) - http://www.bohemiancoding.com/sketch -->
    <title>DepartFromPAStationGreen</title>
    <desc>Created with Sketch.</desc>
    <g id="DepartFromPAStationGreen" stroke="none" stroke-width="1" fill="none" fill-rule="evenodd">
        <g id="Page-1" transform="translate(8.000000, 19.000000)">
            <polygon id="Fill-1" fill="#00C300" points="23 13.9700777 23 25 24.7719246 25 24.7719246 15.9248421 38.1903508 15.8860672 38.2254172 24.9612251 40 25 40 13.9700777 31.7813223 11"></polygon>
            <rect id="Rectangle-2" fill="#FFFFFF" x="3" y="9" width="23" height="17"></rect>
            <polygon id="Fill-1" fill="#00C300" points="0 5.30648728 0 25.0130902 3.02903211 25.0130902 3.02903211 8.79896564 25.9672794 8.72968858 26.027224 24.9438131 29.0608002 25.0130902 29.0608002 5.30648728 15.011309 0"></polygon>
            <rect id="Rectangle-8" fill="#00C300" x="10" y="21" width="4" height="4"></rect>
            <rect id="Rectangle-8" fill="#00C300" x="5" y="16" width="4" height="4"></rect>
            <rect id="Rectangle-8" fill="#00C300" x="10" y="16" width="4" height="4"></rect>
            <rect id="Rectangle-8" fill="#00C300" x="15" y="21" width="4" height="4"></rect>
            <rect id="Rectangle-8" fill="#00C300" x="20" y="21" width="4" height="4"></rect>
            <rect id="Rectangle-8" fill="#00C300" x="20" y="16" width="4" height="4"></rect>
            <rect id="Rectangle-8" fill="#00C300" x="15" y="16" width="4" height="4"></rect>
            <rect id="Rectangle-8" fill="#00C300" x="5" y="11" width="4" height="4"></rect>
            <rect id="Rectangle-8" fill="#00C300" x="5" y="21" width="4" height="4"></rect>
        </g>
        <rect id="Rectangle" stroke="#FFFFFF" fill="#00C300" x="28.5" y="39.5" width="22" height="8"></rect>
        <path d="M50.5,40.8493803 L50.5,49.5 L55.5,49.5 L55.5,43.624621 L50.5,40.8493803 Z" id="Rectangle-Copy" stroke="#FFFFFF" fill="#00C300"></path>
        <ellipse id="Oval" fill="#00C300" cx="33.0714286" cy="49.1306225" rx="1.07142857" ry="1.13062254"></ellipse>
        <ellipse id="Oval" fill="#00C300" cx="36.0714286" cy="49.1306225" rx="1.07142857" ry="1.13062254"></ellipse>
        <ellipse id="Oval" fill="#FFFFFF" cx="50.8952896" cy="49" rx="1.8952896" ry="2"></ellipse>
        <ellipse id="Oval" fill="#00C300" cx="51.0714286" cy="49.1306225" rx="1.07142857" ry="1.13062254"></ellipse>
    </g>
</svg>