<?xml version="1.0" encoding="UTF-8"?>
<svg width="16px" height="24px" viewBox="0 0 16 24" version="1.1" xmlns="http://www.w3.org/2000/svg" xmlns:xlink="http://www.w3.org/1999/xlink">
    <!-- Generator: Sketch 50.2 (55047) - http://www.bohemiancoding.com/sketch -->
    <title>DictationActive</title>
    <desc>Created with Sketch.</desc>
    <defs></defs>
    <g id="DictationActive" stroke="none" stroke-width="1" fill="none" fill-rule="evenodd">
        <path d="M8.9949564,20.016812 L8.9949564,21.9922234 L12.9993008,21.9922234 L12.9993008,24 L2.99427123,24 L2.99427123,21.9922234 L6.99164613,21.9922234 L6.99164613,20.016812 C3.05763597,19.5180937 -0.00494049368,16.7014822 5.9834138e-06,12.820241 C5.9834138e-06,12.795502 0.0022576907,11.8554217 0.00676110529,10 L1.99449916,10.0101205 L1.99449916,12.9966959 C2.27540422,15.9961048 4.64169167,17.9480642 7.81188843,18.0523123 L8.17097649,18.0523123 C11.342188,17.9497825 13.712024,15.9970914 13.9752056,12.9966959 L13.9965375,10.0101205 L16,10 L16,12.820241 C15.9917688,16.6946019 12.3440747,19.7363012 8.9949564,20.016812 Z M12.9520592,12.6730481 C12.9296538,13.1018721 12.8538149,13.5273667 12.725854,13.9421736 C12.4403216,14.8128279 11.831458,15.5784618 10.9928304,16.1214164 C9.27271735,17.2928612 6.84620221,17.2928612 5.12608919,16.1214164 C4.28528006,15.580143 3.67566325,14.8138847 3.39233583,13.9421736 C3.26378725,13.5274837 3.18805875,13.1019221 3.16649548,12.6730481 C3.13475379,12.1975197 3.13767256,11.6967978 3.13767256,11.2212694 L3.13767256,7.24068722 C3.13767256,6.76830801 3.14059134,4.68039189 3.13767256,4.32768208 C3.15209236,3.89627859 3.23809844,3.46888817 3.39306553,3.0585566 C3.97715618,1.25057935 5.88529565,0 8.05982463,0 C10.2343536,0 12.1424931,1.25057935 12.7265837,3.0585566 C12.8637484,3.47255764 12.9493637,3.89800586 12.9819767,4.32768208 C13.0148129,4.80321049 12.9819767,6.76830801 12.9819767,7.24068722 L12.9819767,11.2212694 C12.981247,11.6967978 12.981247,12.1975197 12.9520592,12.6730481 Z M9.98848164,11.2474975 C9.98848164,11.4874972 9.98378262,11.5674972 9.96968554,11.8074969 C9.9615776,12.0254332 9.93084721,12.2417474 9.87805454,12.4524963 C9.76553057,12.8949862 9.52056335,13.2864109 9.18024922,13.5674953 C8.48295373,14.1441682 7.50688626,14.1441682 6.80959077,13.5674953 C6.46795697,13.2872363 6.22202825,12.8955939 6.10943594,12.4524963 C6.05778151,12.241497 6.02706981,12.0253144 6.01780494,11.8074969 C6.00605738,11.5674972 6.00370786,11.4874972 6.00370786,11.2474975 C6.00370786,7.92250054 5.98961079,5.45750282 6.00840689,5.19250307 C6.02199788,4.97448269 6.05583924,4.75842937 6.10943594,4.54750367 C6.22202825,4.10440605 6.46795697,3.71276373 6.80959077,3.4325047 C7.50688626,2.85583177 8.48295373,2.85583177 9.18024922,3.4325047 C9.52056335,3.71358911 9.76553057,4.10501376 9.87805454,4.54750367 C9.93774018,4.75745808 9.97555942,4.97375636 9.99083115,5.19250307 C10.0072777,5.4775028 9.98848164,7.91250055 9.98848164,11.2474975 Z" id="Dictation" fill="#373C8C"></path>
        <circle id="Oval" fill="#373C8C" cx="1" cy="10" r="1"></circle>
        <circle id="Oval" fill="#373C8C" cx="15" cy="10" r="1"></circle>
        <circle id="Oval" fill="#373C8C" cx="3" cy="23" r="1"></circle>
        <circle id="Oval" fill="#373C8C" cx="13" cy="23" r="1"></circle>
    </g>
</svg>