<?xml version="1.0" encoding="UTF-8"?>
<svg width="13px" height="16px" viewBox="0 0 13 16" version="1.1" xmlns="http://www.w3.org/2000/svg" xmlns:xlink="http://www.w3.org/1999/xlink">
    <!-- Generator: Sketch 50.2 (55047) - http://www.bohemiancoding.com/sketch -->
    <title>DuplicateIconNegative</title>
    <desc>Created with Sketch.</desc>
    <defs></defs>
    <g id="DuplicateIconNegative" stroke="none" stroke-width="1" fill="none" fill-rule="evenodd">
        <path d="M9,5 L13,5 L13,11.75 C13,11.8233333 12.9766667,11.8833333 12.93,11.93 C12.8836667,11.9766667 12.8233333,12 12.75,12 L4.25,12 C4.17666667,12 4.11666667,11.9766667 4.07,11.93 C4.02366667,11.8833333 4,11.8233333 4,11.75 L4,0.25 C4,0.176666667 4.02366667,0.116666667 4.07,0.07 C4.11666667,0.0233333333 4.17666667,0 4.25,0 L9,0 L9,5 L9,5 L9,5 L9,5 Z M13,4 L10,4 L10,1 L13,4 L13,4 Z" id="Fill-28" fill-opacity="0.8" fill="#FFFFFF"></path>
        <path d="M5,9 L9,9 L9,15.75 C9,15.8233333 8.97666667,15.8833333 8.93,15.93 C8.88366667,15.9766667 8.82333333,16 8.75,16 L0.25,16 C0.176666667,16 0.116666667,15.9766667 0.07,15.93 C0.0236666667,15.8833333 0,15.8233333 0,15.75 L0,4.25 C0,4.17666667 0.0236666667,4.11666667 0.07,4.07 C0.116666667,4.02333333 0.176666667,4 0.25,4 L5,4 L5,9 L5,9 L5,9 L5,9 Z M9,8 L6,8 L6,5 L9,8 L9,8 Z" id="Fill-28" fill="#FFFFFF"></path>
    </g>
</svg>