<?xml version="1.0" encoding="UTF-8"?>
<svg width="14px" height="14px" viewBox="0 0 14 14" version="1.1" xmlns="http://www.w3.org/2000/svg" xmlns:xlink="http://www.w3.org/1999/xlink">
    <!-- Generator: Sketch 50.2 (55047) - http://www.bohemiancoding.com/sketch -->
    <title>EditIcon</title>
    <desc>Created with Sketch.</desc>
    <defs></defs>
    <g id="EditIcon" stroke="none" stroke-width="1" fill="none" fill-rule="evenodd">
        <path d="M1.2564981,10.1745514 L3.80261011,12.721044 L0,14 L1.2564981,10.1745514 L1.2564981,10.1745514 L1.2564981,10.1745514 L1.2564981,10.1745514 Z M2.28384992,9.24959217 L9.29526917,2.23817292 L11.7393692,4.68189233 L4.72756933,11.6933116 L2.28384992,9.24959217 L2.28384992,9.24959217 L2.28384992,9.24959217 L2.28384992,9.24959217 Z M10.2773246,1.25611746 L11.3507341,0.148450245 C11.4653072,0.0494834149 11.590919,0 11.7275693,0 C11.8646003,0 11.9902121,0.0494834149 12.1047852,0.148450245 L13.8515498,1.89559543 C13.9505166,2.0021751 14.0003806,2.12969005 14.0003806,2.27814029 C14.0003806,2.42659054 13.9505166,2.55067972 13.8515498,2.64926591 L12.721044,3.69983687 L10.2773246,1.25611746 L10.2773246,1.25611746 Z" id="Edit" fill="#231F20"></path>
    </g>
</svg>