<?xml version="1.0" encoding="UTF-8"?>
<svg width="16px" height="16px" viewBox="0 0 16 16" version="1.1" xmlns="http://www.w3.org/2000/svg" xmlns:xlink="http://www.w3.org/1999/xlink">
    <!-- Generator: Sketch 50.2 (55047) - http://www.bohemiancoding.com/sketch -->
    <title>ErrorIcon</title>
    <desc>Created with Sketch.</desc>
    <defs></defs>
    <g id="ErrorIcon" stroke="none" stroke-width="1" fill="none" fill-rule="evenodd">
        <path d="M3.98693504,1.0720268 C5.21481812,0.357342267 6.55258089,0 7.99977667,0 C9.44741911,0 10.7847352,0.357342267 12.013065,1.0720268 C13.2413947,1.78671133 14.2133385,2.75823562 14.9275565,3.98659966 C15.642221,5.21496371 16,6.55276382 16,8 C16,9.44723618 15.642221,10.7850363 14.9275565,12.0134003 C14.2133385,13.2417644 13.2413947,14.2132887 12.013065,14.9279732 C10.7847352,15.6426577 9.44741911,16 7.99977667,16 C6.55258089,16 5.21481812,15.6426577 3.98693504,14.9279732 C2.75815862,14.2132887 1.78666146,13.2417644 1.07244354,12.0134003 C0.357332291,10.7850363 0,9.44723618 0,8 C0,6.55276382 0.357332291,5.21496371 1.07244354,3.98659966 C1.78666146,2.75823562 2.75815862,1.78671133 3.98693504,1.0720268 C3.98693504,1.0720268 2.75815862,1.78671133 3.98693504,1.0720268 L3.98693504,1.0720268 L3.98693504,1.0720268 Z M3.27003713,6.11055276 L5.15943162,8 L3.2561905,9.88944724 L6.11038218,12.7437186 L7.99977667,10.840871 L9.88961782,12.7437186 L12.7433628,9.88944724 L10.8405684,8 L12.7433628,6.11055276 L9.88961782,3.26968174 L7.99977667,5.15912898 L6.11038218,3.25628141 L3.27003713,6.11055276 L3.27003713,6.11055276 Z" id="Fill-85" fill="#D91A26"></path>
    </g>
</svg>