<?xml version="1.0" encoding="UTF-8"?>
<svg width="16px" height="14px" viewBox="0 0 16 14" version="1.1" xmlns="http://www.w3.org/2000/svg" xmlns:xlink="http://www.w3.org/1999/xlink">
    <!-- Generator: Sketch 50.2 (55047) - http://www.bohemiancoding.com/sketch -->
    <title>ExportIcon</title>
    <desc>Created with Sketch.</desc>
    <defs></defs>
    <g id="ExportIcon" stroke="none" stroke-width="1" fill="none" fill-rule="evenodd">
        <path d="M10,13.8086667 C9.55833333,13.9363636 9.14166667,14 8.75,14 L5,14 C3.62541667,14 2.44791667,13.5015152 1.46916667,12.5041212 C0.489583333,11.5075758 0,10.3086667 0,8.90909091 L0,5.09090909 C0,3.69090909 0.489583333,2.49242424 1.46916667,1.49545455 C2.44791667,0.498060606 3.62541667,0 5,0 L6.1625,0.025030303 C6.93791667,0.0424242424 7.74166667,0.0657575758 8.575,0.095030303 C9.40833333,0.124727273 9.88333333,0.156969697 10,0.190909091 L10,2.54545455 L3.75,2.54545455 C3.40833333,2.54545455 3.11458333,2.67018182 2.86875,2.92048485 C2.62291667,3.17121212 2.5,3.46987879 2.5,3.81818182 L2.5,10.1818182 C2.5,10.529697 2.62291667,10.8287879 2.86875,11.0790909 C3.11458333,11.3293939 3.40833333,11.4545455 3.75,11.4545455 L10,11.4545455 L10,13.8086667 L10,13.8086667 L10,13.8086667 L10,13.8086667 Z" id="Fill-154" fill="#231F20"></path>
        <polygon id="Fill-154" fill="#231F20" points="10.8571429 2 10.8571429 4.57142857 7 4.57142857 7 8.42857143 10.8571429 8.42857143 10.8571429 11 16 6.5"></polygon>
    </g>
</svg>