<?xml version="1.0" encoding="UTF-8"?>
<svg width="60px" height="60px" viewBox="0 0 60 60" version="1.1" xmlns="http://www.w3.org/2000/svg" xmlns:xlink="http://www.w3.org/1999/xlink">
    <!-- Generator: Sketch 52.6 (67491) - http://www.bohemiancoding.com/sketch -->
    <title>ExportImportClearanceDarkOrange</title>
    <desc>Created with Sketch.</desc>
    <defs>
        <polygon id="path-1" points="13.8260501 0.290598291 0.0253693694 0.290598291 0.0253693694 8.67248623 13.8260501 8.67248623 13.8260501 0.290598291"></polygon>
    </defs>
    <g id="ExportImportClearanceDarkOrange" stroke="none" stroke-width="1" fill="none" fill-rule="evenodd">
        <g id="Page-1" transform="translate(12.000000, 13.000000)">
            <path d="M18.7693614,8.09038557 C18.7693614,4.94546629 21.2986106,2.39724217 24.4172492,2.39724217 C27.5371692,2.39724217 30.0651371,4.94546629 30.0651371,8.09038557 C30.0651371,11.2353048 27.5371692,13.7822374 24.4172492,13.7822374 C21.2986106,13.7822374 18.7693614,11.2353048 18.7693614,8.09038557" id="Fill-1" fill="#FF7300"></path>
            <g id="Group-5" transform="translate(16.240240, 0.129284)">
                <mask id="mask-2" fill="white">
                    <use xlink:href="#path-1"></use>
                </mask>
                <g id="Clip-4"></g>
                <polygon id="Fill-3" fill="#FF7300" mask="url(#mask-2)" points="0.0253693694 8.67248623 13.7337978 8.33280912 13.8260501 2.66162203 1.28358759 0.290339981 0.0253693694 2.40718708 2.88390791 6.04806078"></polygon>
            </g>
            <path d="M18.0223744,33.7095309 L30.5417738,17.1053903 C30.5417738,17.1053903 31.9037758,18.2910313 31.9037758,19.7931016 L31.9037758,33.7095309 L18.0223744,33.7095309 Z" id="Fill-6" fill="#FF7300"></path>
            <polygon id="Fill-8" fill="#FF7300" points="27.0914114 16.3921975 15.951952 31.6531282 15.951952 25.4059107 10.8268268 29.4923685 2.56384384 21.4796049 9.25725726 21.4796049 11.4546547 23.5874112 19.0334334 16.3921975"></polygon>
            <polygon id="Fill-10" fill="#FF7300" points="9.36245045 20.0031073 1.71704505 20.0031073 0.000128128128 8.80151187 7.84285085 9.19801709"></polygon>
            <polygon id="Fill-12" fill="#FF7300" points="10.3522402 16.9848889 9.09786587 7.97117569 2.11616416 7.74773789 10.0267948 4.96574359 11.6066146 16.3920684"></polygon>
        </g>
    </g>
</svg>