<?xml version="1.0" encoding="UTF-8"?>
<svg width="60px" height="60px" viewBox="0 0 60 60" version="1.1" xmlns="http://www.w3.org/2000/svg" xmlns:xlink="http://www.w3.org/1999/xlink">
    <!-- Generator: Sketch 52.6 (67491) - http://www.bohemiancoding.com/sketch -->
    <title>ExportImportTerminalDarkGrey</title>
    <desc>Created with Sketch.</desc>
    <g id="ExportImportTerminalDarkGrey" stroke="none" stroke-width="1" fill="none" fill-rule="evenodd">
        <g id="Page-1" transform="translate(14.000000, 11.000000)" fill="#969696">
            <polygon id="Fill-1" points="0 37.8717949 31.2081923 37.8717949 31.2081923 22.9747708 0 22.9747708"></polygon>
            <polygon id="Fill-2" points="28.9049948 23.2551965 28.4101149 23.6633342 15.1152351 12.7233532 15.6114525 12.3152156"></polygon>
            <polygon id="Fill-3" points="3.10236155 23.6630639 2.60748171 23.2549262 15.901024 12.3162968 16.3959039 12.723083"></polygon>
            <polygon id="Fill-4" points="11.8149216 -0.000270289832 11.8149216 5.63121835 13.9897179 8.33411667 17.483302 8.33411667 19.6901985 5.63121835 19.6901985 -0.000270289832"></polygon>
            <path d="M17.172999,6.61291102 L17.172999,8.52791448 C17.172999,8.52791448 18.5720376,9.41716802 18.5720376,11.2078382 C18.5720376,12.9998597 16.7877952,13.9337111 15.6602717,13.9337111 C15.6602717,13.9337111 13.5804389,14.1026423 12.6067294,12.6376714 L12.9718704,11.8497765 C12.9718704,11.8497765 14.4471473,13.0322945 15.6602717,12.5255011 C16.873396,12.0187077 17.1649739,10.1347875 14.8805016,9.62799409 L14.8109509,6.61291102 L17.172999,6.61291102 Z" id="Fill-5"></path>
        </g>
    </g>
</svg>