<?xml version="1.0" encoding="UTF-8"?>
<svg width="32px" height="32px" viewBox="0 0 32 32" version="1.1" xmlns="http://www.w3.org/2000/svg" xmlns:xlink="http://www.w3.org/1999/xlink">
    <!-- Generator: Sketch 50.2 (55047) - http://www.bohemiancoding.com/sketch -->
    <title>FilterOverland</title>
    <desc>Created with Sketch.</desc>
    <defs></defs>
    <g id="FilterOverland" stroke="none" stroke-width="1" fill="none" fill-rule="evenodd">
        <circle id="Oval" fill="#373C8C" cx="16" cy="16" r="16"></circle>
        <g id="TruckWhite" transform="translate(6.000000, 10.000000)" fill="#FFFFFF">
            <g id="Group">
                <path d="M4.2,8.8 C2.75252204,8.8 1.575,10.0335945 1.575,11.55 C1.575,11.5643184 1.57510499,11.5786116 1.57531419,11.5928788 L0.527376429,11.5928788 C0.204789042,11.5928788 -0.000372933991,11.3699371 5.22457564e-12,11.0113862 L3.97714373e-12,7.7 L15.7596799,7.7 L15.7596799,1.86517692 C18.9436514,1.86517692 20.953483,3.00709203 21,6.1027656 L21,11.5928788 C20.6645735,11.6007238 20.3143526,11.6071853 19.9493372,11.6122633 C19.9497783,11.5915638 19.95,11.5708085 19.95,11.55 C19.95,10.0335945 18.772478,8.8 17.325,8.8 C15.877522,8.8 14.7,10.0335945 14.7,11.55 C14.7,11.5683043 14.7001716,11.5865674 14.7005131,11.6047876 C14.4272253,11.6012544 14.1492708,11.5972848 13.8666496,11.5928788 L11.0246858,11.5928788 C11.024895,11.5786116 11.025,11.5643184 11.025,11.55 C11.025,10.0335945 9.84747796,8.8 8.4,8.8 L4.2,8.8 Z M6.29878991,9.9 L6.30121009,9.9 C6.3008066,9.90056203 6.3004032,9.90112422 6.3,9.90168659 C6.2995968,9.90112422 6.2991934,9.90056203 6.2987898,9.9 Z" id="Combined-Shape"></path>
                <path d="M13.5972042,6.6 L14.7,6.6 L14.7,0.558519553 C14.7,0.280727691 14.4551311,0.0538315018 14.1553351,0.0538315018 L0.544736701,0.0538315018 C0.245295032,0.0538315018 7.17948735e-05,0.280727691 7.17948735e-05,0.558519553 L7.17948735e-05,6.6 L0.544736701,6.6 L13.5972042,6.6 Z" id="Path"></path>
                <path d="M17.325,9.9 C16.4565132,9.9 15.75,10.6401567 15.75,11.55 C15.75,12.4598433 16.4565132,13.2 17.325,13.2 C18.1934868,13.2 18.9,12.4598433 18.9,11.55 C18.9,10.6401567 18.1934868,9.9 17.325,9.9" id="Fill-7"></path>
                <path d="M4.2,9.9 C3.33151322,9.9 2.625,10.6401567 2.625,11.55 C2.625,12.4598433 3.33151322,13.2 4.2,13.2 C5.06848678,13.2 5.775,12.4598433 5.775,11.55 C5.775,10.6401567 5.06848678,9.9 4.2,9.9" id="Fill-7"></path>
                <path d="M8.4,9.9 C7.53151322,9.9 6.825,10.6401567 6.825,11.55 C6.825,12.4598433 7.53151322,13.2 8.4,13.2 C9.26848678,13.2 9.975,12.4598433 9.975,11.55 C9.975,10.6401567 9.26848678,9.9 8.4,9.9" id="Fill-7"></path>
            </g>
        </g>
    </g>
</svg>