<?xml version="1.0" encoding="UTF-8"?>
<svg width="32px" height="32px" viewBox="0 0 32 32" version="1.1" xmlns="http://www.w3.org/2000/svg" xmlns:xlink="http://www.w3.org/1999/xlink">
    <!-- Generator: Sketch 50.2 (55047) - http://www.bohemiancoding.com/sketch -->
    <title>FilterAirNegative</title>
    <desc>Created with Sketch.</desc>
    <defs></defs>
    <g id="FilterAirNegative" stroke="none" stroke-width="1" fill="none" fill-rule="evenodd">
        <circle id="Oval" fill="#FFFFFF" cx="16" cy="16" r="16"></circle>
        <g id="Plane" transform="translate(5.000000, 9.000000)" fill="#373C8C">
            <path d="M0,5.95858018 L2.62305871,10.6070867 L0.346508574,11.5164018 L1.31152936,12.5225149 L6.46005684,12.5225149 L21.9784905,5.95858018 C22.2925489,5.86324876 22.5915633,5.59619858 22.8755337,5.15742962 C23.1595041,4.71866067 23.3768957,4.38842287 23.5277084,4.16671621 C23.6982895,3.71254757 23.5599721,3.41885347 23.112756,3.28563393 C22.6655398,3.15241439 22.207134,3.08580461 21.7375384,3.08580461 C21.4820396,2.92911888 20.9919295,2.99572865 20.2672081,3.28563393 C19.5424868,3.57553921 17.6370626,4.35285691 14.5509357,5.61758704 L5.4117254,0 L4.28939569,0.554755511 L10.4996947,7.22868797 L5.4117254,9.39766102 L1.31152936,5.61758704 L0,5.95858018 Z" id="Path-6"></path>
            <polygon id="Path-7" points="17.1786843 10.1111111 14.2040816 11.3894687 15.485119 12.8979051 17.1786843 12.5754282"></polygon>
        </g>
    </g>
</svg>