<?xml version="1.0" encoding="UTF-8"?>
<svg width="24px" height="24px" viewBox="0 0 24 24" version="1.1" xmlns="http://www.w3.org/2000/svg" xmlns:xlink="http://www.w3.org/1999/xlink">
    <!-- Generator: Sketch 50.2 (55047) - http://www.bohemiancoding.com/sketch -->
    <title>HappyActive</title>
    <desc>Created with Sketch.</desc>
    <defs></defs>
    <g id="HappyActive" stroke="none" stroke-width="1" fill="none" fill-rule="evenodd">
        <path d="M12,0 C18.627417,0 24,5.372583 24,12 C24,18.627417 18.627417,24 12,24 C5.372583,24 0,18.627417 0,12 C0,5.372583 5.372583,0 12,0 Z M11.999838,2.82889999 C17.0647615,2.82947327 21.1702822,6.93576842 21.1699,12.0006919 C21.1695178,17.0656155 17.0633776,21.171291 11.998454,21.1710999 C6.93353049,21.1709089 2.82770003,17.0649235 2.82769999,12 C2.82776881,9.56751428 3.79417153,7.23469178 5.514296,5.51476198 C7.23442048,3.79483218 9.56735234,2.8286935 11.999838,2.82889999 Z M8.41180042,7.79501461 C7.98586271,7.78993985 7.57567956,7.9558835 7.27308576,8.25569289 C6.97049197,8.55550228 6.80076361,8.96413391 6.80190073,9.39010032 C6.80190073,10.2792234 7.52267737,11 8.41180042,11 C9.30092346,11 10.0217001,10.2792234 10.0217001,9.39010032 C10.0228372,8.96413391 9.85310886,8.55550228 9.55051507,8.25569289 C9.24792127,7.9558835 8.83773812,7.78993985 8.41180042,7.79501461 Z M11.9990705,18.4981292 C9.50337857,18.4981292 7.43350611,16.7232566 7.01087279,14.5904109 C6.9252216,14.0581365 7.36116178,13.9325648 7.77180019,14.0318977 C9.14551179,14.4290981 10.5701246,14.6223302 12.0000076,14.6054045 C13.4266583,14.6219455 14.8480343,14.4293557 16.218844,14.0337719 C16.6180497,13.9325648 17.045556,14.0468913 16.996077,14.5398073 C16.5968712,16.6970178 14.5148164,18.4981292 11.9990705,18.4981292 Z M15.6078937,7.79501377 C15.185077,7.78997752 14.777895,7.95468241 14.4774866,8.25226285 C14.1770782,8.54984328 14.0085295,8.95544924 14.0095665,9.37829467 C14.0011328,9.95483228 14.3038817,10.4912209 14.8018197,10.7819518 C15.2997577,11.0726827 15.9156877,11.0726827 16.4136257,10.7819518 C16.9115637,10.4912209 17.2143126,9.95483228 17.2058789,9.37829467 C17.2069147,8.95550924 17.0384128,8.54995615 16.7380788,8.25238581 C16.4377449,7.95481546 16.0306515,7.79006977 15.6078937,7.79501377 Z" id="Emoji" fill="#373C8C"></path>
    </g>
</svg>