<?xml version="1.0" encoding="UTF-8"?>
<svg width="24px" height="24px" viewBox="0 0 24 24" version="1.1" xmlns="http://www.w3.org/2000/svg" xmlns:xlink="http://www.w3.org/1999/xlink">
    <!-- Generator: Sketch 52.6 (67491) - http://www.bohemiancoding.com/sketch -->
    <title>HelpGreen</title>
    <desc>Created with Sketch.</desc>
    <g id="HelpGreen" stroke="none" stroke-width="1" fill="none" fill-rule="evenodd">
        <circle id="Oval-3" fill="#41BE41" cx="12" cy="12" r="12"></circle>
        <g id="Group" transform="translate(8.000000, 5.000000)" fill="#FFFFFF">
            <path d="M0.00139393249,4.44098592 C-0.0499204721,1.48032864 1.31553107,0 4.09774857,0 C6.94100715,0 8.3575364,1.3726653 8.34733632,4.1179959 C8.28054183,5.18669507 7.77624423,6.07497712 6.83444352,6.78284203 C6.25777016,7.21627433 5.88869419,7.82295122 5.72721562,8.60287271 C5.72079539,9.27516692 5.17381166,9.81818182 4.5,9.81818182 C3.85105418,9.81818182 3.31974829,9.31450545 3.27568286,8.67675326 L3.26006203,8.67675326 C3.15651979,7.40291255 3.51660777,6.49048213 4.34032596,5.93946199 C5.16404415,5.38844186 5.65366881,4.78128649 5.80919993,4.1179959 C5.89239253,3.00733711 5.36750662,2.45200772 4.2345422,2.45200772 C3.10157778,2.45200772 2.50896847,3.18066902 2.45671425,4.63799163 L2.4468741,4.63799163 C2.37830144,5.2508372 1.85842582,5.72727273 1.22727273,5.72727273 C0.596119631,5.72727273 0.0762440134,5.2508372 0.00767135039,4.63799163 C0.00666452803,4.63391867 0.00651433138,4.62984839 0.00636670212,4.6257808 C0.00215675519,4.58442664 0,4.54246519 0,4.5 C0,4.48021581 0.000468135091,4.46054096 0.00139393249,4.44098592 Z M4.5,13.0909091 C3.82219599,13.0909091 3.27272727,12.5414404 3.27272727,11.8636364 C3.27272727,11.1858324 3.82219599,10.6363636 4.5,10.6363636 C5.17780401,10.6363636 5.72727273,11.1858324 5.72727273,11.8636364 C5.72727273,12.5414404 5.17780401,13.0909091 4.5,13.0909091 Z" id="Combined-Shape"></path>
        </g>
    </g>
</svg>