<?xml version="1.0" encoding="UTF-8"?>
<svg width="11px" height="12px" viewBox="0 0 11 12" version="1.1" xmlns="http://www.w3.org/2000/svg" xmlns:xlink="http://www.w3.org/1999/xlink">
    <!-- Generator: Sketch 50.2 (55047) - http://www.bohemiancoding.com/sketch -->
    <title>HyperlinkIconNegative</title>
    <desc>Created with Sketch.</desc>
    <defs></defs>
    <g id="HyperlinkIconNegative" stroke="none" stroke-width="1" fill="none" fill-rule="evenodd">
        <path d="M0,8.41390917 C0,7.80770379 0.214989549,7.29010017 0.644968647,6.85979533 L1.18244252,6.32264719 C1.37137273,6.68747794 1.61567904,7.0164771 1.91536144,7.30931893 L2.09126198,7.48521947 L1.16289802,8.41390917 L3.57664432,10.837102 L7.37805044,7.03569587 L5.30633296,4.96430413 L6.33274519,3.93789191 C6.37769755,3.97079182 6.44023996,4.02616792 6.51841798,4.1040202 L7.89630555,5.4822335 C8.3259589,5.9122126 8.54094845,6.43014197 8.54094845,7.03569587 C8.54094845,7.64190125 8.3259589,8.15950487 7.89630555,8.58980971 L5.13043242,11.3553571 C4.71348299,11.7850105 4.19555363,12 3.57664432,12 C2.97076468,12 2.45316105,11.7850105 2.02285621,11.3553571 L0.644968647,9.97746953 C0.214989549,9.54716469 0,9.02630365 0,8.41390917 C0,8.41390917 0,9.02630365 0,8.41390917 L0,8.41390917 L0,8.41390917 Z M2.71668612,6.5177665 C2.28703276,6.0877874 2.07204322,5.56985803 2.07204322,4.96430413 C2.07204322,4.34506908 2.28703276,3.82746546 2.71668612,3.41019029 L5.4822335,0.644642906 C5.89950867,0.214989549 6.4171123,0 7.03634735,0 C7.64190125,0 8.15983061,0.214989549 8.58980971,0.644642906 L9.96802302,2.02285621 C10.3976764,2.45283531 10.6126659,2.97076468 10.6126659,3.57631858 C10.6126659,3.85645647 10.5230869,4.16916854 10.343929,4.51478053 C10.1644453,4.86006678 9.96118244,5.14639377 9.73316322,5.37473873 L9.45009365,5.65813404 C9.24780803,5.3128478 8.99698689,4.99036347 8.69730449,4.69068107 L8.52140395,4.51478053 L9.45009365,3.57631858 L7.03634735,1.16289802 L3.23494123,4.96430413 L5.30633296,7.03569587 L4.28024648,8.06210809 L4.09457369,7.8959798 L2.71668612,6.5177665 L2.71668612,6.5177665 Z" id="Fill-137" fill="#FFFFFF"></path>
    </g>
</svg>