<?xml version="1.0" encoding="UTF-8"?>
<svg width="17px" height="16px" viewBox="0 0 17 16" version="1.1" xmlns="http://www.w3.org/2000/svg" xmlns:xlink="http://www.w3.org/1999/xlink">
    <!-- Generator: Sketch 50.2 (55047) - http://www.bohemiancoding.com/sketch -->
    <title>IconTrack</title>
    <desc>Created with Sketch.</desc>
    <defs></defs>
    <g id="IconTrack" stroke="none" stroke-width="1" fill="none" fill-rule="evenodd">
        <path d="M16,7.74886536 L15.6853253,8.23298033 C15.6369138,8.31366616 15.5562279,8.43469491 15.4436712,8.59606657 C15.3303076,8.75784165 15.1326273,9.01361573 14.8506304,9.36459909 C14.5678265,9.71558245 14.2676752,10.0605144 13.9485628,10.3993949 C13.6298538,10.7382753 13.2385275,11.1013616 12.774584,11.4886536 C12.3106404,11.8759455 11.8406455,12.2132123 11.3645991,12.4992436 C10.8889561,12.7856783 10.3540091,13.0237015 9.76137166,13.2133132 C9.16792738,13.4029249 8.5813414,13.4977307 8,13.4977307 C7.41906203,13.4977307 6.83247605,13.4029249 6.23903177,13.2133132 C5.64599092,13.0237015 5.1114473,12.7856783 4.63540091,12.4992436 C4.15935451,12.2132123 3.68935956,11.8759455 3.22541604,11.4886536 C2.76147252,11.1013616 2.37014624,10.7382753 2.05143722,10.3993949 C1.73272819,10.0605144 1.43217347,9.71558245 1.14977307,9.36459909 C0.867372668,9.01361573 0.669692385,8.75784165 0.556732224,8.59606657 C0.444175492,8.43469491 0.363489662,8.31366616 0.315078164,8.23298033 L0,7.74886536 L0.315078164,7.26475038 C0.363489662,7.18406455 0.444175492,7.0630358 0.556732224,6.90166415 C0.669692385,6.74029249 0.867372668,6.48411498 1.14977307,6.13313162 C1.43217347,5.78214826 1.73272819,5.43721634 2.05143722,5.09833585 C2.37014624,4.75945537 2.76147252,4.39636914 3.22541604,4.00907716 C3.68935956,3.62178517 4.15935451,3.28492184 4.63540091,2.99848714 C5.1114473,2.71205245 5.64599092,2.47402925 6.23903177,2.28441755 C6.83247605,2.09480585 7.41906203,2 8,2 C8.5813414,2 9.16792738,2.09480585 9.76137166,2.28441755 C10.3540091,2.47402925 10.8889561,2.71205245 11.3645991,2.99848714 C11.8406455,3.28492184 12.3106404,3.62178517 12.774584,4.00907716 C13.2385275,4.39636914 13.6298538,4.75945537 13.9485628,5.09833585 C14.2676752,5.43721634 14.5678265,5.78214826 14.8506304,6.13313162 C15.1326273,6.48411498 15.3303076,6.74029249 15.4436712,6.90166415 C15.5562279,7.0630358 15.6369138,7.18406455 15.6853253,7.26475038 L16,7.74886536 L16,7.74886536 L16,7.74886536 L16,7.74886536 Z M6.4871407,11.8456884 C6.97932426,12.0191629 7.48361069,12.1059002 8,12.1059002 C8.51638931,12.1059002 9.01462431,12.0252143 9.49470499,11.8638427 C9.97478568,11.702471 10.380232,11.5189107 10.7110439,11.3131619 C11.0418558,11.107413 11.3867877,10.8189612 11.7458396,10.4478064 C12.1048916,10.077055 12.373172,9.77206253 12.5510842,9.53403933 C12.7281896,9.29601614 12.9621785,8.96722138 13.2526475,8.54765507 C13.5435199,8.12849218 13.7327282,7.86182552 13.8214826,7.74886536 C13.8138174,7.7412002 13.6984367,7.58991427 13.4769541,7.29500756 C13.2546646,7.00050429 13.0852244,6.77861826 12.9686334,6.62934947 C12.8512355,6.48008069 12.6757438,6.26626324 12.4417549,5.98789713 C12.207766,5.70953101 11.9761977,5.45375693 11.7458396,5.2193646 C11.515885,4.98537569 11.279879,4.76752395 11.0382249,4.56580938 C11.433182,5.16288452 11.6308623,5.82047403 11.6308623,6.53857791 C11.6308623,7.5390822 11.2758447,8.39435199 10.5662128,9.10438729 C9.85577408,9.81442259 9.00050429,10.1694402 8,10.1694402 C6.99949571,10.1694402 6.14422592,9.81442259 5.43419062,9.10438729 C4.72415532,8.39435199 4.36913767,7.5390822 4.36913767,6.53857791 C4.36913767,5.85274836 4.55471508,5.21533031 4.92586989,4.62632375 C4.10287443,5.32829047 3.19112456,6.36913767 2.19062027,7.74886536 C2.24710035,7.82955119 2.41048916,8.06354009 2.68119012,8.45083207 C2.95108422,8.83812405 3.17700454,9.15481594 3.35854766,9.40090772 C3.5404942,9.6469995 3.81442259,9.95965709 4.18154312,10.3388805 C4.54906707,10.7181039 4.90206757,11.0206757 5.24054463,11.2465961 C5.57942511,11.4725164 5.99536056,11.6722138 6.4871407,11.8456884 C6.4871407,11.8456884 5.99536056,11.6722138 6.4871407,11.8456884 L6.4871407,11.8456884 L6.4871407,11.8456884 Z M6.59606657,5.7881997 L5.301059,7.07110439 C5.69641957,8.07160867 6.31770045,8.84215835 7.16490166,9.3827534 L8.43570348,8.11195159 C8.13716591,7.9183056 7.83459405,7.62783661 7.5279879,7.24054463 C7.22138174,6.85325265 6.99142713,6.51437216 6.83812405,6.22390318 L6.59606657,5.7881997 L6.59606657,5.7881997 Z" id="Fill-103" fill="#FFFFFF"></path>
    </g>
</svg>