<?xml version="1.0" encoding="UTF-8"?>
<svg width="29px" height="18px" viewBox="0 0 29 18" version="1.1" xmlns="http://www.w3.org/2000/svg" xmlns:xlink="http://www.w3.org/1999/xlink">
    <!-- Generator: Sketch 50.2 (55047) - http://www.bohemiancoding.com/sketch -->
    <title>IconGamesActive</title>
    <desc>Created with Sketch.</desc>
    <defs></defs>
    <g id="IconGamesActive" stroke="none" stroke-width="1" fill="none" fill-rule="evenodd">
        <g id="Group">
            <path d="M12.1267528,4.00233363 L12.1267528,10.8126313 L7.78750728,10.8126313 L3.71082841,13.9229936 C3.27115355,14.3434228 2.55955884,14.3434228 1.57604428,13.9229936 C0.59252972,13.5025645 0.285888253,12.8404728 0.656119879,11.9367188 L3.26202673,6.73919057 L3.26202673,1.68451699 C3.31658926,1.0894877 3.59743753,0.791973058 4.10457153,0.791973058 C4.61170552,0.791973058 5.55206608,0.791973058 6.92565319,0.791973058 L7.78750728,1.68451699 L12.1267528,1.68451699 L12.1267528,4.00233363 Z" id="Path-2" fill="#373C8C"></path>
            <circle id="Oval" fill="#FFFFFF" cx="7.03448276" cy="7.03448276" r="2.06896552"></circle>
            <path d="M23.20872,4.03794678 L23.20872,10.8482444 L18.8694745,10.8482444 L14.7927956,13.9586068 C14.3531207,14.3790359 13.641526,14.3790359 12.6580115,13.9586068 C11.6744969,13.5381776 11.3678554,12.876086 11.7380871,11.9723319 L14.3439939,6.77480372 L14.3439939,1.72013013 C14.3985564,1.12510085 14.6794047,0.827586207 15.1865387,0.827586207 C15.6936727,0.827586207 16.6340333,0.827586207 18.0076204,0.827586207 L18.8694745,1.72013013 L23.20872,1.72013013 L23.20872,4.03794678 Z" id="Path-2" fill="#373C8C" transform="translate(17.397463, 7.550757) scale(-1, 1) translate(-17.397463, -7.550757) "></path>
            <circle id="Oval" fill="#FFFFFF" transform="translate(16.965517, 7.034483) scale(-1, 1) translate(-16.965517, -7.034483) " cx="16.9655172" cy="7.03448276" r="2.06896552"></circle>
        </g>
    </g>
</svg>