<?xml version="1.0" encoding="UTF-8"?>
<svg width="13px" height="18px" viewBox="0 0 13 18" version="1.1" xmlns="http://www.w3.org/2000/svg" xmlns:xlink="http://www.w3.org/1999/xlink">
    <!-- Generator: Sketch 50.2 (55047) - http://www.bohemiancoding.com/sketch -->
    <title>IconDocuments</title>
    <desc>Created with Sketch.</desc>
    <defs></defs>
    <g id="IconDocuments" stroke="none" stroke-width="1" fill="none" fill-rule="evenodd">
        <path d="M9.00913608,7.46569934 L13,7.46569934 L13,17.625 C13,17.735 12.9662963,17.825 12.8988889,17.895 C12.831963,17.965 12.7448148,18 12.6388889,18 L0.361111111,18 C0.255185185,18 0.168518519,17.965 0.101111111,17.895 C0.0341851852,17.825 0,17.735 0,17.625 L0,0.375 C0,0.265 0.0341851852,0.175 0.101111111,0.105 C0.168518519,0.035 0.255185185,0 0.361111111,0 L6.5,0 L6.5,6.04278991 C6.5,6.04278991 6.48270309,6.40503346 7.16107539,6.99158159 C7.83944769,7.57812972 9.00913608,7.46569934 9.00913608,7.46569934 Z M9.06099973,6 C9.06099973,6 8.56794524,5.96350443 8.31099607,5.72214927 C8.05404691,5.4807941 8,5.00339134 8,5.00339134 L8,1 L13,6 L9.06099973,6 Z" id="Fill-28" fill="#FFFFFF"></path>
        <path d="M9.06099973,6 C9.06099973,6 8.56794524,5.96350443 8.31099607,5.72214927 C8.05404691,5.4807941 8,5.00339134 8,5.00339134 L8,1 L13,6 L9.06099973,6 Z" id="Path" fill="#FFFFFF"></path>
    </g>
</svg>