<?xml version="1.0" encoding="UTF-8"?>
<svg width="16px" height="16px" viewBox="0 0 16 16" version="1.1" xmlns="http://www.w3.org/2000/svg" xmlns:xlink="http://www.w3.org/1999/xlink">
    <!-- Generator: Sketch 50.2 (55047) - http://www.bohemiancoding.com/sketch -->
    <title>IconDashboard</title>
    <desc>Created with Sketch.</desc>
    <defs></defs>
    <g id="IconDashboard" stroke="none" stroke-width="1" fill="none" fill-rule="evenodd">
        <path d="M4,0.666666667 L4,3.33333333 C4,3.52 3.93555556,3.67777778 3.80711111,3.80666667 C3.67777778,3.93555556 3.52,4 3.33333333,4 L0.666666667,4 C0.48,4 0.322222222,3.93555556 0.193333333,3.80666667 C0.0644444444,3.67777778 0,3.52 0,3.33333333 L0,0.666666667 C0,0.48 0.0644444444,0.322222222 0.193333333,0.193333333 C0.322222222,0.0648888889 0.48,0 0.666666667,0 L3.33333333,0 C3.52,0 3.67777778,0.0648888889 3.80711111,0.193333333 C3.93555556,0.322222222 4,0.48 4,0.666666667 C4,0.666666667 4,0.48 4,0.666666667 L4,0.666666667 L4,0.666666667 Z M4,6.66666667 L4,9.33333333 C4,9.52 3.93555556,9.67777778 3.80711111,9.80666667 C3.67777778,9.93555556 3.52,10 3.33333333,10 L0.666666667,10 C0.48,10 0.322222222,9.93555556 0.193333333,9.80666667 C0.0644444444,9.67777778 0,9.52 0,9.33333333 L0,6.66666667 C0,6.48 0.0644444444,6.32222222 0.193333333,6.19333333 C0.322222222,6.06488889 0.48,6 0.666666667,6 L3.33333333,6 C3.52,6 3.67777778,6.06488889 3.80711111,6.19333333 C3.93555556,6.32222222 4,6.48 4,6.66666667 C4,6.66666667 4,6.48 4,6.66666667 L4,6.66666667 L4,6.66666667 Z M4,12.6666667 L4,15.3333333 C4,15.52 3.93555556,15.6777778 3.80711111,15.8066667 C3.67777778,15.9355556 3.52,16 3.33333333,16 L0.666666667,16 C0.48,16 0.322222222,15.9355556 0.193333333,15.8066667 C0.0644444444,15.6777778 0,15.52 0,15.3333333 L0,12.6666667 C0,12.48 0.0644444444,12.3222222 0.193333333,12.1933333 C0.322222222,12.0648889 0.48,12 0.666666667,12 L3.33333333,12 C3.52,12 3.67777778,12.0648889 3.80711111,12.1933333 C3.93555556,12.3222222 4,12.48 4,12.6666667 C4,12.6666667 4,12.48 4,12.6666667 L4,12.6666667 L4,12.6666667 Z M10,0.666666667 L10,3.33333333 C10,3.52 9.93555556,3.67777778 9.80711111,3.80666667 C9.67777778,3.93555556 9.52,4 9.33333333,4 L6.66666667,4 C6.48,4 6.32222222,3.93555556 6.19333333,3.80666667 C6.06444444,3.67777778 6,3.52 6,3.33333333 L6,0.666666667 C6,0.48 6.06444444,0.322222222 6.19333333,0.193333333 C6.32222222,0.0648888889 6.48,0 6.66666667,0 L9.33333333,0 C9.52,0 9.67777778,0.0648888889 9.80711111,0.193333333 C9.93555556,0.322222222 10,0.48 10,0.666666667 C10,0.666666667 10,0.48 10,0.666666667 L10,0.666666667 L10,0.666666667 Z M10,6.66666667 L10,9.33333333 C10,9.52 9.93555556,9.67777778 9.80711111,9.80666667 C9.67777778,9.93555556 9.52,10 9.33333333,10 L6.66666667,10 C6.48,10 6.32222222,9.93555556 6.19333333,9.80666667 C6.06444444,9.67777778 6,9.52 6,9.33333333 L6,6.66666667 C6,6.48 6.06444444,6.32222222 6.19333333,6.19333333 C6.32222222,6.06488889 6.48,6 6.66666667,6 L9.33333333,6 C9.52,6 9.67777778,6.06488889 9.80711111,6.19333333 C9.93555556,6.32222222 10,6.48 10,6.66666667 C10,6.66666667 10,6.48 10,6.66666667 L10,6.66666667 L10,6.66666667 Z M10,12.6666667 L10,15.3333333 C10,15.52 9.93555556,15.6777778 9.80711111,15.8066667 C9.67777778,15.9355556 9.52,16 9.33333333,16 L6.66666667,16 C6.48,16 6.32222222,15.9355556 6.19333333,15.8066667 C6.06444444,15.6777778 6,15.52 6,15.3333333 L6,12.6666667 C6,12.48 6.06444444,12.3222222 6.19333333,12.1933333 C6.32222222,12.0648889 6.48,12 6.66666667,12 L9.33333333,12 C9.52,12 9.67777778,12.0648889 9.80711111,12.1933333 C9.93555556,12.3222222 10,12.48 10,12.6666667 C10,12.6666667 10,12.48 10,12.6666667 L10,12.6666667 L10,12.6666667 Z M16,0.666666667 L16,3.33333333 C16,3.52 15.9355556,3.67777778 15.8071111,3.80666667 C15.6777778,3.93555556 15.52,4 15.3333333,4 L12.6666667,4 C12.48,4 12.3222222,3.93555556 12.1933333,3.80666667 C12.0644444,3.67777778 12,3.52 12,3.33333333 L12,0.666666667 C12,0.48 12.0644444,0.322222222 12.1933333,0.193333333 C12.3222222,0.0648888889 12.48,0 12.6666667,0 L15.3333333,0 C15.52,0 15.6777778,0.0648888889 15.8071111,0.193333333 C15.9355556,0.322222222 16,0.48 16,0.666666667 C16,0.666666667 16,0.48 16,0.666666667 L16,0.666666667 L16,0.666666667 Z M16,6.66666667 L16,9.33333333 C16,9.52 15.9355556,9.67777778 15.8071111,9.80666667 C15.6777778,9.93555556 15.52,10 15.3333333,10 L12.6666667,10 C12.48,10 12.3222222,9.93555556 12.1933333,9.80666667 C12.0644444,9.67777778 12,9.52 12,9.33333333 L12,6.66666667 C12,6.48 12.0644444,6.32222222 12.1933333,6.19333333 C12.3222222,6.06488889 12.48,6 12.6666667,6 L15.3333333,6 C15.52,6 15.6777778,6.06488889 15.8071111,6.19333333 C15.9355556,6.32222222 16,6.48 16,6.66666667 C16,6.66666667 16,6.48 16,6.66666667 L16,6.66666667 L16,6.66666667 Z M16,12.6666667 L16,15.3333333 C16,15.52 15.9355556,15.6777778 15.8071111,15.8066667 C15.6777778,15.9355556 15.52,16 15.3333333,16 L12.6666667,16 C12.48,16 12.3222222,15.9355556 12.1933333,15.8066667 C12.0644444,15.6777778 12,15.52 12,15.3333333 L12,12.6666667 C12,12.48 12.0644444,12.3222222 12.1933333,12.1933333 C12.3222222,12.0648889 12.48,12 12.6666667,12 L15.3333333,12 C15.52,12 15.6777778,12.0648889 15.8071111,12.1933333 C15.9355556,12.3222222 16,12.48 16,12.6666667 L16,12.6666667 Z" id="Fill-17" fill="#FFFFFF"></path>
    </g>
</svg>