<?xml version="1.0" encoding="UTF-8"?>
<svg width="16px" height="17px" viewBox="0 0 16 17" version="1.1" xmlns="http://www.w3.org/2000/svg" xmlns:xlink="http://www.w3.org/1999/xlink">
    <!-- Generator: Sketch 50.2 (55047) - http://www.bohemiancoding.com/sketch -->
    <title>IconAnalyzeActive</title>
    <desc>Created with Sketch.</desc>
    <defs></defs>
    <g id="IconAnalyzeActive" stroke="none" stroke-width="1" fill="none" fill-rule="evenodd">
        <path d="M9.21125,3.19090909 C9.07477778,3.33636364 8.90666667,3.40909091 8.70833333,3.40909091 L0.208333333,3.40909091 C0.01,3.40909091 -0.157638889,3.33636364 -0.294111111,3.19090909 C-0.431527778,3.04545455 -0.5,2.87575758 -0.5,2.68181818 L-0.5,1.22727273 C-0.5,1.02363636 -0.431527778,0.851515152 -0.294111111,0.710909091 C-0.157638889,0.570787879 0.01,0.5 0.208333333,0.5 L8.70833333,0.5 C8.90666667,0.5 9.07477778,0.570787879 9.21125,0.710909091 C9.34819444,0.851515152 9.41666667,1.02363636 9.41666667,1.22727273 L9.41666667,2.68181818 C9.41666667,2.87575758 9.34819444,3.04545455 9.21125,3.19090909 C9.21125,3.19090909 9.34819444,3.04545455 9.21125,3.19090909 L9.21125,3.19090909 L9.21125,3.19090909 Z M14.8779167,7.55454545 C14.7414444,7.7 14.5733333,7.77272727 14.375,7.77272727 L0.208333333,7.77272727 C0.01,7.77272727 -0.157638889,7.7 -0.294111111,7.55454545 C-0.431527778,7.40909091 -0.5,7.23939394 -0.5,7.04545455 L-0.5,5.59090909 C-0.5,5.38727273 -0.431527778,5.21515152 -0.294111111,5.07454545 C-0.157638889,4.93442424 0.01,4.86363636 0.208333333,4.86363636 L14.375,4.86363636 C14.5733333,4.86363636 14.7414444,4.93442424 14.8779167,5.07454545 C15.0148611,5.21515152 15.0833333,5.38727273 15.0833333,5.59090909 L15.0833333,7.04545455 C15.0833333,7.23939394 15.0148611,7.40909091 14.8779167,7.55454545 C14.8779167,7.55454545 15.0148611,7.40909091 14.8779167,7.55454545 L14.8779167,7.55454545 L14.8779167,7.55454545 Z M12.0445833,11.9181818 C11.9081111,12.0636364 11.74,12.1363636 11.5416667,12.1363636 L0.208333333,12.1363636 C0.01,12.1363636 -0.157638889,12.0636364 -0.294111111,11.9181818 C-0.431527778,11.7727273 -0.5,11.6030303 -0.5,11.4090909 L-0.5,9.95454545 C-0.5,9.75090909 -0.431527778,9.57878788 -0.294111111,9.43818182 C-0.157638889,9.29806061 0.01,9.22727273 0.208333333,9.22727273 L11.5416667,9.22727273 C11.74,9.22727273 11.9081111,9.29806061 12.0445833,9.43818182 C12.1815278,9.57878788 12.25,9.75090909 12.25,9.95454545 L12.25,11.4090909 C12.25,11.6030303 12.1815278,11.7727273 12.0445833,11.9181818 C12.0445833,11.9181818 12.1815278,11.7727273 12.0445833,11.9181818 L12.0445833,11.9181818 L12.0445833,11.9181818 Z M16.2945833,16.2818182 C16.1581111,16.4272727 15.99,16.5 15.7916667,16.5 L0.208333333,16.5 C0.01,16.5 -0.157638889,16.4272727 -0.294111111,16.2818182 C-0.431527778,16.1363636 -0.5,15.9666667 -0.5,15.7727273 L-0.5,14.3181818 C-0.5,14.1145455 -0.431527778,13.9424242 -0.294111111,13.8018182 C-0.157638889,13.661697 0.01,13.5909091 0.208333333,13.5909091 L15.7916667,13.5909091 C15.99,13.5909091 16.1581111,13.661697 16.2945833,13.8018182 C16.4315278,13.9424242 16.5,14.1145455 16.5,14.3181818 L16.5,15.7727273 C16.5,15.9666667 16.4315278,16.1363636 16.2945833,16.2818182 L16.2945833,16.2818182 Z" id="Fill-55" fill="#373C8C" transform="translate(8.000000, 8.500000) rotate(-90.000000) translate(-8.000000, -8.500000) "></path>
    </g>
</svg>