<?xml version="1.0" encoding="UTF-8"?>
<svg width="13px" height="15px" viewBox="0 0 13 15" version="1.1" xmlns="http://www.w3.org/2000/svg" xmlns:xlink="http://www.w3.org/1999/xlink">
    <!-- Generator: Sketch 50.2 (55047) - http://www.bohemiancoding.com/sketch -->
    <title>IconBookActive</title>
    <desc>Created with Sketch.</desc>
    <defs></defs>
    <g id="IconBookActive" stroke="none" stroke-width="1" fill="none" fill-rule="evenodd">
        <g id="Group" fill="#373C8C">
            <circle id="Oval" cx="7" cy="4" r="4"></circle>
            <path d="M7.85193419,12.4624258 C7.85193419,13.1947956 7.68419304,13.8011804 7.34999777,14.2802723 C7.01537349,14.7602361 6.5387484,15 5.92140951,15 C5.3032126,15 4.82916154,14.7645954 4.49882732,14.2937863 C4.1684931,13.8229771 4.00332598,13.2213876 4.00332598,12.4890178 L4.01619615,8.53901613 L2.45890624,9.65064887 C2.33020459,9.74699038 2.18434273,9.79232755 2.02174965,9.78840414 C1.85829856,9.7840448 1.72101681,9.72519366 1.60947538,9.61141477 L0.168445958,8.17326716 C-0.0203164553,7.98145602 -0.0503468392,7.75041078 0.0779258007,7.48013145 L3.03806364,2.74544784 L3.16719429,2.54927735 C3.25256639,2.42765165 3.37483295,2.30559002 3.53356498,2.18309245 C3.69229701,2.06146675 3.84459395,2 3.99088483,2 L10.7477212,2 C10.8588336,2 11.2620988,2.36226149 11.9575167,3.08591261 C12.6520766,3.80956373 13,4.2019047 13,4.26293552 L13,8.73562255 C13,8.86596694 12.9120539,8.99064418 12.7361616,9.10791053 C12.5598404,9.22604876 12.3860932,9.31105597 12.21492,9.36293216 L7.85193419,11.0765903 L7.85193419,12.4624258 L7.85193419,12.4624258 L7.85193419,12.4624258 L7.85193419,12.4624258 Z" id="Path" stroke="#FFFFFF" transform="translate(6.500000, 8.500000) rotate(-180.000000) translate(-6.500000, -8.500000) "></path>
        </g>
    </g>
</svg>