<?xml version="1.0" encoding="UTF-8"?>
<svg width="17px" height="17px" viewBox="0 0 17 17" version="1.1" xmlns="http://www.w3.org/2000/svg" xmlns:xlink="http://www.w3.org/1999/xlink">
    <!-- Generator: Sketch 52.5 (67469) - http://www.bohemiancoding.com/sketch -->
    <title>IconPlanDisabled</title>
    <desc>Created with Sketch.</desc>
    <g id="IconPlanDisabled" stroke="none" stroke-width="1" fill="none" fill-rule="evenodd">
        <rect fill="#E7E7E7" x="0" y="0" width="17" height="17"></rect>
        <path d="M8.50687606,0 C9.65446735,0 10.7527407,0.225244073 11.8002734,0.675732218 C12.8482803,1.12622036 13.7516528,1.73034868 14.5103908,2.48953975 C15.2691288,3.24825662 15.8737482,4.15160391 16.3247231,5.19958159 C16.7747496,6.24755927 17,7.35006974 17,8.50663877 C17,10.0435146 16.6211052,11.4637378 15.8618929,12.7677824 C15.1031549,14.0718271 14.0717454,15.1032078 12.7681386,15.8614505 C11.4640576,16.6206416 10.0433206,17 8.50687606,17 C6.97043153,17 5.54779771,16.6206416 4.23897459,15.8614505 C2.93015147,15.1032078 1.89637089,14.0718271 1.13763285,12.7677824 C0.378894809,11.4637378 0,10.0435146 0,8.50663877 C0,7.35006974 0.224776144,6.24755927 0.675751067,5.19958159 C1.12577757,4.15160391 1.73039694,3.24825662 2.48960919,2.48953975 C3.24787302,1.73034868 4.15171971,1.12622036 5.19972663,0.675732218 C6.24725934,0.225244073 7.34980055,0 8.50687606,0 C8.50687606,0 7.34980055,0 8.50687606,0 L8.50687606,0 L8.50687606,0 Z M8.84830818,1.3367643 C8.7060448,1.45104603 8.53295768,1.55015342 8.32904684,1.63550907 C8.1256102,1.72133891 7.9615331,1.77824268 7.83823817,1.80669456 C7.71494323,1.83467225 7.50629027,1.87308229 7.21275349,1.92050209 C6.9187425,1.9679219 6.73332589,1.99637378 6.6579263,2.00538354 C6.51518871,2.03430962 6.29942258,2.03193863 6.01062791,1.99874477 C5.72088482,1.96507671 5.50511869,1.97740586 5.36285531,2.03430962 C5.16368657,2.10069735 4.91709671,2.22588563 4.62355993,2.41129707 C4.32954894,2.59623431 4.16831711,2.75935844 4.13939022,2.90161785 C4.11141175,3.00641562 4.14176128,3.11263598 4.23233563,3.22217573 C4.32196156,3.33076709 4.36226952,3.41896792 4.35278529,3.48535565 C4.32433262,3.80733612 4.19392452,4.23695955 3.96156099,4.77232915 C3.72919747,5.30817294 3.58930514,5.68563459 3.54188401,5.90329149 C3.46601021,6.2162622 3.49209183,6.6553696 3.62012887,7.21966527 C3.74816592,7.78396095 3.78373176,8.19888424 3.72682641,8.46443515 C3.72682641,8.5493166 3.80744233,8.75843794 3.96867416,9.09037657 C4.12990599,9.4223152 4.2057798,9.70683403 4.19629557,9.94393305 C4.31058049,9.94393305 4.41917487,9.97001395 4.52397556,10.0221757 C4.62830204,10.0743375 4.73689643,10.144993 4.85070713,10.2355649 C4.96451784,10.3256625 5.05936009,10.3896792 5.13570811,10.4271409 C5.36285531,10.5409484 5.87500349,10.7401116 6.67167843,11.0251046 C6.8808056,11.1009763 7.13166337,11.2503487 7.42567436,11.4727476 C7.71968535,11.6960948 8.00231527,11.8786611 8.27214148,12.0209205 C8.54244191,12.1627057 8.81511339,12.2153417 9.09063014,12.1774059 C9.16602974,12.3481172 9.09489804,12.6089261 8.87676086,12.9598326 C8.65909788,13.310265 8.56378142,13.5810321 8.59223409,13.7707113 C8.99104578,14.4440725 9.40360958,14.823431 9.82992552,14.9083124 C9.82992552,14.9656904 9.81569918,15.0391911 9.78724651,15.1288145 C9.75926804,15.2193863 9.74267065,15.288145 9.73745432,15.3355649 C9.73271221,15.3825105 9.75405172,15.4631241 9.80194706,15.5774059 C10.7693381,15.5963738 11.8168708,15.0647978 12.9459678,13.9836262 C13.2300204,13.7090656 13.4528997,13.4857183 13.6146057,13.3154812 C13.7758375,13.1447699 13.9389662,12.9119386 14.1049402,12.6179358 C14.2709141,12.3244073 14.3686016,12.0304045 14.3965801,11.7364017 C14.2638009,11.6505718 14.0883428,11.6059972 13.8706798,11.6012552 C13.6520684,11.5965132 13.4813523,11.5609484 13.3585316,11.4940865 C13.2252783,11.4281729 12.9929147,11.3570432 12.6609668,11.2811715 C12.3290189,11.2052999 12.0824291,11.114728 11.9211972,11.0108787 C11.8363134,11.0108787 11.6485258,11.0132497 11.3597311,11.0175174 C11.069988,11.0227336 10.8494798,11.0298466 10.6977322,11.0388563 C10.5459845,11.0488145 10.3610421,11.0796374 10.142905,11.1317992 C9.92476778,11.1839609 9.73982538,11.2622036 9.58807777,11.3665272 C9.1138665,11.6984658 8.80088705,11.7553696 8.64913945,11.5372385 C8.61120254,11.5182706 8.59460515,11.3973501 8.59934726,11.1740028 C8.60408937,10.9516039 8.60646043,10.8306834 8.60646043,10.8117155 C8.54955508,10.688424 8.42388909,10.6078103 8.22946247,10.5698745 C8.03503584,10.5319386 7.91885408,10.4987448 7.88091718,10.4702929 C7.89988563,10.2616457 7.89040141,10.0667503 7.8524645,9.88702929 C7.8145276,9.70683403 7.73628274,9.57358438 7.61772992,9.48870293 C7.4991771,9.40334728 7.31660576,9.49771269 7.0700159,9.77274756 C6.85187871,10.0098466 6.65270998,9.99135286 6.47250969,9.71584379 C6.29230941,9.45076709 6.25437251,9.17573222 6.35869899,8.89121339 C6.41560434,8.73947001 6.51993082,8.63514644 6.67167843,8.57824268 C6.72858378,8.58725244 6.85187871,8.59483961 7.04156322,8.59958159 C7.23124773,8.60384937 7.39058272,8.62329149 7.51814555,8.65648536 C7.64665681,8.68967922 7.7386538,8.75369596 7.79555915,8.84806137 C7.90936986,9.02873082 8.06111746,9.20655509 8.25080197,9.38153417 C8.4409607,9.55746165 8.60171832,9.68786611 8.73497169,9.77274756 L8.93414042,9.88702929 C8.93414042,9.85857741 8.97871628,9.67079498 9.06929064,9.3251046 C9.15891657,8.97894003 9.18499819,8.70580195 9.1475355,8.50663877 C9.10912438,8.28850767 9.17788502,8.07796374 9.35334319,7.87358438 C9.52880136,7.67015342 9.6354989,7.52030683 9.6734358,7.42546722 C9.72085693,7.29316597 9.76827806,7.12672245 9.81569918,6.92755927 C9.86359452,6.72839609 9.90390248,6.5818689 9.93709727,6.48702929 C9.96981785,6.39171548 10.0433206,6.28549512 10.1576055,6.16694561 C10.270942,6.04839609 10.4321738,5.94644351 10.6408268,5.86061367 C10.5839214,5.69037657 10.6318168,5.51492329 10.7830902,5.33472803 C10.858964,5.33472803 10.9708778,5.341841 11.1174091,5.35606695 C11.2648888,5.36981869 11.3810706,5.37740586 11.4659544,5.37740586 C11.5513124,5.37740586 11.6485258,5.35606695 11.7580686,5.31338912 C11.8666629,5.2702371 11.9638763,5.1972106 12.0492343,5.09241283 C11.954392,4.87428173 11.8097576,4.67274756 11.615331,4.48828452 C11.4209043,4.30287308 11.2407041,4.16061367 11.0747301,4.06103208 C10.9092304,3.96145049 10.6763926,3.8362622 10.3776395,3.68404463 C10.0793607,3.53277545 9.87260454,3.4237099 9.75926804,3.35732218 C9.86359452,2.96847978 9.86786242,2.75935844 9.77302017,2.73138075 C10.0670312,2.85419805 10.3444448,2.92343096 10.605261,2.93718271 C10.8660772,2.95188285 11.0533906,2.93481172 11.1676755,2.88786611 L11.3241652,2.83096234 C11.3810706,2.48953975 11.2999805,2.23584379 11.0818433,2.06940028 C10.8637061,1.90390516 10.5602109,1.76828452 10.1713576,1.66443515 C9.78250439,1.56011158 9.51694608,1.45104603 9.3746827,1.3367643 C9.19448241,1.36569038 9.01902424,1.36569038 8.84830818,1.3367643 C8.84830818,1.3367643 9.01902424,1.36569038 8.84830818,1.3367643 L8.84830818,1.3367643 L8.84830818,1.3367643 Z M8.64913945,2.85894003 C8.64913945,3.03012552 8.68707635,3.2311855 8.76295015,3.46401674 C8.83882396,3.69637378 8.91706882,3.90454672 8.99768473,4.08995816 C9.07830065,4.2748954 9.12335072,4.38633194 9.13283495,4.42426778 C9.04795113,4.40529986 8.90047142,4.38111576 8.69229267,4.35313808 C8.4831655,4.32421199 8.31244944,4.30097629 8.18014449,4.28153417 C8.04689113,4.26304045 7.89514352,4.2246304 7.72490167,4.16820084 C7.5537114,4.11129707 7.41192223,4.04490934 7.29763731,3.96856346 C7.32608999,3.85523013 7.40196379,3.71297071 7.52525872,3.54225941 C7.64855366,3.37107392 7.72490167,3.25252441 7.75288014,3.18661088 C7.84772239,3.28145049 7.93545148,3.32839609 8.01606739,3.32839609 C8.09668331,3.32839609 8.1635471,3.30041841 8.21523613,3.24351464 C8.26739937,3.18661088 8.33663422,3.11785216 8.42151803,3.0367643 C8.50687606,2.95662483 8.58274987,2.89687587 8.64913945,2.85894003 L8.64913945,2.85894003 Z" id="Fill-131" fill-opacity="0.3" fill="#FFFFFF"></path>
        <circle id="Oval-4" fill-opacity="0.3" fill="#FFFFFF" cx="8" cy="7" r="1"></circle>
        <circle id="Oval-4" fill-opacity="0.3" fill="#FFFFFF" cx="11" cy="13" r="1"></circle>
    </g>
</svg>