<?xml version="1.0" encoding="UTF-8"?>
<svg width="10px" height="17px" viewBox="0 0 10 17" version="1.1" xmlns="http://www.w3.org/2000/svg" xmlns:xlink="http://www.w3.org/1999/xlink">
    <!-- Generator: Sketch 50.2 (55047) - http://www.bohemiancoding.com/sketch -->
    <title>IconPay</title>
    <desc>Created with Sketch.</desc>
    <defs></defs>
    <g id="IconPay" stroke="none" stroke-width="1" fill="none" fill-rule="evenodd">
        <path d="M5.48755702,7.27736258 L6.35472653,7.47070133 C6.66184906,7.53560791 6.95135721,7.61156242 7.22189603,7.69856485 C7.4928865,7.78648795 7.80904205,7.93149201 8.17036268,8.13403737 C8.53213495,8.33658272 8.83609593,8.57595451 9.08495551,8.85169239 C9.33336344,9.12835093 9.54834922,9.49891687 9.72900953,9.9633902 C9.90921819,10.4287842 10,10.9466558 10,11.5170051 C10,12.7971839 9.59757915,13.8283239 8.79409241,14.6104251 C7.98925071,15.3929867 7.13030208,15.837148 6.00021471,15.9366369 L6.00021471,17 L4.00367684,17 L4.00367684,15.922827 C2.63020681,15.7663146 1.68917393,15.2875711 0.921819249,14.4865963 C0.560046972,14.118332 0.32293031,13.6879231 0.210017614,13.1953696 C0.0971049185,12.7028161 0.027099047,12.0606553 0,11.2684268 L1.88338377,11.2684268 C1.9280972,11.9777958 2.14805113,12.5601137 2.54053566,13.0153804 C2.93392349,13.4711075 3.46416151,13.7684809 4.13260467,13.90658 L4.13260467,9.28025995 L3.76676754,9.18359058 C3.35124881,9.05469808 2.99489635,8.93271053 2.69680683,8.81716761 C2.39826566,8.70254536 2.0730771,8.53682643 1.72078949,8.32047116 C1.36850187,8.10411589 1.08622013,7.86474411 0.873944266,7.60189548 C0.661668398,7.33950718 0.481008085,7.006228 0.331963326,6.60113729 C0.182918567,6.19604657 0.108396188,5.74031952 0.108396188,5.23395613 C0.108396188,4.38694828 0.307122533,3.65226103 0.704575222,3.03127539 C1.10202791,2.40936908 1.59432727,1.94443542 2.18147328,1.63647441 C2.76907095,1.32805307 3.29006861,1.14115895 4.00367684,1.07717303 L4.00367684,0 L6.00021471,0 L6.00021471,1.09098294 C6.00021471,1.09098294 6.15825843,1.18995397 6.46989748,1.2769564 C6.78198817,1.3648795 7.12208121,1.50988356 7.4928865,1.71242892 C7.86324014,1.91497428 8.18436385,2.16079069 8.45535432,2.45125914 C8.72589314,2.74126726 8.95849329,3.12794476 9.15315478,3.61129163 C9.34691297,4.09417817 9.45756741,4.64012998 9.48466646,5.24730571 L7.33029222,5.24730571 C7.25802809,4.58489033 7.10040197,4.08036826 6.8560589,3.7351205 C6.61261912,3.38987273 6.15645183,3.15786623 5.48755702,3.03772001 L5.48755702,7.27736258 Z M4.13260467,6.82163553 L4.13260467,3.03772001 C3.58159071,3.1118332 3.1412312,3.28445708 2.81197778,3.55559166 C2.48182106,3.82718657 2.31742017,4.29948551 2.31742017,4.97156783 C2.31742017,5.23855944 2.35310058,5.47286759 2.42581636,5.67587327 C2.49762883,5.8779583 2.57215121,6.03447062 2.64893185,6.14494991 C2.72571248,6.25588952 2.85894946,6.35900352 3.04864279,6.45567289 C3.23833612,6.55234227 3.37834786,6.6149472 3.46867802,6.64256702 C3.55900817,6.66972651 3.73063547,6.71621988 3.98355991,6.78020579 C4.04679102,6.79907934 4.09647261,6.81288925 4.13260467,6.82163553 C4.13260467,6.82163553 4.09647261,6.81288925 4.13260467,6.82163553 L4.13260467,6.82163553 L4.13260467,6.82163553 Z M5.48755702,13.9751692 C7.02362134,13.8099106 7.79097602,13.1148118 7.79097602,11.8903331 C7.79097602,11.3011102 7.59224967,10.8430815 7.19479698,10.516247 C6.79779594,10.1894124 6.22826431,9.91091254 5.48755702,9.68028703 L5.48755702,13.9751692 Z" id="Fill-139" fill="#FFFFFF"></path>
        <path d="M5.76748555,7.36035447 L3.8764078,6.76339918 L3.8764078,3.08888403 C4.12633811,3.02443913 4.4530634,2.99221668 4.85658365,2.99221668 C5.18240809,2.99221668 5.45249114,3.02443913 5.6668328,3.08888403 L5.76748555,7.36035447 Z" id="Path-2" fill="#373C8C"></path>
        <path d="M3.79678411,9.18509124 L5.79708878,9.78130243 L5.79708878,13.9191993 C5.59613994,13.9864492 5.33044368,14.0200742 5,14.0200742 C4.66955632,14.0200742 4.33904139,13.9864492 4.00845519,13.9191993 L3.79678411,9.18509124 Z" id="Path-3" fill="#373C8C"></path>
        <g id="Group" transform="translate(4.000000, 3.000000)" fill="#FFFFFF">
            <path d="M0.0089435638,10.0765347 L0.0089435638,7.16449058 L1.99600133,7.68649766 L1.99600133,10.0765347 C1.41766302,10.1525804 1.01891838,10.1906033 0.799767387,10.1906033 C0.580616399,10.1906033 0.317008458,10.1525804 0.0089435638,10.0765347 Z" id="Path-4"></path>
            <path d="M0.0335717441,0.945348381 L0.0335717441,2.86760043 L1.99198859,3.4374594 L1.99198859,0.997458088 C1.38771305,0.858441988 0.980843553,0.788933938 0.771380088,0.788933938 C0.561916623,0.788933938 0.315980508,0.841072086 0.0335717441,0.945348381 Z" id="Path-5"></path>
        </g>
    </g>
</svg>