<?xml version="1.0" encoding="UTF-8"?>
<svg width="17px" height="16px" viewBox="0 0 17 16" version="1.1" xmlns="http://www.w3.org/2000/svg" xmlns:xlink="http://www.w3.org/1999/xlink">
    <!-- Generator: Sketch 50.2 (55047) - http://www.bohemiancoding.com/sketch -->
    <title>IconNewsfeedActive</title>
    <desc>Created with Sketch.</desc>
    <defs></defs>
    <g id="IconNewsfeedActive" stroke="none" stroke-width="1" fill="none" fill-rule="evenodd">
        <path d="M4,0.666666667 L4,3.33333333 C4,3.52 3.93555556,3.67777778 3.80711111,3.80666667 C3.67777778,3.93555556 3.52,4 3.33333333,4 L0.666666667,4 C0.48,4 0.322222222,3.93555556 0.193333333,3.80666667 C0.0644444444,3.67777778 0,3.52 0,3.33333333 L0,0.666666667 C0,0.48 0.0644444444,0.322222222 0.193333333,0.193333333 C0.322222222,0.0648888889 0.48,0 0.666666667,0 L3.33333333,0 C3.52,0 3.67777778,0.0648888889 3.80711111,0.193333333 C3.93555556,0.322222222 4,0.48 4,0.666666667 C4,0.666666667 4,0.48 4,0.666666667 L4,0.666666667 L4,0.666666667 Z M4,9.33333333 L4,6.66666667 C4,6.48 3.93555556,6.32222222 3.80711111,6.19333333 C3.67777778,6.06488889 3.52,6 3.33333333,6 L0.666666667,6 C0.48,6 0.322222222,6.06488889 0.193333333,6.19333333 C0.0644444444,6.32222222 0,6.48 0,6.66666667 L0,9.33333333 C0,9.52 0.0644444444,9.67777778 0.193333333,9.80666667 C0.322222222,9.93555556 0.48,10 0.666666667,10 L3.33333333,10 C3.52,10 3.67777778,9.93555556 3.80711111,9.80666667 C3.93555556,9.67777778 4,9.52 4,9.33333333 C4,9.33333333 4,9.52 4,9.33333333 L4,9.33333333 L4,9.33333333 Z M4,12.6666667 L4,15.3333333 C4,15.52 3.93555556,15.6777778 3.80711111,15.8066667 C3.67777778,15.9355556 3.52,16 3.33333333,16 L0.666666667,16 C0.48,16 0.322222222,15.9355556 0.193333333,15.8066667 C0.0644444444,15.6777778 0,15.52 0,15.3333333 L0,12.6666667 C0,12.48 0.0644444444,12.3222222 0.193333333,12.1933333 C0.322222222,12.0648889 0.48,12 0.666666667,12 L3.33333333,12 C3.52,12 3.67777778,12.0648889 3.80711111,12.1933333 C3.93555556,12.3222222 4,12.48 4,12.6666667 C4,12.6666667 4,12.48 4,12.6666667 L4,12.6666667 L4,12.6666667 Z M17,0.666666667 L17,3.33333333 C17,3.52 16.9335417,3.67777778 16.8010833,3.80666667 C16.6677083,3.93555556 16.505,4 16.3125,4 L6.6875,4 C6.495,4 6.33229167,3.93555556 6.199375,3.80666667 C6.06645833,3.67777778 6,3.52 6,3.33333333 L6,0.666666667 C6,0.48 6.06645833,0.322222222 6.199375,0.193333333 C6.33229167,0.0648888889 6.495,0 6.6875,0 L16.3125,0 C16.505,0 16.6677083,0.0648888889 16.8010833,0.193333333 C16.9335417,0.322222222 17,0.48 17,0.666666667 C17,0.666666667 17,0.48 17,0.666666667 L17,0.666666667 L17,0.666666667 Z M17,6.66666667 L17,9.33333333 C17,9.52 16.9335417,9.67777778 16.8010833,9.80666667 C16.6677083,9.93555556 16.505,10 16.3125,10 L6.6875,10 C6.495,10 6.33229167,9.93555556 6.199375,9.80666667 C6.06645833,9.67777778 6,9.52 6,9.33333333 L6,6.66666667 C6,6.48 6.06645833,6.32222222 6.199375,6.19333333 C6.33229167,6.06488889 6.495,6 6.6875,6 L16.3125,6 C16.505,6 16.6677083,6.06488889 16.8010833,6.19333333 C16.9335417,6.32222222 17,6.48 17,6.66666667 C17,6.66666667 17,6.48 17,6.66666667 L17,6.66666667 L17,6.66666667 Z M17,12.6666667 L17,15.3333333 C17,15.52 16.9335417,15.6777778 16.8010833,15.8066667 C16.6677083,15.9355556 16.505,16 16.3125,16 L6.6875,16 C6.495,16 6.33229167,15.9355556 6.199375,15.8066667 C6.06645833,15.6777778 6,15.52 6,15.3333333 L6,12.6666667 C6,12.48 6.06645833,12.3222222 6.199375,12.1933333 C6.33229167,12.0648889 6.495,12 6.6875,12 L16.3125,12 C16.505,12 16.6677083,12.0648889 16.8010833,12.1933333 C16.9335417,12.3222222 17,12.48 17,12.6666667 L17,12.6666667 Z" id="Fill-18" fill="#373C8C"></path>
    </g>
</svg>