<?xml version="1.0" encoding="UTF-8"?>
<svg width="16px" height="14px" viewBox="0 0 16 14" version="1.1" xmlns="http://www.w3.org/2000/svg" xmlns:xlink="http://www.w3.org/1999/xlink">
    <!-- Generator: Sketch 50.2 (55047) - http://www.bohemiancoding.com/sketch -->
    <title>ImportIcon</title>
    <desc>Created with Sketch.</desc>
    <defs></defs>
    <g id="ImportIcon" stroke="none" stroke-width="1" fill="none" fill-rule="evenodd">
        <path d="M16,13.8086667 C15.5583333,13.9363636 15.1416667,14 14.75,14 L11,14 C9.62541667,14 8.44791667,13.5015152 7.46916667,12.5041212 C6.48958333,11.5075758 6,10.3086667 6,8.90909091 L6,5.09090909 C6,3.69090909 6.48958333,2.49242424 7.46916667,1.49545455 C8.44791667,0.498060606 9.62541667,0 11,0 L12.1625,0.025030303 C12.9379167,0.0424242424 13.7416667,0.0657575758 14.575,0.095030303 C15.4083333,0.124727273 15.8833333,0.156969697 16,0.190909091 L16,2.54545455 L9.75,2.54545455 C9.40833333,2.54545455 9.11458333,2.67018182 8.86875,2.92048485 C8.62291667,3.17121212 8.5,3.46987879 8.5,3.81818182 L8.5,10.1818182 C8.5,10.529697 8.62291667,10.8287879 8.86875,11.0790909 C9.11458333,11.3293939 9.40833333,11.4545455 9.75,11.4545455 L16,11.4545455 L16,13.8086667 L16,13.8086667 L16,13.8086667 L16,13.8086667 Z" id="Fill-154" fill="#000000" transform="translate(11.000000, 7.000000) scale(-1, 1) translate(-11.000000, -7.000000) "></path>
        <polygon id="Fill-154" fill="#000000" points="3.85714286 2 3.85714286 4.57142857 0 4.57142857 0 8.42857143 3.85714286 8.42857143 3.85714286 11 9 6.5"></polygon>
    </g>
</svg>