<?xml version="1.0" encoding="UTF-8"?>
<svg width="60px" height="60px" viewBox="0 0 60 60" version="1.1" xmlns="http://www.w3.org/2000/svg" xmlns:xlink="http://www.w3.org/1999/xlink">
    <!-- Generator: Sketch 53 (72520) - https://sketchapp.com -->
    <title>ImportPortRed</title>
    <desc>Created with Sketch.</desc>
    <g id="ImportPortRed" stroke="none" stroke-width="1" fill="none" fill-rule="evenodd">
        <g id="Page-1" transform="translate(9.000000, 31.000000)" fill="#D91A26">
            <rect id="Rectangle-8" x="10" y="10" width="9" height="4"></rect>
            <rect id="Rectangle-8" x="0" y="5" width="9" height="4"></rect>
            <rect id="Rectangle-8" x="10" y="5" width="9" height="4"></rect>
            <polygon id="Rectangle-8" points="20 5 29 5 29 9 20 9"></polygon>
            <rect id="Rectangle-8" x="0" y="0" width="9" height="4"></rect>
            <rect id="Rectangle-8" x="0" y="10" width="9" height="4"></rect>
        </g>
        <rect id="Rectangle" stroke="#FFFFFF" fill="#D91A26" x="28.5" y="39.5" width="22" height="8"></rect>
        <path d="M50.5,40.8493803 L50.5,49.5 L55.5,49.5 L55.5,43.624621 L50.5,40.8493803 Z" id="Rectangle-Copy" stroke="#FFFFFF" fill="#D91A26"></path>
        <ellipse id="Oval" fill="#D91A26" cx="33.0714286" cy="49.1306225" rx="1.07142857" ry="1.13062254"></ellipse>
        <ellipse id="Oval" fill="#D91A26" cx="36.0714286" cy="49.1306225" rx="1.07142857" ry="1.13062254"></ellipse>
        <ellipse id="Oval" fill="#FFFFFF" cx="50.8952896" cy="49" rx="1.8952896" ry="2"></ellipse>
        <ellipse id="Oval" fill="#D91A26" cx="51.0714286" cy="49.1306225" rx="1.07142857" ry="1.13062254"></ellipse>
    </g>
</svg>