<?xml version="1.0" encoding="UTF-8"?>
<svg width="642px" height="47px" viewBox="0 0 642 47" version="1.1" xmlns="http://www.w3.org/2000/svg" xmlns:xlink="http://www.w3.org/1999/xlink">
    <!-- Generator: Sketch 52.6 (67491) - http://www.bohemiancoding.com/sketch -->
    <title>IncotermHelpBackground</title>
    <desc>Created with Sketch.</desc>
    <defs>
        <polygon id="path-1" points="12.0565976 0.963 0.662817073 0.963 0.662817073 9.807075 12.0565976 9.807075 12.0565976 0.963"></polygon>
        <polygon id="path-3" points="0 17.037225 44.9407317 17.037225 44.9407317 1.125225 0 1.125225"></polygon>
        <polygon id="path-5" points="12.0565976 0.963 0.662817073 0.963 0.662817073 9.807075 12.0565976 9.807075 12.0565976 0.963"></polygon>
        <polygon id="path-7" points="0 17.037225 44.9407317 17.037225 44.9407317 1.125225 0 1.125225"></polygon>
        <polygon id="path-9" points="8.34687523 0.6741 0.458873358 0.6741 0.458873358 6.8649525 8.34687523 6.8649525 8.34687523 0.6741"></polygon>
        <polygon id="path-11" points="0 12 22.9677734 12 31 12 31 1 0 1"></polygon>
        <polygon id="path-13" points="8.34687523 0.6741 0.458873358 0.6741 0.458873358 6.8649525 8.34687523 6.8649525 8.34687523 0.6741"></polygon>
        <polygon id="path-15" points="0 12 22.9677734 12 31 12 31 1 0 1"></polygon>
        <polygon id="path-17" points="8.34687523 0.6741 0.458873358 0.6741 0.458873358 6.8649525 8.34687523 6.8649525 8.34687523 0.6741"></polygon>
        <polygon id="path-19" points="0 12 22.9677734 12 31 12 31 1 0 1"></polygon>
    </defs>
    <g id="IncotermHelpBackground" stroke="none" stroke-width="1" fill="none" fill-rule="evenodd">
        <g id="Page-1" transform="translate(1.000000, 18.000000)" fill="#C8C8C8">
            <polygon id="Fill-1" points="20.725488 15.2634585 28.500968 15.2634585 28.500968 9.67457846"></polygon>
            <polygon id="Fill-2" points="20.725372 15.2638065 20.725372 9.67492646 12.949892 15.2638065"></polygon>
            <polygon id="Fill-3" points="13.541724 15.2638065 13.541724 9.67492646 5.766244 15.2638065"></polygon>
            <polygon id="Fill-4" points="2.368836 15.24704 0.000116 28.6114 28.501316 28.6114 28.501316 15.24704"></polygon>
            <polygon id="Fill-5" points="1.458352 0.000464 0.000232 28.035344 7.588952 28.035344 6.130832 0.000464"></polygon>
        </g>
        <g id="Page-1" transform="translate(249.000000, 29.000000)">
            <path d="M37.4966341,17.037225 C37.4966341,17.037225 34.4212683,16.81785 32.616878,15.60735 C31.122,14.60835 28.8906585,14.710725 28.8906585,14.710725 C28.8906585,14.710725 27.1784634,14.710725 25.3389512,15.7311 C23.5751707,16.70985 21.9013902,16.710975 21.9013902,16.710975 C21.9013902,16.710975 20.2912683,16.8741 18.0072439,15.7851 C15.7232195,14.6961 14.6190732,14.6961 14.6190732,14.6961 C14.6190732,14.6961 13.1735854,14.532975 10.889561,15.7851 C8.60553659,17.037225 2.367,17.037225 2.367,17.037225 L0.000658536585,9.1116 L28.9213902,9.1116 L31.0978537,6.846975 L44.9402927,6.846975 L37.4966341,17.037225 Z" id="Fill-1" fill="#C8C8C8"></path>
            <g id="Group-5" transform="translate(1.097561, 0.162225)">
                <mask id="mask-2" fill="white">
                    <use xlink:href="#path-1"></use>
                </mask>
                <g id="Clip-4"></g>
                <polygon id="Fill-3" fill="#C8C8C8" mask="url(#mask-2)" points="12.0565976 0.962325 9.99208537 2.742075 8.70245122 2.742075 8.70245122 9.521325 0.662817073 9.807075 0.662817073 3.3507 0.662817073 2.904075 0.662817073 0.962325"></polygon>
            </g>
            <mask id="mask-4" fill="white">
                <use xlink:href="#path-3"></use>
            </mask>
            <g id="Clip-7"></g>
            <polygon id="Fill-6" fill="#C8C8C8" mask="url(#mask-4)" points="11.4508537 7.587225 27.5015854 7.587225 27.5015854 3.9861 11.4508537 3.9861"></polygon>
        </g>
        <g id="Page-1-Copy" transform="translate(354.000000, 29.000000)">
            <path d="M37.4966341,17.037225 C37.4966341,17.037225 34.4212683,16.81785 32.616878,15.60735 C31.122,14.60835 28.8906585,14.710725 28.8906585,14.710725 C28.8906585,14.710725 27.1784634,14.710725 25.3389512,15.7311 C23.5751707,16.70985 21.9013902,16.710975 21.9013902,16.710975 C21.9013902,16.710975 20.2912683,16.8741 18.0072439,15.7851 C15.7232195,14.6961 14.6190732,14.6961 14.6190732,14.6961 C14.6190732,14.6961 13.1735854,14.532975 10.889561,15.7851 C8.60553659,17.037225 2.367,17.037225 2.367,17.037225 L0.000658536585,9.1116 L28.9213902,9.1116 L31.0978537,6.846975 L44.9402927,6.846975 L37.4966341,17.037225 Z" id="Fill-1" fill="#C8C8C8"></path>
            <g id="Group-5" transform="translate(1.097561, 0.162225)">
                <mask id="mask-6" fill="white">
                    <use xlink:href="#path-5"></use>
                </mask>
                <g id="Clip-4"></g>
                <polygon id="Fill-3" fill="#C8C8C8" mask="url(#mask-6)" points="12.0565976 0.962325 9.99208537 2.742075 8.70245122 2.742075 8.70245122 9.521325 0.662817073 9.807075 0.662817073 3.3507 0.662817073 2.904075 0.662817073 0.962325"></polygon>
            </g>
            <mask id="mask-8" fill="white">
                <use xlink:href="#path-7"></use>
            </mask>
            <g id="Clip-7"></g>
            <polygon id="Fill-6" fill="#C8C8C8" mask="url(#mask-8)" points="11.4508537 7.587225 27.5015854 7.587225 27.5015854 3.9861 11.4508537 3.9861"></polygon>
        </g>
        <g id="Group-6" transform="translate(95.000000, 1.000000)">
            <g id="Page-1" transform="translate(0.000000, 16.000000)">
                <path d="M25.8652583,11 C25.8652583,11 23.7438271,10.8493045 22.499133,10.0177743 C21.4679448,9.33153014 19.9287337,9.40185471 19.9287337,9.40185471 C19.9287337,9.40185471 18.7476371,9.40185471 17.4787153,10.1027821 C16.2620344,10.7751159 15.1074368,10.7758887 15.1074368,10.7758887 C15.1074368,10.7758887 13.9967517,10.8879444 12.4211992,10.1398764 C10.8456466,9.39180835 10.0839907,9.39180835 10.0839907,9.39180835 C10.0839907,9.39180835 9.08687263,9.2797527 7.51132006,10.1398764 C5.93576749,11 1.63233606,11 1.63233606,11 L0,5.55564142 L19.9499328,5.55564142 L21.4512883,4 L31,4 L25.8652583,11 Z" id="Fill-1" fill="#C8C8C8"></path>
                <g id="Group-5" transform="translate(1.000000, 0.000000)">
                    <mask id="mask-10" fill="white">
                        <use xlink:href="#path-9"></use>
                    </mask>
                    <g id="Clip-4"></g>
                    <polygon id="Fill-3" fill="#C8C8C8" mask="url(#mask-10)" points="8.34687523 0.6736275 6.91759756 1.9194525 6.02477392 1.9194525 6.02477392 6.6649275 0.458873358 6.8649525 0.458873358 2.34549 0.458873358 2.0328525 0.458873358 0.6736275"></polygon>
                </g>
                <mask id="mask-12" fill="white">
                    <use xlink:href="#path-11"></use>
                </mask>
                <g id="Clip-7"></g>
                <polygon id="Fill-6" fill="#C8C8C8" mask="url(#mask-12)" points="8 4 19 4 19 2 8 2"></polygon>
            </g>
            <path d="M28.0938549,10.4379164 L7.93170997,10.2332152 C7.93170997,10.2332152 4.02763417,9.10459245 1.62838873,7.34342458 L0,3.53155652 L0.840934608,3.10002429 L5.29825686,7.13134677 L10.9837862,7.24015191 L8.59929403,0.745038556 L10.0543322,0 L18.4138861,7.28441162 L28.0385302,7.41903493 C28.0385302,7.41903493 30.5631782,7.91880089 30.6572301,9.04004703 C30.6572301,9.04004703 30.1353343,10.1391633 28.0938549,10.4379164 Z" id="Fill-1" fill="#C8C8C8"></path>
            <g id="Group-4" transform="translate(0.000000, 32.000000)" fill="#C8C8C8" stroke="#F0F0F0">
                <rect id="Rectangle" x="1.42675781" y="0.5" width="24" height="9"></rect>
                <path d="M25.4267578,1.825996 L25.4267578,11.5 L31.4267578,11.5 L31.4267578,4.96598255 L25.4267578,1.825996 Z" id="Rectangle-Copy"></path>
                <circle id="Oval" stroke-width="0.5" cx="6" cy="11" r="1.71960449"></circle>
                <circle id="Oval" stroke-width="0.5" cx="9.55786133" cy="11" r="1.74725342"></circle>
                <circle id="Oval" stroke-width="0.5" cx="25.0353442" cy="11.0353442" r="1.745"></circle>
            </g>
        </g>
        <g id="Group-6-Copy" transform="translate(307.000000, 1.000000)">
            <g id="Page-1" transform="translate(0.000000, 16.000000)">
                <path d="M25.8652583,11 C25.8652583,11 23.7438271,10.8493045 22.499133,10.0177743 C21.4679448,9.33153014 19.9287337,9.40185471 19.9287337,9.40185471 C19.9287337,9.40185471 18.7476371,9.40185471 17.4787153,10.1027821 C16.2620344,10.7751159 15.1074368,10.7758887 15.1074368,10.7758887 C15.1074368,10.7758887 13.9967517,10.8879444 12.4211992,10.1398764 C10.8456466,9.39180835 10.0839907,9.39180835 10.0839907,9.39180835 C10.0839907,9.39180835 9.08687263,9.2797527 7.51132006,10.1398764 C5.93576749,11 1.63233606,11 1.63233606,11 L0,5.55564142 L19.9499328,5.55564142 L21.4512883,4 L31,4 L25.8652583,11 Z" id="Fill-1" fill="#C8C8C8"></path>
                <g id="Group-5" transform="translate(1.000000, 0.000000)">
                    <mask id="mask-14" fill="white">
                        <use xlink:href="#path-13"></use>
                    </mask>
                    <g id="Clip-4"></g>
                    <polygon id="Fill-3" fill="#C8C8C8" mask="url(#mask-14)" points="8.34687523 0.6736275 6.91759756 1.9194525 6.02477392 1.9194525 6.02477392 6.6649275 0.458873358 6.8649525 0.458873358 2.34549 0.458873358 2.0328525 0.458873358 0.6736275"></polygon>
                </g>
                <mask id="mask-16" fill="white">
                    <use xlink:href="#path-15"></use>
                </mask>
                <g id="Clip-7"></g>
                <polygon id="Fill-6" fill="#C8C8C8" mask="url(#mask-16)" points="8 4 19 4 19 2 8 2"></polygon>
            </g>
            <path d="M28.0938549,10.4379164 L7.93170997,10.2332152 C7.93170997,10.2332152 4.02763417,9.10459245 1.62838873,7.34342458 L0,3.53155652 L0.840934608,3.10002429 L5.29825686,7.13134677 L10.9837862,7.24015191 L8.59929403,0.745038556 L10.0543322,0 L18.4138861,7.28441162 L28.0385302,7.41903493 C28.0385302,7.41903493 30.5631782,7.91880089 30.6572301,9.04004703 C30.6572301,9.04004703 30.1353343,10.1391633 28.0938549,10.4379164 Z" id="Fill-1" fill="#C8C8C8"></path>
            <g id="Group-4" transform="translate(0.000000, 32.000000)" fill="#C8C8C8" stroke="#F0F0F0">
                <rect id="Rectangle" x="1.42675781" y="0.5" width="24" height="9"></rect>
                <path d="M25.4267578,1.825996 L25.4267578,11.5 L31.4267578,11.5 L31.4267578,4.96598255 L25.4267578,1.825996 Z" id="Rectangle-Copy"></path>
                <circle id="Oval" stroke-width="0.5" cx="6" cy="11" r="1.71960449"></circle>
                <circle id="Oval" stroke-width="0.5" cx="9.55786133" cy="11" r="1.74725342"></circle>
                <circle id="Oval" stroke-width="0.5" cx="25.0353442" cy="11.0353442" r="1.745"></circle>
            </g>
        </g>
        <g id="Group-6-Copy-2" transform="translate(520.000000, 1.000000)">
            <g id="Page-1" transform="translate(0.000000, 16.000000)">
                <path d="M25.8652583,11 C25.8652583,11 23.7438271,10.8493045 22.499133,10.0177743 C21.4679448,9.33153014 19.9287337,9.40185471 19.9287337,9.40185471 C19.9287337,9.40185471 18.7476371,9.40185471 17.4787153,10.1027821 C16.2620344,10.7751159 15.1074368,10.7758887 15.1074368,10.7758887 C15.1074368,10.7758887 13.9967517,10.8879444 12.4211992,10.1398764 C10.8456466,9.39180835 10.0839907,9.39180835 10.0839907,9.39180835 C10.0839907,9.39180835 9.08687263,9.2797527 7.51132006,10.1398764 C5.93576749,11 1.63233606,11 1.63233606,11 L0,5.55564142 L19.9499328,5.55564142 L21.4512883,4 L31,4 L25.8652583,11 Z" id="Fill-1" fill="#C8C8C8"></path>
                <g id="Group-5" transform="translate(1.000000, 0.000000)">
                    <mask id="mask-18" fill="white">
                        <use xlink:href="#path-17"></use>
                    </mask>
                    <g id="Clip-4"></g>
                    <polygon id="Fill-3" fill="#C8C8C8" mask="url(#mask-18)" points="8.34687523 0.6736275 6.91759756 1.9194525 6.02477392 1.9194525 6.02477392 6.6649275 0.458873358 6.8649525 0.458873358 2.34549 0.458873358 2.0328525 0.458873358 0.6736275"></polygon>
                </g>
                <mask id="mask-20" fill="white">
                    <use xlink:href="#path-19"></use>
                </mask>
                <g id="Clip-7"></g>
                <polygon id="Fill-6" fill="#C8C8C8" mask="url(#mask-20)" points="8 4 19 4 19 2 8 2"></polygon>
            </g>
            <path d="M28.0938549,10.4379164 L7.93170997,10.2332152 C7.93170997,10.2332152 4.02763417,9.10459245 1.62838873,7.34342458 L0,3.53155652 L0.840934608,3.10002429 L5.29825686,7.13134677 L10.9837862,7.24015191 L8.59929403,0.745038556 L10.0543322,0 L18.4138861,7.28441162 L28.0385302,7.41903493 C28.0385302,7.41903493 30.5631782,7.91880089 30.6572301,9.04004703 C30.6572301,9.04004703 30.1353343,10.1391633 28.0938549,10.4379164 Z" id="Fill-1" fill="#C8C8C8"></path>
            <g id="Group-4" transform="translate(0.000000, 32.000000)" fill="#C8C8C8" stroke="#F0F0F0">
                <rect id="Rectangle" x="1.42675781" y="0.5" width="24" height="9"></rect>
                <path d="M25.4267578,1.825996 L25.4267578,11.5 L31.4267578,11.5 L31.4267578,4.96598255 L25.4267578,1.825996 Z" id="Rectangle-Copy"></path>
                <circle id="Oval" stroke-width="0.5" cx="6" cy="11" r="1.71960449"></circle>
                <circle id="Oval" stroke-width="0.5" cx="9.55786133" cy="11" r="1.74725342"></circle>
                <circle id="Oval" stroke-width="0.5" cx="25.0353442" cy="11.0353442" r="1.745"></circle>
            </g>
        </g>
        <g id="Page-1" transform="translate(148.000000, 13.000000)" fill="#C8C8C8">
            <polygon id="Fill-1" points="0 10.7185571 0 32.5567 4.50214286 32.5567 4.50214286 17.6925571 27.8897143 17.6925571 27.9557143 32.5567 32.472 32.5567 32.472 10.7185571 16.236 0.00141428571"></polygon>
            <polygon id="Fill-2" points="6.56071429 32.5565429 11.957 32.5565429 11.957 27.1602571 6.56071429 27.1602571"></polygon>
            <polygon id="Fill-3" points="6.55914286 25.3656857 11.9554286 25.3656857 11.9554286 19.9709714 6.55914286 19.9709714"></polygon>
            <polygon id="Fill-4" points="13.8395714 32.5565429 19.2358571 32.5565429 19.2358571 27.1602571 13.8395714 27.1602571"></polygon>
        </g>
        <g id="Page-1-Copy-2" transform="translate(466.000000, 13.000000)" fill="#C8C8C8">
            <polygon id="Fill-1" points="0 10.7185571 0 32.5567 4.50214286 32.5567 4.50214286 17.6925571 27.8897143 17.6925571 27.9557143 32.5567 32.472 32.5567 32.472 10.7185571 16.236 0.00141428571"></polygon>
            <polygon id="Fill-2" points="6.56071429 32.5565429 11.957 32.5565429 11.957 27.1602571 6.56071429 27.1602571"></polygon>
            <polygon id="Fill-3" points="6.55914286 25.3656857 11.9554286 25.3656857 11.9554286 19.9709714 6.55914286 19.9709714"></polygon>
            <polygon id="Fill-4" points="13.8395714 32.5565429 19.2358571 32.5565429 19.2358571 27.1602571 13.8395714 27.1602571"></polygon>
        </g>
        <g id="Group-10" transform="translate(618.000000, 9.000000)">
            <rect id="Rectangle-6" fill="#C8C8C8" x="0" y="0" width="24" height="38"></rect>
            <polygon id="Rectangle-6" fill="#F0F0F0" points="3.37890625 3 6.37890625 3 6.37890625 10 3.37890625 10"></polygon>
            <polygon id="Rectangle-6" fill="#F0F0F0" points="8.37890625 3 11.3789062 3 11.3789062 10 8.37890625 10"></polygon>
            <polygon id="Rectangle-6" fill="#F0F0F0" points="13.3789062 3 16.3789062 3 16.3789062 10 13.3789062 10"></polygon>
            <polygon id="Rectangle-6" fill="#F0F0F0" points="18.3789062 3 21.3789062 3 21.3789062 10 18.3789062 10"></polygon>
            <polygon id="Rectangle-6" fill="#F0F0F0" points="3.37890625 12 6.37890625 12 6.37890625 19 3.37890625 19"></polygon>
            <polygon id="Rectangle-6" fill="#F0F0F0" points="8.37890625 12 11.3789062 12 11.3789062 19 8.37890625 19"></polygon>
            <polygon id="Rectangle-6" fill="#F0F0F0" points="13.3789062 12 16.3789062 12 16.3789062 19 13.3789062 19"></polygon>
            <polygon id="Rectangle-6" fill="#F0F0F0" points="18.3789062 12 21.3789062 12 21.3789062 19 18.3789062 19"></polygon>
            <polygon id="Rectangle-6" fill="#F0F0F0" points="3.37890625 21 6.37890625 21 6.37890625 28 3.37890625 28"></polygon>
            <polygon id="Rectangle-6" fill="#F0F0F0" points="8.37890625 21 11.3789062 21 11.3789062 28 8.37890625 28"></polygon>
            <polygon id="Rectangle-6" fill="#F0F0F0" points="13.3789062 21 16.3789062 21 16.3789062 28 13.3789062 28"></polygon>
            <polygon id="Rectangle-6" fill="#F0F0F0" points="18.3789062 21 21.3789062 21 21.3789062 28 18.3789062 28"></polygon>
            <polygon id="Rectangle-6" fill="#F0F0F0" points="3 30 6 30 6 37 3 37"></polygon>
            <polygon id="Rectangle-6" fill="#F0F0F0" points="8.37890625 30 11.3789062 30 11.3789062 37 8.37890625 37"></polygon>
            <polygon id="Rectangle-6" fill="#F0F0F0" points="13.3789062 30 16.3789062 30 16.3789062 37 13.3789062 37"></polygon>
            <polygon id="Rectangle-6" fill="#F0F0F0" points="18.3789062 30 21.3789062 30 21.3789062 37 18.3789062 37"></polygon>
        </g>
        <g id="Group" transform="translate(219.500000, 25.000000) scale(-1, -1) rotate(180.000000) translate(-219.500000, -25.000000) translate(197.000000, 2.000000)" fill="#C8C8C8">
            <g id="Page-1">
                <polygon id="Fill-1" points="21 36.3687815 45 36.3687815 45 25 21 25"></polygon>
                <polygon id="Fill-2" points="43.3423197 25.3489328 42.9711599 25.6604063 33 17.3114735 33.372163 17"></polygon>
                <polygon id="Fill-3" points="23.3711599 25.6593749 23 25.3479014 32.9701567 17 33.3413166 17.3104421"></polygon>
                <polygon id="Fill-3" points="3.80271415 8.00317553 2 8.00317553 15 0 15 1.08804678"></polygon>
                <polygon id="Fill-3" points="39.8637769 8.02455704 37.6347823 8.02455704 18.0059653 1.04365628 18.0059653 0.0298614249"></polygon>
                <polygon id="Fill-3" points="1.06718633 28.9973183 0 28.9973183 15 5 15 6.9265191"></polygon>
                <polygon id="Fill-4" points="31 11 31 13.8130815 32.1179445 15.1632526 33.9138061 15.1632526 35.0482517 13.8130815 35.0482517 11"></polygon>
                <path d="M33.3472709,14 L33.3472709,14.9565962 C33.3472709,14.9565962 34.0664406,15.4008025 34.0664406,16.2952909 C34.0664406,17.1904543 33.1492586,17.6569385 32.5696601,17.6569385 C32.5696601,17.6569385 31.5005311,17.7413241 31,17.0095314 L31.1876992,16.6159565 C31.1876992,16.6159565 31.9460588,17.2066564 32.5696601,16.9534993 C33.1932613,16.7003422 33.3431457,15.759273 32.1688227,15.5061159 L32.1330704,14 L33.3472709,14 Z" id="Fill-5"></path>
            </g>
            <rect id="Rectangle-9" x="0" y="8" width="45" height="3"></rect>
            <polygon id="Rectangle-9" points="15 0 18 0 18 40.0833466 16.5 45.0620836 15 40.0833466"></polygon>
            <polygon id="Rectangle-9-Copy" points="0 29 3 29 3 40.052207 1.5 45.0201441 0 40.052207"></polygon>
            <polygon id="Rectangle-9-Copy-2" points="0 29 18 29 18 32 0 32"></polygon>
        </g>
        <g id="Group-Copy-2" transform="translate(429.500000, 25.000000) scale(-1, -1) rotate(180.000000) translate(-429.500000, -25.000000) translate(407.000000, 2.000000)" fill="#C8C8C8">
            <g id="Page-1">
                <polygon id="Fill-1" points="21 36.3687815 45 36.3687815 45 25 21 25"></polygon>
                <polygon id="Fill-2" points="43.3423197 25.3489328 42.9711599 25.6604063 33 17.3114735 33.372163 17"></polygon>
                <polygon id="Fill-3" points="23.3711599 25.6593749 23 25.3479014 32.9701567 17 33.3413166 17.3104421"></polygon>
                <polygon id="Fill-3" points="3.80271415 8.00317553 2 8.00317553 15 0 15 1.08804678"></polygon>
                <polygon id="Fill-3" points="39.8637769 8.02455704 37.6347823 8.02455704 18.0059653 1.04365628 18.0059653 0.0298614249"></polygon>
                <polygon id="Fill-3" points="1.06718633 28.9973183 0 28.9973183 15 5 15 6.9265191"></polygon>
                <polygon id="Fill-4" points="31 11 31 13.8130815 32.1179445 15.1632526 33.9138061 15.1632526 35.0482517 13.8130815 35.0482517 11"></polygon>
                <path d="M33.3472709,14 L33.3472709,14.9565962 C33.3472709,14.9565962 34.0664406,15.4008025 34.0664406,16.2952909 C34.0664406,17.1904543 33.1492586,17.6569385 32.5696601,17.6569385 C32.5696601,17.6569385 31.5005311,17.7413241 31,17.0095314 L31.1876992,16.6159565 C31.1876992,16.6159565 31.9460588,17.2066564 32.5696601,16.9534993 C33.1932613,16.7003422 33.3431457,15.759273 32.1688227,15.5061159 L32.1330704,14 L33.3472709,14 Z" id="Fill-5"></path>
            </g>
            <rect id="Rectangle-9" x="0" y="8" width="45" height="3"></rect>
            <polygon id="Rectangle-9" points="15 0 18 0 18 40.0833466 16.5 45.0620836 15 40.0833466"></polygon>
            <polygon id="Rectangle-9-Copy" points="0 29 3 29 3 40.052207 1.5 45.0201441 0 40.052207"></polygon>
            <polygon id="Rectangle-9-Copy-2" points="0 29 18 29 18 32 0 32"></polygon>
        </g>
        <g id="Group-9" transform="translate(46.000000, 8.000000)">
            <path d="M12,-2.05456457e-15 L19.9688563,-5.32907052e-15 L27,7.00072105 L27,20 C27,22.7614237 24.7614237,25 22,25 L12,25 C9.23857625,25 7,22.7614237 7,20 L7,5 C7,2.23857625 9.23857625,5.07265313e-16 12,0 Z" id="Rectangle-13" fill="#C8C8C8"></path>
            <path d="M20,0 L27,6.99865134 L23.374032,6.99865134 C21.1246773,7.04171033 20,6.05370228 20,4.03462718 C20,2.01555209 20,0.67067636 20,0 Z" id="Path-4" fill="#B1B1B1"></path>
            <path d="M5,5.25 L12.9688563,5.25 L13.2785643,5.25 L20.75,12.6891079 L20.75,26 C20.75,29.1756373 18.1756373,31.75 15,31.75 L5,31.75 C1.82436269,31.75 -0.75,29.1756373 -0.75,26 L-0.75,11 C-0.75,7.82436269 1.82436269,5.25 5,5.25 Z" id="Rectangle-13" stroke="#F0F0F0" stroke-width="1.5" fill="#C8C8C8"></path>
            <path d="M13,6 L20,12.9986513 L16.374032,12.9986513 C14.1246773,13.0417103 13,12.0537023 13,10.0346272 C13,8.01555209 13,6.67067636 13,6 Z" id="Path-4" fill="#B1B1B1"></path>
        </g>
        <g id="Group-9-Copy" transform="translate(576.000000, 8.000000)">
            <path d="M12,-2.05456457e-15 L19.9688563,-5.32907052e-15 L27,7.00072105 L27,20 C27,22.7614237 24.7614237,25 22,25 L12,25 C9.23857625,25 7,22.7614237 7,20 L7,5 C7,2.23857625 9.23857625,5.07265313e-16 12,0 Z" id="Rectangle-13" fill="#C8C8C8"></path>
            <path d="M20,0 L27,6.99865134 L23.374032,6.99865134 C21.1246773,7.04171033 20,6.05370228 20,4.03462718 C20,2.01555209 20,0.67067636 20,0 Z" id="Path-4" fill="#B1B1B1"></path>
            <path d="M5,5.25 L12.9688563,5.25 L13.2785643,5.25 L20.75,12.6891079 L20.75,26 C20.75,29.1756373 18.1756373,31.75 15,31.75 L5,31.75 C1.82436269,31.75 -0.75,29.1756373 -0.75,26 L-0.75,11 C-0.75,7.82436269 1.82436269,5.25 5,5.25 Z" id="Rectangle-13" stroke="#F0F0F0" stroke-width="1.5" fill="#C8C8C8"></path>
            <path d="M13,6 L20,12.9986513 L16.374032,12.9986513 C14.1246773,13.0417103 13,12.0537023 13,10.0346272 C13,8.01555209 13,6.67067636 13,6 Z" id="Path-4" fill="#B1B1B1"></path>
        </g>
    </g>
</svg>