<?xml version="1.0" encoding="UTF-8"?>
<svg width="16px" height="16px" viewBox="0 0 16 16" version="1.1" xmlns="http://www.w3.org/2000/svg" xmlns:xlink="http://www.w3.org/1999/xlink">
    <!-- Generator: Sketch 50.2 (55047) - http://www.bohemiancoding.com/sketch -->
    <title>InfoIcon</title>
    <desc>Created with Sketch.</desc>
    <defs></defs>
    <g id="InfoIcon" stroke="none" stroke-width="1" fill="none" fill-rule="evenodd">
        <path d="M3.98659966,1.0720268 C5.21496371,0.357342267 6.55276382,0 8,0 C9.44768286,0 10.7850363,0.357342267 12.013847,1.0720268 C13.2417644,1.78671133 14.2137353,2.75823562 14.9279732,3.98659966 C15.6426577,5.21496371 16,6.55276382 16,8 C16,9.44723618 15.6426577,10.7850363 14.9279732,12.0134003 C14.2137353,13.2417644 13.2417644,14.2132887 12.013847,14.9279732 C10.7850363,15.6426577 9.44768286,16 8,16 C6.55276382,16 5.21496371,15.6426577 3.98659966,14.9279732 C2.75823562,14.2132887 1.78671133,13.2417644 1.07247348,12.0134003 C0.357342267,10.7850363 0,9.44723618 0,8 C0,6.55276382 0.357342267,5.21496371 1.07247348,3.98659966 C1.78671133,2.75823562 2.75823562,1.78671133 3.98659966,1.0720268 C3.98659966,1.0720268 2.75823562,1.78671133 3.98659966,1.0720268 L3.98659966,1.0720268 L3.98659966,1.0720268 Z M5.319933,6.6599665 L5.319933,8 L6.6599665,8 L6.6599665,10.680067 L5.319933,10.680067 L5.319933,12.0201005 L10.680067,12.0201005 L10.680067,10.680067 L9.3400335,10.680067 L9.3400335,6.6599665 L5.319933,6.6599665 L5.319933,6.6599665 L5.319933,6.6599665 L5.319933,6.6599665 Z M6.6599665,5.319933 L9.3400335,5.319933 L9.3400335,3.9798995 L6.6599665,3.9798995 L6.6599665,3.9798995 L6.6599665,5.319933 L6.6599665,5.319933 Z" id="Fill-88" fill="#C8C8C8"></path>
    </g>
</svg>