<?xml version="1.0" encoding="UTF-8"?>
<svg width="60px" height="60px" viewBox="0 0 60 60" version="1.1" xmlns="http://www.w3.org/2000/svg" xmlns:xlink="http://www.w3.org/1999/xlink">
    <!-- Generator: Sketch 53 (72520) - https://sketchapp.com -->
    <title>LastPoDLightOrangeLeft</title>
    <desc>Created with Sketch.</desc>
    <defs>
        <polygon id="path-1" points="21.7396116 0.315068551 0 0.315068551 0 29.611706 21.7396116 29.611706 21.7396116 0.315068551"></polygon>
        <polygon id="path-3" points="0 30.481461 40.6012023 30.481461 40.6012023 1.18482358 0 1.18482358"></polygon>
    </defs>
    <g id="LastPoDLightOrangeLeft" stroke="none" stroke-width="1" fill="none" fill-rule="evenodd">
        <g id="Page-1" transform="translate(9.000000, 15.000000)">
            <path d="M9.8637777,25.1255325 C9.8637777,25.1255325 12.9955117,23.502811 16.545363,21.7640116 C18.6217359,20.7477379 19.4627083,20.7477379 20.218399,20.7477379 C20.7762836,20.7477379 21.4845956,20.7939322 22.1905387,21.0758356 C26.8502367,22.9366352 27.7385879,23.2848689 27.7385879,23.2848689 C27.7385879,23.2848689 30.4308842,24.5735703 33.7106767,23.6259957 C35.2019223,23.1960337 37.4168779,22.4107313 39.4162602,20.7477379" id="Stroke-3" stroke="#FFAA00" stroke-width="2"></path>
            <path d="M9.8637777,20.3876596 C9.8637777,20.3876596 12.9955117,18.7649381 16.545363,17.0261387 C18.6217359,16.0098649 19.4627083,16.0098649 20.218399,16.0098649 C20.7762836,16.0098649 21.4845956,16.0560592 22.1905387,16.3379626 C26.8502367,18.1987622 27.7385879,18.5469959 27.7385879,18.5469959 C27.7385879,18.5469959 30.4308842,19.8356974 33.7106767,18.8881228 C35.2019223,18.4581608 37.4168779,17.6728583 39.4162602,16.0098649" id="Stroke-3-Copy" stroke="#FFAA00" stroke-width="2"></path>
            <path d="M10.2905416,29.4285872 C10.2905416,29.4285872 13.4222756,27.8058657 16.9721269,26.0682508 C19.0484998,25.051977 19.8882877,25.051977 20.6451629,25.051977 C21.2030475,25.051977 21.9113595,25.0969868 22.6173026,25.3788903 C27.2770006,27.2408743 28.1653518,27.5879235 28.1653518,27.5879235 C28.1653518,27.5879235 30.8564636,28.876625 34.1374406,27.9302348 C35.6286862,27.5002729 37.8436418,26.7149704 39.8430242,25.051977" id="Stroke-5" stroke="#FFAA00" stroke-width="2"></path>
            <g id="Group-9" transform="translate(0.000000, 0.869755)">
                <mask id="mask-2" fill="white">
                    <use xlink:href="#path-1"></use>
                </mask>
                <g id="Clip-8"></g>
                <path d="M21.7396116,11.185052 C21.7396116,17.1879371 12.1868753,29.6118244 10.8697466,29.6118244 C9.4069283,29.6118244 -0.000118446824,17.1879371 -0.000118446824,11.185052 C-0.000118446824,5.18216699 4.86686154,0.31400253 10.8697466,0.31400253 C16.8738161,0.31400253 21.7396116,5.18216699 21.7396116,11.185052" id="Fill-7" fill="#FFAA00" mask="url(#mask-2)"></path>
            </g>
            <polygon id="Fill-10" fill="#FEFEFE" points="18.3677859 13.0946517 13.9461659 13.0946517 16.1563837 10.884434"></polygon>
            <polygon id="Fill-12" fill="#FEFEFE" points="7.79439324 13.0946517 3.37277331 13.0946517 5.58299104 10.884434"></polygon>
            <path d="M16.1562652,13.0946517 C16.1562652,16.0143659 13.7896977,18.3809335 10.8699835,18.3809335 C7.95026926,18.3809335 5.58251725,16.0143659 5.58251725,13.0946517" id="Stroke-14" stroke="#FEFEFE" stroke-width="1.5"></path>
            <mask id="mask-4" fill="white">
                <use xlink:href="#path-3"></use>
            </mask>
            <g id="Clip-17"></g>
            <polygon id="Fill-16" fill="#FEFEFE" mask="url(#mask-4)" points="10.0786402 17.8680587 11.9358864 17.8680587 11.9358864 7.74322421 10.0786402 7.74322421"></polygon>
            <path d="M8.63536569,7.743698 C8.63536569,6.4348606 9.69664923,5.37239259 11.0066711,5.37239259 C12.3155085,5.37239259 13.3779765,6.4348606 13.3779765,7.743698 C13.3779765,9.0525354 12.3155085,10.1150034 11.0066711,10.1150034 C9.69664923,10.1150034 8.63536569,9.0525354 8.63536569,7.743698" id="Fill-18" fill="#FEFEFE" mask="url(#mask-4)"></path>
            <path d="M10.0927354,7.743698 C10.0927354,7.23911453 10.5025614,6.83047299 11.0059604,6.83047299 C11.5105439,6.83047299 11.9191854,7.23911453 11.9191854,7.743698 C11.9191854,8.24828147 11.5105439,8.65692301 11.0059604,8.65692301 C10.5025614,8.65692301 10.0927354,8.24828147 10.0927354,7.743698" id="Fill-19" fill="#FFAA00" mask="url(#mask-4)"></path>
        </g>
    </g>
</svg>