<?xml version="1.0" encoding="UTF-8"?>
<svg width="32px" height="32px" viewBox="0 0 32 32" version="1.1" xmlns="http://www.w3.org/2000/svg" xmlns:xlink="http://www.w3.org/1999/xlink">
    <!-- Generator: Sketch 50.2 (55047) - http://www.bohemiancoding.com/sketch -->
    <title>MagicBlueNegative</title>
    <desc>Created with Sketch.</desc>
    <defs>
        <polygon id="path-1" points="5.8010466 6.0918633 0.093856029 6.0918633 0.093856029 0.114483517 5.8010466 0.114483517"></polygon>
        <polygon id="path-3" points="77.6596364 0.199544626 0 0.199544626 0 39.4269529 77.6596364 39.4269529"></polygon>
    </defs>
    <g id="MagicBlueNegative" stroke="none" stroke-width="1" fill="none" fill-rule="evenodd">
        <circle id="Oval" fill="#FFFFFF" cx="16" cy="16" r="16"></circle>
        <g id="Page-1" transform="translate(-23.000000, -12.000000)">
            <g id="Group-3" transform="translate(37.035208, 32.429560)">
                <mask id="mask-2" fill="white">
                    <use xlink:href="#path-1"></use>
                </mask>
                <g id="Clip-2"></g>
                <path d="M5.8010466,3.1029776 C5.8010466,1.45251778 4.52350339,0.114483517 2.94724358,0.114483517 C1.37098377,0.114483517 0.093856029,1.45251778 0.093856029,3.1029776 C0.093856029,4.75387255 1.37098377,6.09190681 2.94724358,6.09190681 C4.52350339,6.09190681 5.8010466,4.75387255 5.8010466,3.1029776 Z" id="Fill-1" fill="#373C8C" mask="url(#mask-2)"></path>
            </g>
            <g id="Group-6">
                <mask id="mask-4" fill="white">
                    <use xlink:href="#path-3"></use>
                </mask>
                <g id="Clip-5"></g>
                <path d="M43.3759358,32.386934 C41.9007396,32.3838881 40.0129922,30.9113977 40.0129922,30.9113977 L40.0129922,29.6421145 L40.5354123,30.013283 C40.5354123,30.013283 41.9037794,30.9936379 42.9868349,30.9984243 C44.5167484,31.0045162 45.922028,29.9754264 46.1600049,28.0869488 C46.3306708,28.4298337 46.398416,28.9598258 46.3879937,29.3405672 C46.3784399,29.6738792 46.1977859,32.3930259 43.3759358,32.386934 L43.3759358,32.386934 Z M34.9963698,27.319374 L35.7880338,26.6875608 L39.7975971,29.5054827 L39.7845691,30.7747659 L34.9963698,27.319374 Z M36.630941,25.9930884 C36.630941,25.9930884 39.2530295,25.9970046 39.4905721,25.9970046 C39.7276805,25.9970046 39.7276805,26.1210175 39.7276805,26.1210175 L39.7276805,26.3638218 C39.7276805,26.3638218 39.7276805,26.5874802 39.8892269,26.5874802 C40.0785661,26.5874802 40.0698809,26.3668677 40.0698809,26.3642569 C40.0681438,26.3642569 40.0698809,26.3638218 40.0698809,26.3638218 L40.0698809,26.3642569 C40.0829088,26.3659974 40.2835389,26.3738298 42.6824155,26.3738298 C45.4187155,26.3738298 45.9511237,27.754072 45.9511237,27.754072 C45.9511237,27.754072 45.9654544,27.8867876 45.9476496,28.0208086 C45.6584295,30.1951686 43.9252803,30.7808578 43.0241816,30.77172 C41.9901981,30.7612768 40.6839307,29.8670783 40.6839307,29.8670783 C40.6839307,29.8670783 36.1363139,26.6692852 35.959134,26.5448371 L36.630941,25.9930884 Z M39.2621491,22.8131357 C39.3859144,22.6895579 39.3954682,22.6895579 39.575688,22.6895579 C39.7276805,22.6895579 39.7276805,22.8605652 39.7276805,22.8605652 L39.7276805,24.9452879 C39.7276805,25.0693008 39.2530295,25.3356023 39.2530295,25.3356023 L37.0295958,25.1833057 L39.2621491,22.8131357 Z M34.812676,27.4620977 C34.9881188,27.5791485 39.2339219,30.663807 39.2339219,30.663807 C39.2339219,30.663807 41.816058,32.5396657 42.9703328,33.0217932 C44.3017875,33.577023 46.3484756,33.655347 48.1515415,32.5544603 C49.6137097,31.661132 50.7254266,29.7852733 50.7202154,27.639632 C50.7102273,23.5559079 47.5982886,21.8010161 44.9762001,21.7944891 L40.0794347,21.7944891 C40.0794347,21.7944891 40.1076619,21.5012094 39.9083345,21.5090418 C39.7181267,21.5164391 39.7276805,21.7944891 39.7276805,21.7944891 C39.7276805,21.7944891 39.4996917,21.8131999 39.1957066,22.0612257 C38.8917215,22.3088165 36.7351645,24.2125237 36.7351645,24.2125237 C36.7351645,24.2125237 36.7186624,23.5371972 36.5354029,23.3657547 C36.3291273,23.1716854 35.9586997,23.0402752 35.566559,23.1747313 C35.2056853,23.2987443 34.9390469,23.5750538 34.9585888,24.079373 C34.9811706,24.6785513 35.5357262,24.7642725 35.348124,24.9931525 C35.1930916,25.18113 34.482635,24.8600018 34.4835035,24.2412425 L34.4835035,23.1464477 C34.4835035,23.1464477 34.3597382,21.7944891 33.0486939,21.7944891 L26.9394623,21.7944891 C26.9394623,21.7944891 27.9057006,23.2817741 28.9257877,23.2460931 C29.077346,23.6646912 29.4673154,24.6315569 30.7305905,24.6315569 C31.1678948,25.3356023 31.3194531,25.9830803 32.8393785,25.9830803 L33.970203,25.9830803 C33.970203,25.9830803 34.121327,25.9730722 33.9888764,26.0870771 L32.6022701,27.2493176 C32.6022701,27.2493176 31.3954494,28.077811 32.43117,29.0294471 L37.2766922,33.456056 C37.2766922,33.456056 37.3839555,33.6344606 37.5520158,33.3990536 C37.6953231,33.1984572 38.0896352,32.8264184 38.3884091,32.6279978 C38.6541789,32.4508986 38.3884091,32.5139929 38.3884091,32.5139929 C38.3884091,32.5139929 37.865989,32.599279 37.5997849,32.6758624 C37.4260792,32.7250324 37.3622423,32.7328648 37.0769306,32.3708341 C36.7920531,32.0092385 33.9133144,28.4011149 33.9133144,28.4011149 C33.9133144,28.4011149 33.7991028,28.296683 34.0275259,28.1060947 L34.812676,27.4620977 Z" id="Fill-4" fill="#373C8C" mask="url(#mask-4)"></path>
            </g>
        </g>
    </g>
</svg>