<?xml version="1.0" encoding="UTF-8"?>
<svg width="60px" height="87px" viewBox="0 0 60 87" version="1.1" xmlns="http://www.w3.org/2000/svg" xmlns:xlink="http://www.w3.org/1999/xlink">
    <!-- Generator: Sketch 52.6 (67491) - http://www.bohemiancoding.com/sketch -->
    <title>MarkerConnectionAirportRed</title>
    <desc>Created with Sketch.</desc>
    <defs>
        <path d="M30,80.3795653 C30.4797197,80.3795653 43.2772033,64.9137759 52.3388983,51.8882117 C56.0121662,46.6081415 57.3579102,39.5885064 57.3579102,35.6691867 C57.3579102,20.5598301 45.1093566,8.31127655 30,8.31127655 C14.8906434,8.31127655 2.64208984,20.5598301 2.64208984,35.6691867 C2.64208984,39.6353159 4.4295186,46.6706728 8.211998,51.8882117 C18.9639732,66.7194491 29.522287,80.3795653 30,80.3795653 Z" id="path-1"></path>
        <filter x="-11.0%" y="-8.3%" width="121.9%" height="116.7%" filterUnits="objectBoundingBox" id="filter-2">
            <feOffset dx="0" dy="0" in="SourceAlpha" result="shadowOffsetOuter1"></feOffset>
            <feGaussianBlur stdDeviation="2" in="shadowOffsetOuter1" result="shadowBlurOuter1"></feGaussianBlur>
            <feColorMatrix values="0 0 0 0 0   0 0 0 0 0   0 0 0 0 0  0 0 0 0.5 0" type="matrix" in="shadowBlurOuter1"></feColorMatrix>
        </filter>
    </defs>
    <g id="MarkerConnectionAirportRed" stroke="none" stroke-width="1" fill="none" fill-rule="evenodd">
        <circle id="Oval" fill="#D91A26" cx="29.5791016" cy="79.4666667" r="6.93333333"></circle>
        <g id="Oval">
            <use fill="black" fill-opacity="1" filter="url(#filter-2)" xlink:href="#path-1"></use>
            <use fill="#FFFFFF" fill-rule="evenodd" xlink:href="#path-1"></use>
        </g>
        <circle id="Path" stroke="#D91A26" fill="#FFFFFF" cx="30" cy="35.6691867" r="22.4245165"></circle>
        <g id="Page-1-Copy" transform="translate(18.428571, 20.175781)" fill="#D81F27">
            <path d="M18.6892863,5.90689972 L7.28057792,5.79106998 C7.28057792,5.79106998 5.07146462,5.1524411 3.7138565,4.15588786 L2.79243608,1.99895013 L3.2682772,1.7547685 L5.79044387,4.03588407 L9.00758902,4.09745123 L7.65832899,0.422204648 L8.48165936,0.000626106744 L13.2118958,4.1224955 L18.657981,4.19867182 C18.657981,4.19867182 20.0865479,4.48146337 20.1397669,5.1159182 C20.1397669,5.1159182 19.8444532,5.7378509 18.6892863,5.90689972 Z" id="Fill-1"></path>
            <g id="Group-5" transform="translate(0.000000, 7.947663)">
                <path d="M14.5809826,18.3485073 L14.5809826,21.4786236 L8.34913343,21.4786236 L8.34913343,18.3485073 L3.98850866,18.3485073 L0.000208702248,10.2685998 L5.50777057,10.2685998 L2.78398364,4.74852969 L10.8128635,4.74852969 L10.8128635,1.83869859 L6.98943828,1.83869859 L6.98943828,0.533266034 L15.9406777,0.533266034 L15.9406777,1.83869859 L12.118296,1.83869859 L12.118296,4.74852969 L20.1480107,4.74852969 L17.4232822,10.2685998 L22.9313682,10.2685998 L18.9430682,18.3485073 L14.5809826,18.3485073 Z" id="Combined-Shape"></path>
            </g>
        </g>
    </g>
</svg>