<?xml version="1.0" encoding="UTF-8"?>
<svg width="60px" height="87px" viewBox="0 0 60 87" version="1.1" xmlns="http://www.w3.org/2000/svg" xmlns:xlink="http://www.w3.org/1999/xlink">
    <!-- Generator: Sketch 53 (72520) - https://sketchapp.com -->
    <title>MarkerFirstPoLGreyLeft</title>
    <desc>Created with Sketch.</desc>
    <defs>
        <path d="M30,80.3795653 C30.4797197,80.3795653 43.2772033,64.9137759 52.3388983,51.8882117 C56.0121662,46.6081415 57.3579102,39.5885064 57.3579102,35.6691867 C57.3579102,20.5598301 45.1093566,8.31127655 30,8.31127655 C14.8906434,8.31127655 2.64208984,20.5598301 2.64208984,35.6691867 C2.64208984,39.6353159 4.4295186,46.6706728 8.211998,51.8882117 C18.9639732,66.7194491 29.522287,80.3795653 30,80.3795653 Z" id="path-1"></path>
        <filter x="-11.0%" y="-8.3%" width="121.9%" height="116.7%" filterUnits="objectBoundingBox" id="filter-2">
            <feOffset dx="0" dy="0" in="SourceAlpha" result="shadowOffsetOuter1"></feOffset>
            <feGaussianBlur stdDeviation="2" in="shadowOffsetOuter1" result="shadowBlurOuter1"></feGaussianBlur>
            <feColorMatrix values="0 0 0 0 0   0 0 0 0 0   0 0 0 0 0  0 0 0 0.5 0" type="matrix" in="shadowBlurOuter1"></feColorMatrix>
        </filter>
    </defs>
    <g id="MarkerFirstPoLGreyLeft" stroke="none" stroke-width="1" fill="none" fill-rule="evenodd">
        <circle id="Oval" fill="#C8C8C8" cx="29.5791016" cy="79.4666667" r="6.93333333"></circle>
        <g id="Oval">
            <use fill="black" fill-opacity="1" filter="url(#filter-2)" xlink:href="#path-1"></use>
            <use fill="#FFFFFF" fill-rule="evenodd" xlink:href="#path-1"></use>
        </g>
        <circle id="Path" stroke="#C8C8C8" fill="#FFFFFF" cx="30" cy="35.6691867" r="22.4245165"></circle>
        <g id="Page-1-Copy-2" transform="translate(30.000000, 34.714844) scale(-1, 1) translate(-30.000000, -34.714844) translate(16.000000, 23.714844)">
            <path d="M6.73623843,17.1589002 C6.73623843,17.1589002 8.87498362,16.0507002 11.2992723,14.8632275 C12.717283,14.1691869 13.2916057,14.1691869 13.8076871,14.1691869 C14.1886815,14.1691869 14.6724067,14.2007342 15.1545142,14.3932536 C18.336747,15.6640436 18.9434259,15.9018617 18.9434259,15.9018617 C18.9434259,15.9018617 20.7820673,16.7819505 23.0219256,16.1348263 C24.0403371,15.8411938 25.5529898,15.3048897 26.9184216,14.1691869" id="Stroke-3" stroke="#C8C8C8" stroke-width="2"></path>
            <path d="M6.73623843,13.9232797 C6.73623843,13.9232797 8.87498362,12.8150797 11.2992723,11.6276069 C12.717283,10.9335663 13.2916057,10.9335663 13.8076871,10.9335663 C14.1886815,10.9335663 14.6724067,10.9651136 15.1545142,11.157633 C18.336747,12.428423 18.9434259,12.6662411 18.9434259,12.6662411 C18.9434259,12.6662411 20.7820673,13.5463299 23.0219256,12.8992058 C24.0403371,12.6055732 25.5529898,12.0692691 26.9184216,10.9335663" id="Stroke-3-Copy" stroke="#C8C8C8" stroke-width="2"></path>
            <path d="M7.02768695,20.0975717 C7.02768695,20.0975717 9.16643214,18.9893717 11.5907208,17.8027078 C13.0087315,17.1086672 13.5822453,17.1086672 14.0991357,17.1086672 C14.48013,17.1086672 14.9638553,17.1394056 15.4459627,17.3319251 C18.6281955,18.6035239 19.2348744,18.8405331 19.2348744,18.8405331 C19.2348744,18.8405331 21.0727069,19.7206219 23.3133741,19.0743067 C24.3317857,18.7806742 25.8444383,18.2443701 27.2098702,17.1086672" id="Stroke-5" stroke="#C8C8C8" stroke-width="2"></path>
            <g id="Group-9" transform="translate(0.000000, 0.593979)">
                <polygon id="Clip-8" points="14.846564 0.215168767 0 0.215168767 0 20.2226285 14.846564 20.2226285 14.846564 0.215168767"></polygon>
                <path d="M14.846564,7.63857211 C14.846564,11.7381034 8.32274408,20.2227093 7.42324156,20.2227093 C6.42424372,20.2227093 -8.08905138e-05,11.7381034 -8.08905138e-05,7.63857211 C-8.08905138e-05,3.53904087 3.32371032,0.214440752 7.42324156,0.214440752 C11.5235817,0.214440752 14.846564,3.53904087 14.846564,7.63857211" id="Fill-7" fill="#C7C7C7"></path>
            </g>
            <polygon id="Fill-10" fill="#FEFEFE" points="12.5438538 8.94268898 9.52421088 8.94268898 11.0336279 7.43327199"></polygon>
            <polygon id="Fill-12" fill="#FEFEFE" points="5.32300026 8.94268898 2.30335738 8.94268898 3.81277437 7.43327199"></polygon>
            <path d="M11.033547,8.94268898 C11.033547,10.9366401 9.41735451,12.5528326 7.42340335,12.5528326 C5.42945218,12.5528326 3.81245081,10.9366401 3.81245081,8.94268898" id="Stroke-14" stroke="#FEFEFE" stroke-width="1.5"></path>
            <polygon id="Fill-16" fill="#FEFEFE" points="6.88297382 12.2025767 8.15133708 12.2025767 8.15133708 5.28805556 6.88297382 5.28805556"></polygon>
            <path d="M7.516751,3.66895104 C8.41059118,3.66895104 9.13617909,4.39453895 9.13617909,5.28837912 C9.13617909,6.1822193 8.41059118,6.90780721 7.516751,6.90780721 C6.62210192,6.90780721 5.89732291,6.1822193 5.89732291,5.28837912 C5.89732291,4.39453895 6.62210192,3.66895104 7.516751,3.66895104 Z" id="Fill-18" fill="#FEFEFE"></path>
            <path d="M7.51626566,4.66471326 C7.86085924,4.66471326 8.13993152,4.94378553 8.13993152,5.28837912 C8.13993152,5.63297271 7.86085924,5.91204498 7.51626566,5.91204498 C7.17248097,5.91204498 6.89259979,5.63297271 6.89259979,5.28837912 C6.89259979,4.94378553 7.17248097,4.66471326 7.51626566,4.66471326 Z" id="Fill-19" fill="#C7C7C7"></path>
        </g>
    </g>
</svg>