<?xml version="1.0" encoding="UTF-8"?>
<svg width="60px" height="87px" viewBox="0 0 60 87" version="1.1" xmlns="http://www.w3.org/2000/svg" xmlns:xlink="http://www.w3.org/1999/xlink">
    <!-- Generator: Sketch 51.2 (57519) - http://www.bohemiancoding.com/sketch -->
    <title>MarkerOceanFCLRight</title>
    <desc>Created with Sketch.</desc>
    <defs>
        <path d="M26,67.8694239 C26.4559088,67.8694239 38.6181892,53.3047071 47.2301068,41.0380424 C50.721052,36.0656012 52,29.4549463 52,25.7639752 C52,11.5349246 40.3594035,0 26,0 C11.6405965,0 0,11.5349246 0,25.7639752 C0,29.4990285 1.69870972,36.1244893 5.2934457,41.0380424 C15.5117465,55.0051776 25.5459983,67.8694239 26,67.8694239 Z" id="path-1"></path>
        <filter x="-11.5%" y="-8.8%" width="123.1%" height="117.7%" filterUnits="objectBoundingBox" id="filter-2">
            <feOffset dx="0" dy="0" in="SourceAlpha" result="shadowOffsetOuter1"></feOffset>
            <feGaussianBlur stdDeviation="2" in="shadowOffsetOuter1" result="shadowBlurOuter1"></feGaussianBlur>
            <feColorMatrix values="0 0 0 0 0   0 0 0 0 0   0 0 0 0 0  0 0 0 0.5 0" type="matrix" in="shadowBlurOuter1"></feColorMatrix>
        </filter>
    </defs>
    <g id="MarkerOceanFCLRight" stroke="none" stroke-width="1" fill="none" fill-rule="evenodd">
        <g id="Group-2" transform="translate(4.000000, 11.000000)">
            <circle id="Oval" fill="#373C8C" cx="26" cy="68.4666667" r="6.93333333"></circle>
            <g id="ToAddress">
                <g id="Marker">
                    <g id="Oval">
                        <use fill="black" fill-opacity="1" filter="url(#filter-2)" xlink:href="#path-1"></use>
                        <use fill="#FFFFFF" fill-rule="evenodd" xlink:href="#path-1"></use>
                    </g>
                    <ellipse id="Path" stroke="#ACAFD1" stroke-width="1" fill="#FFFFFF" fill-rule="evenodd" cx="26" cy="25.7639752" rx="21.3114754" ry="21.1180124"></ellipse>
                </g>
                <g id="Group" transform="translate(25.133333, 25.566667) scale(-1, 1) translate(-25.133333, -25.566667) translate(12.133333, 17.333333)" fill="#373C8C">
                    <g id="Vessel" transform="translate(12.801093, 8.182195) scale(-1, 1) translate(-12.801093, -8.182195) translate(0.227322, 0.527536)">
                        <polygon id="Path-3" points="25.147541 7.22939959 20.6093537 15.3093168 1.20213159 15.3093168 0 9.01992591 17.4542263 9.01992591 18.5307207 7.22939959"></polygon>
                        <polygon id="Path-4" points="17.0491803 2.97681159 17.0491803 6.31522976 16.4966488 7.65465839 5.54098361 7.65465839 5.54098361 2.97681159"></polygon>
                        <polygon id="Path-5" points="5.54098361 0 0 0 0 1.13333176 0.409474769 1.13333176 0.409474769 8.07991718 4.09430533 8.07991718 4.09430533 1.0893615 4.7993167 1.0893615"></polygon>
                    </g>
                </g>
            </g>
        </g>
    </g>
</svg>