<?xml version="1.0" encoding="UTF-8"?>
<svg width="60px" height="87px" viewBox="0 0 60 87" version="1.1" xmlns="http://www.w3.org/2000/svg" xmlns:xlink="http://www.w3.org/1999/xlink">
    <!-- Generator: Sketch 52.6 (67491) - http://www.bohemiancoding.com/sketch -->
    <title>MarkerUpdatedOnTimeRed</title>
    <desc>Created with Sketch.</desc>
    <defs>
        <path d="M30,80.3795653 C30.4797197,80.3795653 43.2772033,64.9137759 52.3388983,51.8882117 C56.0121662,46.6081415 57.3579102,39.5885064 57.3579102,35.6691867 C57.3579102,20.5598301 45.1093566,8.31127655 30,8.31127655 C14.8906434,8.31127655 2.64208984,20.5598301 2.64208984,35.6691867 C2.64208984,39.6353159 4.4295186,46.6706728 8.211998,51.8882117 C18.9639732,66.7194491 29.522287,80.3795653 30,80.3795653 Z" id="path-1"></path>
        <filter x="-11.0%" y="-8.3%" width="121.9%" height="116.7%" filterUnits="objectBoundingBox" id="filter-2">
            <feOffset dx="0" dy="0" in="SourceAlpha" result="shadowOffsetOuter1"></feOffset>
            <feGaussianBlur stdDeviation="2" in="shadowOffsetOuter1" result="shadowBlurOuter1"></feGaussianBlur>
            <feColorMatrix values="0 0 0 0 0   0 0 0 0 0   0 0 0 0 0  0 0 0 0.5 0" type="matrix" in="shadowBlurOuter1"></feColorMatrix>
        </filter>
    </defs>
    <g id="MarkerUpdatedOnTimeRed" stroke="none" stroke-width="1" fill="none" fill-rule="evenodd">
        <circle id="Oval" fill="#D91A26" cx="29.5791016" cy="79.4666667" r="6.93333333"></circle>
        <g id="Oval">
            <use fill="black" fill-opacity="1" filter="url(#filter-2)" xlink:href="#path-1"></use>
            <use fill="#FFFFFF" fill-rule="evenodd" xlink:href="#path-1"></use>
        </g>
        <circle id="Path" stroke="#D91A26" fill="#FFFFFF" cx="30" cy="35.6691867" r="22.4245165"></circle>
        <g id="Group-2" transform="translate(17.000000, 22.533203)" fill="#D91A26">
            <g id="Group">
                <path d="M8.33333333,16.6666667 C3.73096042,16.6666667 0,12.9357062 0,8.33333333 C0,3.73096042 3.73096042,0 8.33333333,0 C12.9357062,0 16.6666667,3.73096042 16.6666667,8.33333333 C16.6666667,12.9357062 12.9357062,16.6666667 8.33333333,16.6666667 Z M8.33333333,15.2091471 C12.1307404,15.2091471 15.2091471,12.1307404 15.2091471,8.33333333 C15.2091471,4.53592623 12.1307404,1.45751953 8.33333333,1.45751953 C4.53592623,1.45751953 1.45751953,4.53592623 1.45751953,8.33333333 C1.45751953,12.1307404 4.53592623,15.2091471 8.33333333,15.2091471 Z" id="Combined-Shape"></path>
                <path d="M8.33333333,13.8008626 C5.31370028,13.8008626 2.86580404,11.3529664 2.86580404,8.33333333 C2.86580404,5.31370028 5.31370028,2.86580404 8.33333333,2.86580404 C11.3529664,2.86580404 13.8008626,5.31370028 13.8008626,8.33333333 C13.8008626,11.3529664 11.3529664,13.8008626 8.33333333,13.8008626 Z M7.97077186,10.4422425 C8.13827756,10.4659264 8.31306869,10.4158587 8.46200043,10.2846885 L11.6940976,7.42246373 C12.0185731,7.13668491 12.0974303,6.57415708 11.8702301,6.16602264 C11.6430299,5.7578882 11.1958084,5.65869937 10.8713329,5.94447818 L7.90730646,8.56930949 L5.84276904,7.23252523 C5.46779672,6.98973133 4.98832148,7.13381602 4.77183111,7.55434739 C4.55534074,7.97487876 4.68381574,8.51261015 5.05878806,8.75540405 L7.49056429,10.3299748 C7.64167869,10.4278211 7.80976543,10.4628343 7.97077186,10.4422425 Z" id="Combined-Shape"></path>
            </g>
            <path d="M10,17.3333333 L12.6666667,17.3333333 L12.6666667,23.3333333 L10,23.3333333 L10,23.3333333 L10,17.3333333 L10,17.3333333 Z M20.26,10.5395556 C20.5315556,10.9 20.6666667,11.2755556 20.6666667,11.6666667 L20.6666667,13.6666667 C20.6666667,13.7288889 20.5422222,14.2844444 20.2933333,15.3333333 L24.6666667,15.3333333 C25.0133333,15.3333333 25.3222222,15.5133333 25.5933333,15.8728889 C25.8648889,16.2333333 26,16.6088889 26,17 L26,18.3333333 C26,18.7155556 25.8711111,19.0444444 25.6133333,19.3195556 L22.4404444,23.9066667 C22.1111111,24.4128889 21.7422222,24.6666667 21.3333333,24.6666667 L18,24.6666667 C17.8577778,24.6666667 17.24,24.2222222 16.1466667,23.3333333 L15.3333333,23.3333333 C14.4444444,23.3333333 14,23 14,22.3333333 L14,17 C14,16.6711111 14.0888889,16.3906667 14.2666667,16.16 L16.2004444,13.5466667 L17.48,10.9066667 C17.6044444,10.6577778 17.7737778,10.4444444 17.9871111,10.2662222 C18.2004444,10.0888889 18.4266667,10 18.6666667,10 L19.3333333,10 C19.68,10 19.9888889,10.18 20.26,10.5395556 C20.26,10.5395556 19.9888889,10.18 20.26,10.5395556 L20.26,10.5395556 L20.26,10.5395556 Z M19.3333333,11.3333333 L18.6666667,11.3333333 L17.3333333,14.1728889 L15.3333333,17 L15.3333333,22 L16.6666667,22 L18.48,23.3333333 L21.3333333,23.3333333 L24.6666667,18.3333333 L24.6666667,16.6666667 L18.6666667,16.6666667 L19.3333333,13.6666667 L19.3333333,11.3333333 L19.3333333,11.3333333 Z" id="Fill-121"></path>
        </g>
    </g>
</svg>