<?xml version="1.0" encoding="UTF-8"?>
<svg width="60px" height="87px" viewBox="0 0 60 87" version="1.1" xmlns="http://www.w3.org/2000/svg" xmlns:xlink="http://www.w3.org/1999/xlink">
    <!-- Generator: Sketch 52.6 (67491) - http://www.bohemiancoding.com/sketch -->
    <title>MarkerDepartFromPAStationRed</title>
    <desc>Created with Sketch.</desc>
    <defs>
        <path d="M30,80.3795653 C30.4797197,80.3795653 43.2772033,64.9137759 52.3388983,51.8882117 C56.0121662,46.6081415 57.3579102,39.5885064 57.3579102,35.6691867 C57.3579102,20.5598301 45.1093566,8.31127655 30,8.31127655 C14.8906434,8.31127655 2.64208984,20.5598301 2.64208984,35.6691867 C2.64208984,39.6353159 4.4295186,46.6706728 8.211998,51.8882117 C18.9639732,66.7194491 29.522287,80.3795653 30,80.3795653 Z" id="path-1"></path>
        <filter x="-11.0%" y="-8.3%" width="121.9%" height="116.7%" filterUnits="objectBoundingBox" id="filter-2">
            <feOffset dx="0" dy="0" in="SourceAlpha" result="shadowOffsetOuter1"></feOffset>
            <feGaussianBlur stdDeviation="2" in="shadowOffsetOuter1" result="shadowBlurOuter1"></feGaussianBlur>
            <feColorMatrix values="0 0 0 0 0   0 0 0 0 0   0 0 0 0 0  0 0 0 0.5 0" type="matrix" in="shadowBlurOuter1"></feColorMatrix>
        </filter>
    </defs>
    <g id="MarkerDepartFromPAStationRed" stroke="none" stroke-width="1" fill="none" fill-rule="evenodd">
        <circle id="Oval" fill="#D91A26" cx="29.5791016" cy="79.4666667" r="6.93333333"></circle>
        <g id="Oval">
            <use fill="black" fill-opacity="1" filter="url(#filter-2)" xlink:href="#path-1"></use>
            <use fill="#FFFFFF" fill-rule="evenodd" xlink:href="#path-1"></use>
        </g>
        <circle id="Path" stroke="#D91A26" fill="#FFFFFF" cx="30" cy="35.6691867" r="22.4245165"></circle>
        <g id="Group-14-Copy-3" transform="translate(14.000000, 23.916016)" fill="#D91A26">
            <g id="Group-14-Copy-2" transform="translate(0.209961, 0.501953)">
                <path d="M25.7142559,13.3203659 L24.6592763,13.3203659 L24.6497564,10.8566317 L19.0261518,10.8766995 L19.0261518,13.3203659 L17.0852294,13.3203659 L17.0587267,6.1517828 L2.47040254,6.1958418 L2.47040254,16.5077415 L0.543991089,16.5077415 L0.543991089,3.97468663 L10.0909211,0.599853516 L19.0261518,3.97468663 L19.0261518,8.78161457 L20.8797396,7.98247453 L25.7142559,9.72957908 L25.7142559,13.3203659 Z M6.90381622,13.9554863 L9.44774628,13.9554863 L9.44774628,16.4994164 L6.90381622,16.4994164 L6.90381622,13.9554863 Z M3.72390366,10.7755737 L6.26783371,10.7755737 L6.26783371,13.3195038 L3.72390366,13.3195038 L3.72390366,10.7755737 Z M6.90381622,10.7755737 L9.44774628,10.7755737 L9.44774628,13.3195038 L6.90381622,13.3195038 L6.90381622,10.7755737 Z M10.0771523,13.9554863 L12.6210823,13.9554863 L12.6210823,16.4994164 L10.0771523,16.4994164 L10.0771523,13.9554863 Z M10.0837288,10.7755737 L12.6276588,10.7755737 L12.6276588,13.3195038 L10.0837288,13.3195038 L10.0837288,10.7755737 Z M13.3047371,10.7755737 L15.8486671,10.7755737 L15.8486671,13.3195038 L13.3047371,13.3195038 L13.3047371,10.7755737 Z M3.72390366,7.59566116 L6.26783371,7.59566116 L6.26783371,10.1395912 L3.72390366,10.1395912 L3.72390366,7.59566116 Z M3.72390366,13.9554863 L6.26783371,13.9554863 L6.26783371,16.4994164 L3.72390366,16.4994164 L3.72390366,13.9554863 Z" id="Combined-Shape"></path>
                <g id="Group-Copy-4" transform="translate(13.295103, 13.713399)">
                    <rect id="Rectangle" x="0.0127332327" y="0.241996318" width="13.886767" height="4.61317189"></rect>
                    <path d="M15.6896378,5.7669855 C15.5283485,5.2615288 15.085829,4.89251361 14.5584017,4.86710876 L14.5584017,1.31628879 L17.2288197,2.79849932 L17.2288197,5.7669855 L15.6896378,5.7669855 Z" id="Combined-Shape"></path>
                    <ellipse id="Oval" cx="2.70016723" cy="6.27626041" rx="1" ry="1"></ellipse>
                    <ellipse id="Oval" cx="4.686277" cy="6.27626041" rx="1" ry="1"></ellipse>
                    <ellipse id="Oval-Copy-2" cx="14.2962327" cy="6.27626041" rx="1" ry="1"></ellipse>
                </g>
            </g>
        </g>
    </g>
</svg>