<?xml version="1.0" encoding="UTF-8"?>
<svg width="60px" height="87px" viewBox="0 0 60 87" version="1.1" xmlns="http://www.w3.org/2000/svg" xmlns:xlink="http://www.w3.org/1999/xlink">
    <!-- Generator: Sketch 52.6 (67491) - http://www.bohemiancoding.com/sketch -->
    <title>MarkerExportHubRedLeft</title>
    <desc>Created with Sketch.</desc>
    <defs>
        <path d="M30,80.3795653 C30.4797197,80.3795653 43.2772033,64.9137759 52.3388983,51.8882117 C56.0121662,46.6081415 57.3579102,39.5885064 57.3579102,35.6691867 C57.3579102,20.5598301 45.1093566,8.31127655 30,8.31127655 C14.8906434,8.31127655 2.64208984,20.5598301 2.64208984,35.6691867 C2.64208984,39.6353159 4.4295186,46.6706728 8.211998,51.8882117 C18.9639732,66.7194491 29.522287,80.3795653 30,80.3795653 Z" id="path-1"></path>
        <filter x="-11.0%" y="-8.3%" width="121.9%" height="116.7%" filterUnits="objectBoundingBox" id="filter-2">
            <feOffset dx="0" dy="0" in="SourceAlpha" result="shadowOffsetOuter1"></feOffset>
            <feGaussianBlur stdDeviation="2" in="shadowOffsetOuter1" result="shadowBlurOuter1"></feGaussianBlur>
            <feColorMatrix values="0 0 0 0 0   0 0 0 0 0   0 0 0 0 0  0 0 0 0.5 0" type="matrix" in="shadowBlurOuter1"></feColorMatrix>
        </filter>
    </defs>
    <g id="MarkerExportHubRedLeft" stroke="none" stroke-width="1" fill="none" fill-rule="evenodd">
        <circle id="Oval" fill="#D91A26" cx="29.5791016" cy="79.4666667" r="6.93333333"></circle>
        <g id="Oval">
            <use fill="black" fill-opacity="1" filter="url(#filter-2)" xlink:href="#path-1"></use>
            <use fill="#FFFFFF" fill-rule="evenodd" xlink:href="#path-1"></use>
        </g>
        <circle id="Path" stroke="#D91A26" fill="#FFFFFF" cx="30.0316162" cy="35.7101413" r="22.4245165"></circle>
        <g id="Group-15" transform="translate(19.000000, 21.777344)">
            <g id="Group-Copy" transform="translate(7.000000, 2.721191) scale(-1, 1) translate(-7.000000, -2.721191) translate(0.500000, 0.221191)" fill="#D61925">
                <path d="M11.146661,4.712171 L3.25469754,4.63204588 C3.25469754,4.63204588 1.72654547,4.19027494 0.787421313,3.50091017 L0.15002959,2.0088505 L0.479192247,1.83993808 L2.2238987,3.41789766 L4.44935587,3.46048668 L3.51600649,0.918138272 L4.08554451,0.626511708 L7.35768118,3.47781103 L11.1250055,3.53050593 C11.1250055,3.53050593 12.1132153,3.72612672 12.1500296,4.16501026 C12.1500296,4.16501026 11.9457466,4.59523163 11.146661,4.712171 Z" id="Fill-1"></path>
            </g>
            <g id="Group-14-Copy-2" transform="translate(0.151132, 6.809705)" fill="#D91A26">
                <path d="M15.3443182,13.6148272 L13.1397638,12.3911934 L13.1397638,12.0490515 L15.3443182,12.0490515 L15.3443182,13.6148272 Z M16.4779025,14.2510409 L16.4779025,14.2440211 L15.8927679,13.9192432 L15.8927679,12.0464865 L18.0973224,12.0464865 L18.0973224,14.2510409 L16.4779025,14.2510409 Z M4.87040907,3.39975058 L13.1437212,0.475140505 L20.8869384,3.39975058 L20.8869384,14.2608205 L19.2150174,14.2226392 L19.1819796,5.28640902 L6.53982564,5.32459028 L6.53982564,11.4985009 L4.87040907,11.4985009 L4.87040907,3.39975058 Z M7.62610217,9.29335841 L9.83065664,9.29335841 L9.83065664,11.4979129 L7.62610217,11.4979129 L7.62610217,9.29335841 Z M10.3817953,9.29335841 L12.5863497,9.29335841 L12.5863497,11.4979129 L10.3817953,11.4979129 L10.3817953,9.29335841 Z M13.1374884,9.29335841 L15.3420428,9.29335841 L15.3420428,11.4979129 L13.1374884,11.4979129 L13.1374884,9.29335841 Z M15.8927679,9.29335841 L18.0973224,9.29335841 L18.0973224,11.4979129 L15.8927679,11.4979129 L15.8927679,9.29335841 Z M7.62610217,6.53766531 L9.83065664,6.53766531 L9.83065664,8.74221979 L7.62610217,8.74221979 L7.62610217,6.53766531 Z" id="Combined-Shape"></path>
                <g id="Group-Copy-6" transform="translate(0.547204, 11.844675)">
                    <rect id="Rectangle" x="0.0110345428" y="0.209712553" width="12.0341887" height="3.997747"></rect>
                    <path d="M13.557058,4.99763493 C13.4172857,4.5596092 13.0338009,4.23982285 12.5767356,4.21780717 L12.5767356,1.14068795 L14.7948392,2.42516267 L14.7948392,4.99763493 L13.557058,4.99763493 Z" id="Combined-Shape"></path>
                    <ellipse id="Oval" cx="2.33994868" cy="5.4389695" rx="1" ry="1"></ellipse>
                    <ellipse id="Oval" cx="4.06109945" cy="5.4389695" rx="1" ry="1"></ellipse>
                    <ellipse id="Oval-Copy-2" cx="12.3890292" cy="5.4389695" rx="1" ry="1"></ellipse>
                </g>
            </g>
        </g>
    </g>
</svg>