<?xml version="1.0" encoding="UTF-8"?>
<svg width="60px" height="87px" viewBox="0 0 60 87" version="1.1" xmlns="http://www.w3.org/2000/svg" xmlns:xlink="http://www.w3.org/1999/xlink">
    <!-- Generator: Sketch 52.6 (67491) - http://www.bohemiancoding.com/sketch -->
    <title>MarkerAWRGreen</title>
    <desc>Created with Sketch.</desc>
    <defs>
        <path d="M30,80.3795653 C30.4797197,80.3795653 43.2772033,64.9137759 52.3388983,51.8882117 C56.0121662,46.6081415 57.3579102,39.5885064 57.3579102,35.6691867 C57.3579102,20.5598301 45.1093566,8.31127655 30,8.31127655 C14.8906434,8.31127655 2.64208984,20.5598301 2.64208984,35.6691867 C2.64208984,39.6353159 4.4295186,46.6706728 8.211998,51.8882117 C18.9639732,66.7194491 29.522287,80.3795653 30,80.3795653 Z" id="path-1"></path>
        <filter x="-11.0%" y="-8.3%" width="121.9%" height="116.7%" filterUnits="objectBoundingBox" id="filter-2">
            <feOffset dx="0" dy="0" in="SourceAlpha" result="shadowOffsetOuter1"></feOffset>
            <feGaussianBlur stdDeviation="2" in="shadowOffsetOuter1" result="shadowBlurOuter1"></feGaussianBlur>
            <feColorMatrix values="0 0 0 0 0   0 0 0 0 0   0 0 0 0 0  0 0 0 0.5 0" type="matrix" in="shadowBlurOuter1"></feColorMatrix>
        </filter>
    </defs>
    <g id="MarkerAWRGreen" stroke="none" stroke-width="1" fill="none" fill-rule="evenodd">
        <circle id="Oval" fill="#41BE41" cx="29.5791016" cy="79.4666667" r="6.93333333"></circle>
        <g id="Oval">
            <use fill="black" fill-opacity="1" filter="url(#filter-2)" xlink:href="#path-1"></use>
            <use fill="#FFFFFF" fill-rule="evenodd" xlink:href="#path-1"></use>
        </g>
        <circle id="Path" stroke="#41BE41" fill="#FFFFFF" cx="30" cy="35.6691867" r="22.4245165"></circle>
        <g id="Group-21" transform="translate(18.000000, 21.345703)" fill="#41BE41">
            <path d="M19.8579545,16.5574847 C19.2785159,16.4003751 18.6689348,16.3165394 18.0397727,16.3165394 C14.2120972,16.3165394 11.1091531,19.4194835 11.1091531,23.2471591 C11.1091531,24.1458558 11.2802058,25.0046011 11.5915301,25.7926136 L5.22159091,25.7926136 C2.46016716,25.7926136 0.221590909,23.5540374 0.221590909,20.7926136 L0.221590909,5.33806818 C0.221590909,2.57664443 2.46016716,0.338068182 5.22159091,0.338068182 L14.8579545,0.338068182 C17.6193783,0.338068182 19.8579545,2.57664443 19.8579545,5.33806818 L19.8579545,16.5574847 Z M13.3125,0.338068182 C13.3125,0.908961756 13.3125,2.05374776 13.3125,3.7724262 C13.3125,5.49110463 14.3274826,6.3321175 16.3574479,6.2954648 L19.6297595,6.2954648 L13.3125,0.338068182 Z" id="Combined-Shape"></path>
            <path d="M18.0397727,28.7017045 C15.0273105,28.7017045 12.5852273,26.2596214 12.5852273,23.2471591 C12.5852273,20.2346968 15.0273105,17.7926136 18.0397727,17.7926136 C21.052235,17.7926136 23.4943182,20.2346968 23.4943182,23.2471591 C23.4943182,26.2596214 21.052235,28.7017045 18.0397727,28.7017045 Z M18.7168206,25.5970909 C18.7470388,25.5680582 18.7755385,25.5364592 18.8020154,25.5023316 L21.7260743,21.7133431 C22.0200637,21.3344045 21.9533465,20.7872105 21.5770572,20.4911512 C21.2007678,20.1950919 20.6573995,20.2622789 20.36341,20.6412175 L17.7401781,24.0403951 L15.5323176,22.8349101 C15.0919487,22.5944701 14.5288513,22.7371579 14.2746042,23.1536122 C14.0203572,23.5700665 14.1712387,24.1025846 14.6116075,24.3430246 L17.4674942,25.9023299 C17.9030835,26.1401603 18.4587518,26.0031343 18.7168206,25.5970909 Z" id="Combined-Shape"></path>
        </g>
    </g>
</svg>