<?xml version="1.0" encoding="UTF-8"?>
<svg width="60px" height="87px" viewBox="0 0 60 87" version="1.1" xmlns="http://www.w3.org/2000/svg" xmlns:xlink="http://www.w3.org/1999/xlink">
    <!-- Generator: Sketch 52.6 (67491) - http://www.bohemiancoding.com/sketch -->
    <title>MarkerTransshipmentPortRed</title>
    <desc>Created with Sketch.</desc>
    <defs>
        <path d="M30,80.3795653 C30.4797197,80.3795653 43.2772033,64.9137759 52.3388983,51.8882117 C56.0121662,46.6081415 57.3579102,39.5885064 57.3579102,35.6691867 C57.3579102,20.5598301 45.1093566,8.31127655 30,8.31127655 C14.8906434,8.31127655 2.64208984,20.5598301 2.64208984,35.6691867 C2.64208984,39.6353159 4.4295186,46.6706728 8.211998,51.8882117 C18.9639732,66.7194491 29.522287,80.3795653 30,80.3795653 Z" id="path-1"></path>
        <filter x="-11.0%" y="-8.3%" width="121.9%" height="116.7%" filterUnits="objectBoundingBox" id="filter-2">
            <feOffset dx="0" dy="0" in="SourceAlpha" result="shadowOffsetOuter1"></feOffset>
            <feGaussianBlur stdDeviation="2" in="shadowOffsetOuter1" result="shadowBlurOuter1"></feGaussianBlur>
            <feColorMatrix values="0 0 0 0 0   0 0 0 0 0   0 0 0 0 0  0 0 0 0.5 0" type="matrix" in="shadowBlurOuter1"></feColorMatrix>
        </filter>
    </defs>
    <g id="MarkerTransshipmentPortRed" stroke="none" stroke-width="1" fill="none" fill-rule="evenodd">
        <circle id="Oval" fill="#D91A26" cx="29.5791016" cy="79.4666667" r="6.93333333"></circle>
        <g id="Oval">
            <use fill="black" fill-opacity="1" filter="url(#filter-2)" xlink:href="#path-1"></use>
            <use fill="#FFFFFF" fill-rule="evenodd" xlink:href="#path-1"></use>
        </g>
        <circle id="Path" stroke="#D91A26" fill="#FFFFFF" cx="30" cy="35.6691867" r="22.4245165"></circle>
        <g id="Page-1" transform="translate(19.500000, 23.564453)">
            <path d="M0.374896296,16.9107481 C0.374896296,16.9107481 2.52926667,15.7944519 4.97126667,14.5983037 C6.39963704,13.8991926 6.97815556,13.8991926 7.49800741,13.8991926 C7.88178519,13.8991926 8.36904444,13.9309704 8.85467407,14.1248963 C12.0601556,15.4049704 12.6712667,15.6445259 12.6712667,15.6445259 C12.6712667,15.6445259 14.5233407,16.5310444 16.779563,15.8791926 C17.8054148,15.5834148 19.3291185,15.0431926 20.7045259,13.8991926" id="Stroke-3" stroke="#D91A26" stroke-width="2"></path>
            <path d="M0.374896296,13.6514889 C0.374896296,13.6514889 2.52926667,12.5351926 4.97126667,11.3390444 C6.39963704,10.6399333 6.97815556,10.6399333 7.49800741,10.6399333 C7.88178519,10.6399333 8.36904444,10.6717111 8.85467407,10.865637 C12.0601556,12.1457111 12.6712667,12.3852667 12.6712667,12.3852667 C12.6712667,12.3852667 14.5233407,13.2717852 16.779563,12.6199333 C17.8054148,12.3241556 19.3291185,11.7839333 20.7045259,10.6399333" id="Stroke-3-Copy-2" stroke="#D91A26" stroke-width="2"></path>
            <path d="M0.668474074,19.8708074 C0.668474074,19.8708074 2.82284444,18.7545111 5.26484444,17.5591778 C6.69321481,16.8600667 7.27091852,16.8600667 7.79158519,16.8600667 C8.17536296,16.8600667 8.66262222,16.8910296 9.14825185,17.0849556 C12.3537333,18.3658444 12.9648444,18.6045852 12.9648444,18.6045852 C12.9648444,18.6045852 14.8161037,19.4911037 17.0731407,18.8400667 C18.0989926,18.5442889 19.6226963,18.0040667 20.9981037,16.8600667" id="Stroke-5" stroke="#D91A26" stroke-width="2"></path>
            <g id="Group-9" transform="translate(2.444444, 0.598319)">
                <polygon id="Clip-8" points="0.800962963 0.216740741 15.7560741 0.216740741 15.7560741 20.3703704 0.800962963 20.3703704"></polygon>
                <path d="M15.7560741,7.69405185 C15.7560741,11.8235333 9.18459259,20.3709407 8.27851852,20.3709407 C7.27222222,20.3709407 0.800962963,11.8235333 0.800962963,7.69405185 C0.800962963,3.56457037 4.14903704,0.216496296 8.27851852,0.216496296 C12.4088148,0.216496296 15.7560741,3.56457037 15.7560741,7.69405185" id="Fill-7" fill="#D91A26"></path>
            </g>
            <polygon id="Fill-10" fill="#FEFEFE" points="15.8809852 9.0076963 12.8392815 9.0076963 14.3605407 7.48725185"></polygon>
            <polygon id="Fill-12" fill="#FEFEFE" points="8.60737778 9.0076963 5.56567407 9.0076963 7.08693333 7.48725185"></polygon>
            <path d="M14.3603778,9.0076963 C14.3603778,11.0162148 12.731563,12.6450296 10.7230444,12.6450296 C8.71452593,12.6450296 7.08652593,11.0162148 7.08652593,9.0076963" id="Stroke-14" stroke="#FEFEFE" stroke-width="1.5"></path>
            <polygon id="Fill-16" fill="#FEFEFE" points="10.1786667 12.2917259 11.4562963 12.2917259 11.4562963 5.32668889 10.1786667 5.32668889"></polygon>
            <path d="M9.18581481,5.32668889 C9.18581481,4.42631852 9.91588889,3.69624444 10.8170741,3.69624444 C11.7174444,3.69624444 12.4483333,4.42631852 12.4483333,5.32668889 C12.4483333,6.22705926 11.7174444,6.95794815 10.8170741,6.95794815 C9.91588889,6.95794815 9.18581481,6.22705926 9.18581481,5.32668889" id="Fill-18" fill="#FEFEFE"></path>
            <path d="M10.1892593,5.32668889 C10.1892593,4.97957778 10.4703704,4.69846667 10.8174815,4.69846667 C11.1637778,4.69846667 11.4457037,4.97957778 11.4457037,5.32668889 C11.4457037,5.6738 11.1637778,5.95491111 10.8174815,5.95491111 C10.4703704,5.95491111 10.1892593,5.6738 10.1892593,5.32668889" id="Fill-19" fill="#D91A26"></path>
        </g>
    </g>
</svg>