<?xml version="1.0" encoding="UTF-8"?>
<svg width="60px" height="87px" viewBox="0 0 60 87" version="1.1" xmlns="http://www.w3.org/2000/svg" xmlns:xlink="http://www.w3.org/1999/xlink">
    <!-- Generator: Sketch 52.6 (67491) - http://www.bohemiancoding.com/sketch -->
    <title>MarkerRCFRed</title>
    <desc>Created with Sketch.</desc>
    <defs>
        <path d="M30,80.3795653 C30.4797197,80.3795653 43.2772033,64.9137759 52.3388983,51.8882117 C56.0121662,46.6081415 57.3579102,39.5885064 57.3579102,35.6691867 C57.3579102,20.5598301 45.1093566,8.31127655 30,8.31127655 C14.8906434,8.31127655 2.64208984,20.5598301 2.64208984,35.6691867 C2.64208984,39.6353159 4.4295186,46.6706728 8.211998,51.8882117 C18.9639732,66.7194491 29.522287,80.3795653 30,80.3795653 Z" id="path-1"></path>
        <filter x="-11.0%" y="-8.3%" width="121.9%" height="116.7%" filterUnits="objectBoundingBox" id="filter-2">
            <feOffset dx="0" dy="0" in="SourceAlpha" result="shadowOffsetOuter1"></feOffset>
            <feGaussianBlur stdDeviation="2" in="shadowOffsetOuter1" result="shadowBlurOuter1"></feGaussianBlur>
            <feColorMatrix values="0 0 0 0 0   0 0 0 0 0   0 0 0 0 0  0 0 0 0.5 0" type="matrix" in="shadowBlurOuter1"></feColorMatrix>
        </filter>
    </defs>
    <g id="MarkerRCFRed" stroke="none" stroke-width="1" fill="none" fill-rule="evenodd">
        <circle id="Oval" fill="#D91A26" cx="29.5791016" cy="79.4666667" r="6.93333333"></circle>
        <g id="Oval">
            <use fill="black" fill-opacity="1" filter="url(#filter-2)" xlink:href="#path-1"></use>
            <use fill="#FFFFFF" fill-rule="evenodd" xlink:href="#path-1"></use>
        </g>
        <circle id="Path" stroke="#D91A26" fill="#FFFFFF" cx="30" cy="35.6691867" r="22.4245165"></circle>
        <g id="Group-7" transform="translate(17.000000, 26.931641)" fill="#D91A26">
            <path d="M3.46847747,9.55986555 L22.8173147,9.55986555 C24.4870128,9.55986555 25.8405705,10.9134233 25.8405705,12.5831214 C25.8405705,14.2528194 24.4870128,15.6063772 22.8173147,15.6063772 L3.46847747,15.6063772 C1.79877939,15.6063772 0.445221657,14.2528194 0.445221657,12.5831214 C0.445221657,10.9134233 1.79877939,9.55986555 3.46847747,9.55986555 Z M3.46847747,14.3970749 C4.47029632,14.3970749 5.28243096,13.5849402 5.28243096,12.5831214 C5.28243096,11.5813025 4.47029632,10.7691679 3.46847747,10.7691679 C2.46665862,10.7691679 1.65452398,11.5813025 1.65452398,12.5831214 C1.65452398,13.5849402 2.46665862,14.3970749 3.46847747,14.3970749 Z M22.8173147,14.3970749 C23.8191335,14.3970749 24.6312682,13.5849402 24.6312682,12.5831214 C24.6312682,11.5813025 23.8191335,10.7691679 22.8173147,10.7691679 C21.8154958,10.7691679 21.0033612,11.5813025 21.0033612,12.5831214 C21.0033612,13.5849402 21.8154958,14.3970749 22.8173147,14.3970749 Z M17.9801054,14.3970749 C18.9819242,14.3970749 19.7940589,13.5849402 19.7940589,12.5831214 C19.7940589,11.5813025 18.9819242,10.7691679 17.9801054,10.7691679 C16.9782865,10.7691679 16.1661519,11.5813025 16.1661519,12.5831214 C16.1661519,13.5849402 16.9782865,14.3970749 17.9801054,14.3970749 Z M8.30568677,14.3970749 C9.30750562,14.3970749 10.1196403,13.5849402 10.1196403,12.5831214 C10.1196403,11.5813025 9.30750562,10.7691679 8.30568677,10.7691679 C7.30386792,10.7691679 6.49173328,11.5813025 6.49173328,12.5831214 C6.49173328,13.5849402 7.30386792,14.3970749 8.30568677,14.3970749 Z M13.1428961,14.3970749 C14.1447149,14.3970749 14.9568496,13.5849402 14.9568496,12.5831214 C14.9568496,11.5813025 14.1447149,10.7691679 13.1428961,10.7691679 C12.1410772,10.7691679 11.3289426,11.5813025 11.3289426,12.5831214 C11.3289426,13.5849402 12.1410772,14.3970749 13.1428961,14.3970749 Z" id="Combined-Shape"></path>
            <rect id="Rectangle-14-Copy" x="4.6777798" y="0.49009811" width="8.46511628" height="7.86046512"></rect>
            <polyline id="Fill-94-Copy" points="19.1894077 6.02848421 14.9568496 6.02848421 14.9568496 2.68364004 19.1894077 2.68364004 19.1894077 1.09474927 23.4219658 4.29033067 19.1894077 7.45064075 19.1894077 5.32730741"></polyline>
        </g>
    </g>
</svg>