<?xml version="1.0" encoding="UTF-8"?>
<svg width="60px" height="87px" viewBox="0 0 60 87" version="1.1" xmlns="http://www.w3.org/2000/svg" xmlns:xlink="http://www.w3.org/1999/xlink">
    <!-- Generator: Sketch 52.6 (67491) - http://www.bohemiancoding.com/sketch -->
    <title>MarkerFirstControlTowerTruckGreen</title>
    <desc>Created with Sketch.</desc>
    <defs>
        <path d="M30,80.3795653 C30.4797197,80.3795653 43.2772033,64.9137759 52.3388983,51.8882117 C56.0121662,46.6081415 57.3579102,39.5885064 57.3579102,35.6691867 C57.3579102,20.5598301 45.1093566,8.31127655 30,8.31127655 C14.8906434,8.31127655 2.64208984,20.5598301 2.64208984,35.6691867 C2.64208984,39.6353159 4.4295186,46.6706728 8.211998,51.8882117 C18.9639732,66.7194491 29.522287,80.3795653 30,80.3795653 Z" id="path-1"></path>
        <filter x="-11.0%" y="-8.3%" width="121.9%" height="116.7%" filterUnits="objectBoundingBox" id="filter-2">
            <feOffset dx="0" dy="0" in="SourceAlpha" result="shadowOffsetOuter1"></feOffset>
            <feGaussianBlur stdDeviation="2" in="shadowOffsetOuter1" result="shadowBlurOuter1"></feGaussianBlur>
            <feColorMatrix values="0 0 0 0 0   0 0 0 0 0   0 0 0 0 0  0 0 0 0.5 0" type="matrix" in="shadowBlurOuter1"></feColorMatrix>
        </filter>
    </defs>
    <g id="MarkerFirstControlTowerTruckGreen" stroke="none" stroke-width="1" fill="none" fill-rule="evenodd">
        <circle id="Oval" fill="#41BE41" cx="29.5791016" cy="79.4666667" r="6.93333333"></circle>
        <g id="Oval">
            <use fill="black" fill-opacity="1" filter="url(#filter-2)" xlink:href="#path-1"></use>
            <use fill="#FFFFFF" fill-rule="evenodd" xlink:href="#path-1"></use>
        </g>
        <circle id="Path" stroke="#41BE41" fill="#FFFFFF" cx="30.2104492" cy="35.7019015" r="22.4245165"></circle>
        <g id="Group-20" transform="translate(15.000000, 21.725586)" fill="#41BE41">
            <path d="M20.0799503,25.2443818 L20.0799503,22.2250292 L20.0784907,22.2250292 L20.0812731,22.2202099 L17.422129,20.6849523 L17.422129,15.2171551 L13.698041,15.2171551 L10.2942855,8.32056382 L14.9962593,8.32056382 L12.6697879,3.60732897 L19.5244223,3.60732897 L19.5244223,1.12323774 L16.2605228,1.12323774 L16.2605228,0.00884409142 L23.9018247,0.00884409142 L23.9018247,1.12323774 L20.6379252,1.12323774 L20.6379252,3.60732897 L27.4936286,3.60732897 L25.1663533,8.32056382 L29.8687747,8.32056382 L26.4650192,15.2171551 L22.7411094,15.2171551 L22.7411094,25.2443818 L20.0799503,25.2443818 Z" id="Combined-Shape"></path>
            <g id="Group-Copy-6" transform="translate(0.426437, 19.507961)">
                <rect id="Rectangle" x="0.0141489102" y="0.249344321" width="15.4306941" height="5.12606312"></rect>
                <path d="M17.3833749,6.38860034 C17.2041536,5.8269471 16.7124348,5.4169049 16.1263683,5.38867555 L16.1263683,1.44307635 L18.970505,3.09007865 L18.970505,6.38860034 L17.3833749,6.38860034 Z" id="Combined-Shape"></path>
                <ellipse id="Oval" cx="3.00037111" cy="6.9544963" rx="1" ry="1"></ellipse>
                <ellipse id="Oval" cx="5.20729604" cy="6.9544963" rx="1" ry="1"></ellipse>
                <ellipse id="Oval-Copy-2" cx="15.8856841" cy="6.9544963" rx="1" ry="1"></ellipse>
            </g>
        </g>
    </g>
</svg>