<?xml version="1.0" encoding="UTF-8"?>
<svg width="60px" height="87px" viewBox="0 0 60 87" version="1.1" xmlns="http://www.w3.org/2000/svg" xmlns:xlink="http://www.w3.org/1999/xlink">
    <!-- Generator: Sketch 52.6 (67491) - http://www.bohemiancoding.com/sketch -->
    <title>MarkerARRGreen</title>
    <desc>Created with Sketch.</desc>
    <defs>
        <path d="M30,80.3795653 C30.4797197,80.3795653 43.2772033,64.9137759 52.3388983,51.8882117 C56.0121662,46.6081415 57.3579102,39.5885064 57.3579102,35.6691867 C57.3579102,20.5598301 45.1093566,8.31127655 30,8.31127655 C14.8906434,8.31127655 2.64208984,20.5598301 2.64208984,35.6691867 C2.64208984,39.6353159 4.4295186,46.6706728 8.211998,51.8882117 C18.9639732,66.7194491 29.522287,80.3795653 30,80.3795653 Z" id="path-1"></path>
        <filter x="-11.0%" y="-8.3%" width="121.9%" height="116.7%" filterUnits="objectBoundingBox" id="filter-2">
            <feOffset dx="0" dy="0" in="SourceAlpha" result="shadowOffsetOuter1"></feOffset>
            <feGaussianBlur stdDeviation="2" in="shadowOffsetOuter1" result="shadowBlurOuter1"></feGaussianBlur>
            <feColorMatrix values="0 0 0 0 0   0 0 0 0 0   0 0 0 0 0  0 0 0 0.5 0" type="matrix" in="shadowBlurOuter1"></feColorMatrix>
        </filter>
        <polygon id="path-3" points="29.436 0.0004 29.436 9.94066667 0 9.94066667 0 0 29.436 0 6.66666667e-05 0.0004 6.66666667e-05 9.94092271 29.4367333 9.94092271 29.4367333 0.0004"></polygon>
    </defs>
    <g id="MarkerARRGreen" stroke="none" stroke-width="1" fill="none" fill-rule="evenodd">
        <circle id="Oval" fill="#41BE41" cx="29.5791016" cy="79.4666667" r="6.93333333"></circle>
        <g id="Oval">
            <use fill="black" fill-opacity="1" filter="url(#filter-2)" xlink:href="#path-1"></use>
            <use fill="#FFFFFF" fill-rule="evenodd" xlink:href="#path-1"></use>
        </g>
        <circle id="Path" stroke="#41BE41" fill="#FFFFFF" cx="30" cy="35.6691867" r="22.4245165"></circle>
        <g id="Page-1-Copy" transform="translate(30.000000, 35.227051) rotate(39.000000) translate(-30.000000, -35.227051) translate(15.000000, 30.227051)">
            <path d="M27.5640667,3.7124 L9.2894,9.91506667 C9.2894,9.91506667 5.40606667,10.1330667 2.68006667,9.30306667 L6.66666667e-05,6.37706667 L0.6234,5.72173333 L5.92673333,7.94906667 L11.0960667,6.24573333 L6.88473333,1.13573333 L7.96206667,0.0004 L17.8227333,3.93106667 L26.5574,1.0044 C26.5574,1.0044 28.9947333,0.655066667 29.4367333,1.6384 C29.4367333,1.6384 29.3134,2.79506667 27.5640667,3.7124" id="Fill-1" fill="#40BC40"></path>
            <mask id="mask-4" fill="white">
                <use xlink:href="#path-3"></use>
            </mask>
            <g id="Clip-2"></g>
        </g>
    </g>
</svg>