<?xml version="1.0" encoding="UTF-8"?>
<svg width="60px" height="87px" viewBox="0 0 60 87" version="1.1" xmlns="http://www.w3.org/2000/svg" xmlns:xlink="http://www.w3.org/1999/xlink">
    <!-- Generator: Sketch 52.6 (67491) - http://www.bohemiancoding.com/sketch -->
    <title>MarkePortRed</title>
    <desc>Created with Sketch.</desc>
    <defs>
        <path d="M30,80.3795653 C30.4797197,80.3795653 43.2772033,64.9137759 52.3388983,51.8882117 C56.0121662,46.6081415 57.3579102,39.5885064 57.3579102,35.6691867 C57.3579102,20.5598301 45.1093566,8.31127655 30,8.31127655 C14.8906434,8.31127655 2.64208984,20.5598301 2.64208984,35.6691867 C2.64208984,39.6353159 4.4295186,46.6706728 8.211998,51.8882117 C18.9639732,66.7194491 29.522287,80.3795653 30,80.3795653 Z" id="path-1"></path>
        <filter x="-11.0%" y="-8.3%" width="121.9%" height="116.7%" filterUnits="objectBoundingBox" id="filter-2">
            <feOffset dx="0" dy="0" in="SourceAlpha" result="shadowOffsetOuter1"></feOffset>
            <feGaussianBlur stdDeviation="2" in="shadowOffsetOuter1" result="shadowBlurOuter1"></feGaussianBlur>
            <feColorMatrix values="0 0 0 0 0   0 0 0 0 0   0 0 0 0 0  0 0 0 0.5 0" type="matrix" in="shadowBlurOuter1"></feColorMatrix>
        </filter>
    </defs>
    <g id="MarkePortRed" stroke="none" stroke-width="1" fill="none" fill-rule="evenodd">
        <circle id="Oval" fill="#D91A26" cx="29.5791016" cy="79.4666667" r="6.93333333"></circle>
        <g id="Oval">
            <use fill="black" fill-opacity="1" filter="url(#filter-2)" xlink:href="#path-1"></use>
            <use fill="#FFFFFF" fill-rule="evenodd" xlink:href="#path-1"></use>
        </g>
        <circle id="Path" stroke="#D91A26" fill="#FFFFFF" cx="30" cy="35.6691867" r="22.4245165"></circle>
        <g id="Page-1-Copy" transform="translate(21.894737, 24.117188)">
            <g id="symbol">
                <path d="M15.7838928,8.06164615 C15.7838928,12.3499538 8.84819545,21.2252615 7.89190339,21.2252615 C6.82983443,21.2252615 -8.59974869e-05,12.3499538 -8.59974869e-05,8.06164615 C-8.59974869e-05,3.77333846 3.53355075,0.295646154 7.89190339,0.295646154 C12.251116,0.295646154 15.7838928,3.77333846 15.7838928,8.06164615" id="Fill-1" fill="#D01824"></path>
                <polygon id="Fill-4" fill="#FEFEFE" points="13.3358023 8.84339453 10.1255161 8.84339453 11.7302292 7.26447145"></polygon>
                <polygon id="Fill-6" fill="#FEFEFE" points="5.65906464 8.84339453 2.44877844 8.84339453 4.05349155 7.26447145"></polygon>
                <path d="M11.7301432,8.80448462 C11.7301432,10.8902538 10.0119134,12.5808692 7.89207539,12.5808692 C5.77223733,12.5808692 4.05314756,10.8902538 4.05314756,8.80448462" id="Stroke-8" stroke="#FEFEFE" stroke-width="1.5"></path>
                <path d="M7.31752618,6.54122652 C6.70142863,6.28311104 6.2696468,5.6818176 6.2696468,4.9819 C6.2696468,4.0469 7.04018428,3.2879 7.99131649,3.2879 C8.94158872,3.2879 9.71298618,4.0469 9.71298618,4.9819 C9.71298618,5.68135411 9.28129474,6.28231465 8.66596677,6.54071329 L8.66596677,12.2144846 L7.31752618,12.2144846 L7.31752618,6.54122652 Z M7.32775988,4.9819 C7.32775988,5.34236154 7.62531118,5.63428462 7.9908005,5.63428462 C8.3571498,5.63428462 8.65384113,5.34236154 8.65384113,4.9819 C8.65384113,4.62143846 8.3571498,4.32951538 7.9908005,4.32951538 C7.62531118,4.32951538 7.32775988,4.62143846 7.32775988,4.9819 Z" id="Combined-Shape" fill="#FEFEFE"></path>
            </g>
        </g>
        <g id="symbol" transform="translate(21.000000, 23.429199)">
            <path d="M17.7568794,9.06935192 C17.7568794,13.8936981 9.95421988,23.8784192 8.87839132,23.8784192 C7.68356373,23.8784192 -9.67471728e-05,13.8936981 -9.67471728e-05,9.06935192 C-9.67471728e-05,4.24500577 3.97524459,0.332601923 8.87839132,0.332601923 C13.7825055,0.332601923 17.7568794,4.24500577 17.7568794,9.06935192" id="Fill-1" fill="#D01824"></path>
            <polygon id="Fill-4" fill="#FEFEFE" points="15.0027776 9.94881884 11.3912056 9.94881884 13.1965079 8.17253038"></polygon>
            <polygon id="Fill-6" fill="#FEFEFE" points="6.36644772 9.94881884 2.75487575 9.94881884 4.560178 8.17253038"></polygon>
            <path d="M13.1964111,9.90504519 C13.1964111,12.2515356 11.2634026,14.1534779 8.87858481,14.1534779 C6.493767,14.1534779 4.55979101,12.2515356 4.55979101,9.90504519" id="Stroke-8" stroke="#FEFEFE" stroke-width="1.5"></path>
            <path d="M8.23221695,7.35887983 C7.53910721,7.06849992 7.05335265,6.39204479 7.05335265,5.6046375 C7.05335265,4.5527625 7.92020732,3.6988875 8.99023105,3.6988875 C10.0592873,3.6988875 10.9271095,4.5527625 10.9271095,5.6046375 C10.9271095,6.39152337 10.4414566,7.06760398 9.74921262,7.35830245 L9.74921262,13.7412952 L8.23221695,13.7412952 L8.23221695,7.35887983 Z M8.24372986,5.6046375 C8.24372986,6.01015673 8.57847508,6.33857019 8.98965057,6.33857019 C9.40179352,6.33857019 9.73557127,6.01015673 9.73557127,5.6046375 C9.73557127,5.19911827 9.40179352,4.87070481 8.98965057,4.87070481 C8.57847508,4.87070481 8.24372986,5.19911827 8.24372986,5.6046375 Z" id="Combined-Shape" fill="#FEFEFE"></path>
        </g>
    </g>
</svg>