<?xml version="1.0" encoding="UTF-8"?>
<svg width="60px" height="87px" viewBox="0 0 60 87" version="1.1" xmlns="http://www.w3.org/2000/svg" xmlns:xlink="http://www.w3.org/1999/xlink">
    <!-- Generator: Sketch 52.6 (67491) - http://www.bohemiancoding.com/sketch -->
    <title>MarkerArriveAtPAStationRed</title>
    <desc>Created with Sketch.</desc>
    <defs>
        <path d="M30,80.3795653 C30.4797197,80.3795653 43.2772033,64.9137759 52.3388983,51.8882117 C56.0121662,46.6081415 57.3579102,39.5885064 57.3579102,35.6691867 C57.3579102,20.5598301 45.1093566,8.31127655 30,8.31127655 C14.8906434,8.31127655 2.64208984,20.5598301 2.64208984,35.6691867 C2.64208984,39.6353159 4.4295186,46.6706728 8.211998,51.8882117 C18.9639732,66.7194491 29.522287,80.3795653 30,80.3795653 Z" id="path-1"></path>
        <filter x="-11.0%" y="-8.3%" width="121.9%" height="116.7%" filterUnits="objectBoundingBox" id="filter-2">
            <feOffset dx="0" dy="0" in="SourceAlpha" result="shadowOffsetOuter1"></feOffset>
            <feGaussianBlur stdDeviation="2" in="shadowOffsetOuter1" result="shadowBlurOuter1"></feGaussianBlur>
            <feColorMatrix values="0 0 0 0 0   0 0 0 0 0   0 0 0 0 0  0 0 0 0.5 0" type="matrix" in="shadowBlurOuter1"></feColorMatrix>
        </filter>
    </defs>
    <g id="MarkerArriveAtPAStationRed" stroke="none" stroke-width="1" fill="none" fill-rule="evenodd">
        <circle id="Oval" fill="#D91A26" cx="29.5791016" cy="79.4666667" r="6.93333333"></circle>
        <g id="Oval">
            <use fill="black" fill-opacity="1" filter="url(#filter-2)" xlink:href="#path-1"></use>
            <use fill="#FFFFFF" fill-rule="evenodd" xlink:href="#path-1"></use>
        </g>
        <circle id="Path" stroke="#D91A26" fill="#FFFFFF" cx="29.8876953" cy="35.7783989" r="22.4245165"></circle>
        <g id="Group-15-Copy" transform="translate(15.000000, 24.675456)" fill="#D91A26">
            <g id="Group-14-Copy-2" transform="translate(0.163052, 0.340837)">
                <path d="M16.0218199,14.6886516 L13.6433885,13.3685077 L13.6433885,12.9993805 L16.0218199,12.9993805 L16.0218199,14.6886516 Z M17.2448119,15.3750446 L17.2448119,15.367471 L16.6135267,15.0170774 L16.6135267,12.9966132 L18.9919581,12.9966132 L18.9919581,15.3750446 L17.2448119,15.3750446 Z M22.0015958,7.99633328 L24.0240603,7.1243852 L28.8585766,8.87148975 L28.8585766,15.3596793 L27.8147044,15.3368706 L27.7940771,9.9985424 L22.0015958,10.0192128 L22.0015958,15.3855954 L20.1978076,15.3598229 L20.1621641,5.70335701 L6.52290215,5.74454969 L6.52290215,12.405407 L4.72181588,12.405407 L4.72181588,3.66789463 L13.6476581,0.512615638 L22.0015958,3.66789463 L22.0015958,7.99633328 Z M7.69485513,10.0263413 L10.0732865,10.0263413 L10.0732865,12.4047727 L7.69485513,12.4047727 L7.69485513,10.0263413 Z M10.6678944,10.0263413 L13.0463258,10.0263413 L13.0463258,12.4047727 L10.6678944,12.4047727 L10.6678944,10.0263413 Z M13.6409336,10.0263413 L16.019365,10.0263413 L16.019365,12.4047727 L13.6409336,12.4047727 L13.6409336,10.0263413 Z M16.6135267,10.0263413 L18.9919581,10.0263413 L18.9919581,12.4047727 L16.6135267,12.4047727 L16.6135267,10.0263413 Z M7.69485513,7.053302 L10.0732865,7.053302 L10.0732865,9.4317334 L7.69485513,9.4317334 L7.69485513,7.053302 Z" id="Combined-Shape"></path>
                <g id="Group-Copy-6" transform="translate(0.057632, 12.778885)">
                    <rect id="Rectangle" x="0.0119048558" y="0.226252936" width="12.9833455" height="4.31305604"></rect>
                    <path d="M14.626326,5.39180682 C14.4755296,4.91923326 14.0617988,4.57422483 13.5686839,4.55047273 L13.5686839,1.23065593 L15.9617331,2.61643934 L15.9617331,5.39180682 L14.626326,5.39180682 Z" id="Combined-Shape"></path>
                    <ellipse id="Oval" cx="2.52450437" cy="5.8679502" rx="1" ry="1"></ellipse>
                    <ellipse id="Oval" cx="4.38140521" cy="5.8679502" rx="1" ry="1"></ellipse>
                    <ellipse id="Oval-Copy-2" cx="13.3661728" cy="5.8679502" rx="1" ry="1"></ellipse>
                </g>
            </g>
        </g>
    </g>
</svg>