<?xml version="1.0" encoding="UTF-8"?>
<svg width="60px" height="87px" viewBox="0 0 60 87" version="1.1" xmlns="http://www.w3.org/2000/svg" xmlns:xlink="http://www.w3.org/1999/xlink">
    <!-- Generator: Sketch 52.6 (67491) - http://www.bohemiancoding.com/sketch -->
    <title>MarkerValidEDIGrey</title>
    <desc>Created with Sketch.</desc>
    <defs>
        <path d="M30,80.3795653 C30.4797197,80.3795653 43.2772033,64.9137759 52.3388983,51.8882117 C56.0121662,46.6081415 57.3579102,39.5885064 57.3579102,35.6691867 C57.3579102,20.5598301 45.1093566,8.31127655 30,8.31127655 C14.8906434,8.31127655 2.64208984,20.5598301 2.64208984,35.6691867 C2.64208984,39.6353159 4.4295186,46.6706728 8.211998,51.8882117 C18.9639732,66.7194491 29.522287,80.3795653 30,80.3795653 Z" id="path-1"></path>
        <filter x="-11.0%" y="-8.3%" width="121.9%" height="116.7%" filterUnits="objectBoundingBox" id="filter-2">
            <feOffset dx="0" dy="0" in="SourceAlpha" result="shadowOffsetOuter1"></feOffset>
            <feGaussianBlur stdDeviation="2" in="shadowOffsetOuter1" result="shadowBlurOuter1"></feGaussianBlur>
            <feColorMatrix values="0 0 0 0 0   0 0 0 0 0   0 0 0 0 0  0 0 0 0.5 0" type="matrix" in="shadowBlurOuter1"></feColorMatrix>
        </filter>
    </defs>
    <g id="MarkerValidEDIGrey" stroke="none" stroke-width="1" fill="none" fill-rule="evenodd">
        <circle id="Oval" fill="#C8C8C8" cx="29.5791016" cy="79.4666667" r="6.93333333"></circle>
        <g id="Oval">
            <use fill="black" fill-opacity="1" filter="url(#filter-2)" xlink:href="#path-1"></use>
            <use fill="#FFFFFF" fill-rule="evenodd" xlink:href="#path-1"></use>
        </g>
        <circle id="Path" stroke="#C8C8C8" fill="#FFFFFF" cx="30" cy="35.6691867" r="22.4245165"></circle>
        <path d="M34.4581867,38.5066053 L34.4581867,32.67165 L32.8930925,32.67165 L32.8930925,39.1506829 C30.7063248,40.3728895 29.2277985,42.7107093 29.2277985,45.3938574 C29.2277985,46.3206384 29.4041966,47.2062195 29.7252498,48.0188574 L23,48.0188574 C20.2385763,48.0188574 18,45.7802812 18,43.0188574 L18,26.7688574 C18,24.0074337 20.2385763,21.7688574 23,21.7688574 L33.25,21.7688574 C36.0114237,21.7688574 38.25,24.0074337 38.25,26.7688574 L38.25,38.4951307 C37.6524539,38.3331114 37.0238233,38.2466559 36.375,38.2466559 C35.7110244,38.2466559 35.0681957,38.3371966 34.4581867,38.5066053 Z M31.5,21.7688574 C31.5,22.3575914 31.5,23.538152 31.5,25.3105391 C31.5,27.0829263 32.5467009,27.9502208 34.6401026,27.9124227 L38.0146739,27.9124227 L31.5,21.7688574 Z M36.375,51.0188574 C33.2683983,51.0188574 30.75,48.5004591 30.75,45.3938574 C30.75,42.2872557 33.2683983,39.7688574 36.375,39.7688574 C39.4816017,39.7688574 42,42.2872557 42,45.3938574 C42,48.5004591 39.4816017,51.0188574 36.375,51.0188574 Z M37.0732056,47.8172246 C37.1043681,47.7872846 37.1337584,47.7546982 37.1610628,47.7195041 L40.1764985,43.8121097 C40.4796751,43.4213292 40.410873,42.8570354 40.0228246,42.5517243 C39.6347762,42.2464131 39.0744276,42.3156997 38.7712509,42.7064801 L36.0660431,46.2118821 L33.7891869,44.9687257 C33.3350565,44.7207719 32.7543623,44.8679187 32.49217,45.2973872 C32.2299777,45.7268557 32.3855742,46.276015 32.8397046,46.5239688 L35.7848378,48.1320023 C36.2340393,48.3772649 36.8070721,48.2359569 37.0732056,47.8172246 Z M25.7786216,36.4234043 L25.7786216,35.2562912 L23.3102445,35.2562912 L23.3102445,33.8834801 L26.2347347,33.8834801 L26.2347347,32.67165 L21.7406786,32.67165 L21.7406786,39.1824418 L26.2257913,39.1824418 L26.2257913,37.9750834 L23.3102445,37.9750834 L23.3102445,36.4234043 L25.7786216,36.4234043 Z M26.8652441,39.1824418 L29.0071873,39.1824418 C29.570624,39.1794606 30.0811377,39.0445658 30.5387437,38.7777531 C30.9963497,38.5109405 31.3511008,38.1412839 31.6030077,37.6687721 C31.8549146,37.1962604 31.9808662,36.6618978 31.9808662,36.0656685 L31.9808662,35.7660648 C31.977885,35.1757977 31.8474618,34.6429258 31.5895926,34.1674329 C31.3317235,33.69194 30.973246,33.3237739 30.5141494,33.0629235 C30.0550528,32.8020732 29.5378316,32.67165 28.9624703,32.67165 L26.8652441,32.67165 L26.8652441,39.1824418 Z M28.43481,33.8834801 L28.9624703,33.8834801 C29.424548,33.8834801 29.776318,34.042969 30.0177909,34.3619517 C30.2592638,34.6809344 30.3799984,35.1549296 30.3799984,35.7839516 L30.3799984,36.0656685 C30.3799984,36.6976716 30.2592638,37.1739026 30.0177909,37.4943759 C29.776318,37.8148492 29.4305102,37.9750834 28.9803571,37.9750834 L28.43481,37.9750834 L28.43481,33.8834801 Z" id="Combined-Shape" fill="#C8C8C8"></path>
    </g>
</svg>