<?xml version="1.0" encoding="UTF-8"?>
<svg width="60px" height="87px" viewBox="0 0 60 87" version="1.1" xmlns="http://www.w3.org/2000/svg" xmlns:xlink="http://www.w3.org/1999/xlink">
    <!-- Generator: Sketch 52.6 (67491) - http://www.bohemiancoding.com/sketch -->
    <title>MarkerRCFGrey</title>
    <desc>Created with Sketch.</desc>
    <defs>
        <path d="M30,80.3795653 C30.4797197,80.3795653 43.2772033,64.9137759 52.3388983,51.8882117 C56.0121662,46.6081415 57.3579102,39.5885064 57.3579102,35.6691867 C57.3579102,20.5598301 45.1093566,8.31127655 30,8.31127655 C14.8906434,8.31127655 2.64208984,20.5598301 2.64208984,35.6691867 C2.64208984,39.6353159 4.4295186,46.6706728 8.211998,51.8882117 C18.9639732,66.7194491 29.522287,80.3795653 30,80.3795653 Z" id="path-1"></path>
        <filter x="-11.0%" y="-8.3%" width="121.9%" height="116.7%" filterUnits="objectBoundingBox" id="filter-2">
            <feOffset dx="0" dy="0" in="SourceAlpha" result="shadowOffsetOuter1"></feOffset>
            <feGaussianBlur stdDeviation="2" in="shadowOffsetOuter1" result="shadowBlurOuter1"></feGaussianBlur>
            <feColorMatrix values="0 0 0 0 0   0 0 0 0 0   0 0 0 0 0  0 0 0 0.5 0" type="matrix" in="shadowBlurOuter1"></feColorMatrix>
        </filter>
    </defs>
    <g id="MarkerRCFGrey" stroke="none" stroke-width="1" fill="none" fill-rule="evenodd">
        <circle id="Oval" fill="#C8C8C8" cx="29.5791016" cy="79.4666667" r="6.93333333"></circle>
        <g id="Oval">
            <use fill="black" fill-opacity="1" filter="url(#filter-2)" xlink:href="#path-1"></use>
            <use fill="#FFFFFF" fill-rule="evenodd" xlink:href="#path-1"></use>
        </g>
        <circle id="Path" stroke="#C8C8C8" fill="#FFFFFF" cx="30" cy="35.6691867" r="22.4245165"></circle>
        <path d="M20.4684775,36.4915062 L39.8173147,36.4915062 C41.4870128,36.4915062 42.8405705,37.8450639 42.8405705,39.514762 C42.8405705,41.1844601 41.4870128,42.5380178 39.8173147,42.5380178 L20.4684775,42.5380178 C18.7987794,42.5380178 17.4452217,41.1844601 17.4452217,39.514762 C17.4452217,37.8450639 18.7987794,36.4915062 20.4684775,36.4915062 Z M20.4684775,41.3287155 C21.4702963,41.3287155 22.282431,40.5165808 22.282431,39.514762 C22.282431,38.5129431 21.4702963,37.7008085 20.4684775,37.7008085 C19.4666586,37.7008085 18.654524,38.5129431 18.654524,39.514762 C18.654524,40.5165808 19.4666586,41.3287155 20.4684775,41.3287155 Z M39.8173147,41.3287155 C40.8191335,41.3287155 41.6312682,40.5165808 41.6312682,39.514762 C41.6312682,38.5129431 40.8191335,37.7008085 39.8173147,37.7008085 C38.8154958,37.7008085 38.0033612,38.5129431 38.0033612,39.514762 C38.0033612,40.5165808 38.8154958,41.3287155 39.8173147,41.3287155 Z M34.9801054,41.3287155 C35.9819242,41.3287155 36.7940589,40.5165808 36.7940589,39.514762 C36.7940589,38.5129431 35.9819242,37.7008085 34.9801054,37.7008085 C33.9782865,37.7008085 33.1661519,38.5129431 33.1661519,39.514762 C33.1661519,40.5165808 33.9782865,41.3287155 34.9801054,41.3287155 Z M25.3056868,41.3287155 C26.3075056,41.3287155 27.1196403,40.5165808 27.1196403,39.514762 C27.1196403,38.5129431 26.3075056,37.7008085 25.3056868,37.7008085 C24.3038679,37.7008085 23.4917333,38.5129431 23.4917333,39.514762 C23.4917333,40.5165808 24.3038679,41.3287155 25.3056868,41.3287155 Z M30.1428961,41.3287155 C31.1447149,41.3287155 31.9568496,40.5165808 31.9568496,39.514762 C31.9568496,38.5129431 31.1447149,37.7008085 30.1428961,37.7008085 C29.1410772,37.7008085 28.3289426,38.5129431 28.3289426,39.514762 C28.3289426,40.5165808 29.1410772,41.3287155 30.1428961,41.3287155 Z" id="Combined-Shape" fill="#C8C8C8"></path>
        <rect id="Rectangle-14-Copy" fill="#C8C8C8" x="21.6777798" y="27.4217387" width="8.46511628" height="7.86046512"></rect>
        <polyline id="Fill-94-Copy" fill="#C8C8C8" points="36.1894077 32.9601248 31.9568496 32.9601248 31.9568496 29.6152807 36.1894077 29.6152807 36.1894077 28.0263899 40.4219658 31.2219713 36.1894077 34.3822814 36.1894077 32.258948"></polyline>
    </g>
</svg>