<?xml version="1.0" encoding="UTF-8"?>
<svg width="60px" height="87px" viewBox="0 0 60 87" version="1.1" xmlns="http://www.w3.org/2000/svg" xmlns:xlink="http://www.w3.org/1999/xlink">
    <!-- Generator: Sketch 52.6 (67491) - http://www.bohemiancoding.com/sketch -->
    <title>MarkerImportStationGreen</title>
    <desc>Created with Sketch.</desc>
    <defs>
        <path d="M30,80.3795653 C30.4797197,80.3795653 43.2772033,64.9137759 52.3388983,51.8882117 C56.0121662,46.6081415 57.3579102,39.5885064 57.3579102,35.6691867 C57.3579102,20.5598301 45.1093566,8.31127655 30,8.31127655 C14.8906434,8.31127655 2.64208984,20.5598301 2.64208984,35.6691867 C2.64208984,39.6353159 4.4295186,46.6706728 8.211998,51.8882117 C18.9639732,66.7194491 29.522287,80.3795653 30,80.3795653 Z" id="path-1"></path>
        <filter x="-11.0%" y="-8.3%" width="121.9%" height="116.7%" filterUnits="objectBoundingBox" id="filter-2">
            <feOffset dx="0" dy="0" in="SourceAlpha" result="shadowOffsetOuter1"></feOffset>
            <feGaussianBlur stdDeviation="2" in="shadowOffsetOuter1" result="shadowBlurOuter1"></feGaussianBlur>
            <feColorMatrix values="0 0 0 0 0   0 0 0 0 0   0 0 0 0 0  0 0 0 0.5 0" type="matrix" in="shadowBlurOuter1"></feColorMatrix>
        </filter>
    </defs>
    <g id="MarkerImportStationGreen" stroke="none" stroke-width="1" fill="none" fill-rule="evenodd">
        <circle id="Oval" fill="#41BE41" cx="29.5791016" cy="79.4666667" r="6.93333333"></circle>
        <g id="Oval">
            <use fill="black" fill-opacity="1" filter="url(#filter-2)" xlink:href="#path-1"></use>
            <use fill="#FFFFFF" fill-rule="evenodd" xlink:href="#path-1"></use>
        </g>
        <circle id="Path" stroke="#41BE41" fill="#FFFFFF" cx="30" cy="35.6691867" r="22.4245165"></circle>
        <g id="Group-14-Copy" transform="translate(16.000000, 23.632812)">
            <g id="Page-1-Copy" transform="translate(0.405884, 0.599854)">
                <polygon id="Fill-1" fill="#41BE41" points="0.1381073 3.37483312 0.1381073 15.907888 2.06451875 15.907888 2.06451875 5.59598829 16.6528429 5.55192929 16.6909666 15.863829 18.6202681 15.907888 18.6202681 3.37483312 9.68503732 0"></polygon>
                <rect id="Rectangle-8" fill="#41BE41" x="6.49793243" y="13.3556328" width="2.54393005" height="2.54393005"></rect>
                <rect id="Rectangle-8" fill="#41BE41" x="3.31801987" y="10.1757202" width="2.54393005" height="2.54393005"></rect>
                <rect id="Rectangle-8" fill="#41BE41" x="6.49793243" y="10.1757202" width="2.54393005" height="2.54393005"></rect>
                <rect id="Rectangle-8" fill="#D91A26" x="9.5397377" y="13.3556328" width="2.54393005" height="2.54393005"></rect>
                <rect id="Rectangle-8" fill="#41BE41" x="9.677845" y="10.1757202" width="2.54393005" height="2.54393005"></rect>
                <rect id="Rectangle-8" fill="#41BE41" x="3.31801987" y="6.99580765" width="2.54393005" height="2.54393005"></rect>
                <rect id="Rectangle-8" fill="#41BE41" x="3.31801987" y="13.3556328" width="2.54393005" height="2.54393005"></rect>
            </g>
            <g id="Group-Copy-4" transform="translate(9.926878, 13.693960)" fill="#41BE41">
                <rect id="Rectangle" x="0.0127332327" y="0.241996318" width="13.886767" height="4.61317189"></rect>
                <path d="M15.6896378,5.7669855 C15.5283485,5.2615288 15.085829,4.89251361 14.5584017,4.86710876 L14.5584017,1.31628879 L17.2288197,2.79849932 L17.2288197,5.7669855 L15.6896378,5.7669855 Z" id="Combined-Shape"></path>
                <ellipse id="Oval" cx="2.70016723" cy="6.27626041" rx="1" ry="1"></ellipse>
                <ellipse id="Oval" cx="4.686277" cy="6.27626041" rx="1" ry="1"></ellipse>
                <ellipse id="Oval-Copy-2" cx="14.2962327" cy="6.27626041" rx="1" ry="1"></ellipse>
            </g>
        </g>
    </g>
</svg>