<?xml version="1.0" encoding="UTF-8"?>
<svg width="60px" height="87px" viewBox="0 0 60 87" version="1.1" xmlns="http://www.w3.org/2000/svg" xmlns:xlink="http://www.w3.org/1999/xlink">
    <!-- Generator: Sketch 52.6 (67491) - http://www.bohemiancoding.com/sketch -->
    <title>MarkerUnvalidEDIRed</title>
    <desc>Created with Sketch.</desc>
    <defs>
        <path d="M30,80.3795653 C30.4797197,80.3795653 43.2772033,64.9137759 52.3388983,51.8882117 C56.0121662,46.6081415 57.3579102,39.5885064 57.3579102,35.6691867 C57.3579102,20.5598301 45.1093566,8.31127655 30,8.31127655 C14.8906434,8.31127655 2.64208984,20.5598301 2.64208984,35.6691867 C2.64208984,39.6353159 4.4295186,46.6706728 8.211998,51.8882117 C18.9639732,66.7194491 29.522287,80.3795653 30,80.3795653 Z" id="path-1"></path>
        <filter x="-11.0%" y="-8.3%" width="121.9%" height="116.7%" filterUnits="objectBoundingBox" id="filter-2">
            <feOffset dx="0" dy="0" in="SourceAlpha" result="shadowOffsetOuter1"></feOffset>
            <feGaussianBlur stdDeviation="2" in="shadowOffsetOuter1" result="shadowBlurOuter1"></feGaussianBlur>
            <feColorMatrix values="0 0 0 0 0   0 0 0 0 0   0 0 0 0 0  0 0 0 0.5 0" type="matrix" in="shadowBlurOuter1"></feColorMatrix>
        </filter>
    </defs>
    <g id="MarkerUnvalidEDIRed" stroke="none" stroke-width="1" fill="none" fill-rule="evenodd">
        <circle id="Oval" fill="#D91A26" cx="29.5791016" cy="79.4666667" r="6.93333333"></circle>
        <g id="Oval">
            <use fill="black" fill-opacity="1" filter="url(#filter-2)" xlink:href="#path-1"></use>
            <use fill="#FFFFFF" fill-rule="evenodd" xlink:href="#path-1"></use>
        </g>
        <circle id="Path" stroke="#D91A26" fill="#FFFFFF" cx="29.8876953" cy="35.7783989" r="22.4245165"></circle>
        <path d="M34.4581867,37.9162733 L34.4581867,32.081318 L32.8930925,32.081318 L32.8930925,38.5603508 C30.7063248,39.7825575 29.2277985,42.1203773 29.2277985,44.8035254 C29.2277985,45.7303064 29.4041966,46.6158874 29.7252498,47.4285254 L23,47.4285254 C20.2385763,47.4285254 18,45.1899491 18,42.4285254 L18,26.1785254 C18,23.4171016 20.2385763,21.1785254 23,21.1785254 L33.25,21.1785254 C36.0114237,21.1785254 38.25,23.4171016 38.25,26.1785254 L38.25,37.9047987 C37.6524539,37.7427794 37.0238233,37.6563239 36.375,37.6563239 C35.7110244,37.6563239 35.0681957,37.7468646 34.4581867,37.9162733 Z M31.5,21.1785254 C31.5,21.7672594 31.5,22.94782 31.5,24.7202071 C31.5,26.4925942 32.5467009,27.3598888 34.6401026,27.3220907 L38.0146739,27.3220907 L31.5,21.1785254 Z M36.375,50.4285254 C33.2683983,50.4285254 30.75,47.9101271 30.75,44.8035254 C30.75,41.6969237 33.2683983,39.1785254 36.375,39.1785254 C39.4816017,39.1785254 42,41.6969237 42,44.8035254 C42,47.9101271 39.4816017,50.4285254 36.375,50.4285254 Z M25.7786216,35.8330723 L25.7786216,34.6659592 L23.3102445,34.6659592 L23.3102445,33.293148 L26.2347347,33.293148 L26.2347347,32.081318 L21.7406786,32.081318 L21.7406786,38.5921097 L26.2257913,38.5921097 L26.2257913,37.3847514 L23.3102445,37.3847514 L23.3102445,35.8330723 L25.7786216,35.8330723 Z M26.8652441,38.5921097 L29.0071873,38.5921097 C29.570624,38.5891286 30.0811377,38.4542337 30.5387437,38.1874211 C30.9963497,37.9206085 31.3511008,37.5509518 31.6030077,37.0784401 C31.8549146,36.6059283 31.9808662,36.0715658 31.9808662,35.4753365 L31.9808662,35.1757327 C31.977885,34.5854657 31.8474618,34.0525937 31.5895926,33.5771008 C31.3317235,33.1016079 30.973246,32.7334418 30.5141494,32.4725915 C30.0550528,32.2117412 29.5378316,32.081318 28.9624703,32.081318 L26.8652441,32.081318 L26.8652441,38.5921097 Z M28.43481,33.293148 L28.9624703,33.293148 C29.424548,33.293148 29.776318,33.452637 30.0177909,33.7716197 C30.2592638,34.0906024 30.3799984,34.5645976 30.3799984,35.1936195 L30.3799984,35.4753365 C30.3799984,36.1073396 30.2592638,36.5835706 30.0177909,36.9040439 C29.776318,37.2245171 29.4305102,37.3847514 28.9803571,37.3847514 L28.43481,37.3847514 L28.43481,33.293148 Z M37.6450589,44.6914074 L38.823044,43.3673261 C39.1792713,42.9689796 39.1476445,42.3555786 38.7524036,41.9972566 C38.3571627,41.6389346 37.7479775,41.6713809 37.3917502,42.0697273 L36.3140739,43.2810593 L35.2137023,42.1150754 C34.8479189,41.7254855 34.2340956,41.7035305 33.8426897,42.0660375 C33.4512837,42.4285446 33.4305125,43.0382396 33.7962958,43.4278295 L35.0250956,44.7298993 L33.8471104,46.0539806 C33.4908832,46.4523271 33.52251,47.0657281 33.9177508,47.4240501 C34.3129917,47.7823721 34.922177,47.7499259 35.2784042,47.3515794 L36.3560805,46.1402475 L37.4564521,47.3062314 C37.8222355,47.6958213 38.4360588,47.7177762 38.8274648,47.3552692 C39.2188708,46.9927622 39.239642,46.3830671 38.8738586,45.9934773 L37.6450589,44.6914074 Z" id="Combined-Shape" fill="#D81F27"></path>
    </g>
</svg>