<?xml version="1.0" encoding="UTF-8"?>
<svg width="60px" height="87px" viewBox="0 0 60 87" version="1.1" xmlns="http://www.w3.org/2000/svg" xmlns:xlink="http://www.w3.org/1999/xlink">
    <!-- Generator: Sketch 52.6 (67491) - http://www.bohemiancoding.com/sketch -->
    <title>MarkerImportHubGreen</title>
    <desc>Created with Sketch.</desc>
    <defs>
        <path d="M30,80.3795653 C30.4797197,80.3795653 43.2772033,64.9137759 52.3388983,51.8882117 C56.0121662,46.6081415 57.3579102,39.5885064 57.3579102,35.6691867 C57.3579102,20.5598301 45.1093566,8.31127655 30,8.31127655 C14.8906434,8.31127655 2.64208984,20.5598301 2.64208984,35.6691867 C2.64208984,39.6353159 4.4295186,46.6706728 8.211998,51.8882117 C18.9639732,66.7194491 29.522287,80.3795653 30,80.3795653 Z" id="path-1"></path>
        <filter x="-11.0%" y="-8.3%" width="121.9%" height="116.7%" filterUnits="objectBoundingBox" id="filter-2">
            <feOffset dx="0" dy="0" in="SourceAlpha" result="shadowOffsetOuter1"></feOffset>
            <feGaussianBlur stdDeviation="2" in="shadowOffsetOuter1" result="shadowBlurOuter1"></feGaussianBlur>
            <feColorMatrix values="0 0 0 0 0   0 0 0 0 0   0 0 0 0 0  0 0 0 0.5 0" type="matrix" in="shadowBlurOuter1"></feColorMatrix>
        </filter>
    </defs>
    <g id="MarkerImportHubGreen" stroke="none" stroke-width="1" fill="none" fill-rule="evenodd">
        <circle id="Oval" fill="#41BE41" cx="29.5791016" cy="79.4666667" r="6.93333333"></circle>
        <g id="Oval">
            <use fill="black" fill-opacity="1" filter="url(#filter-2)" xlink:href="#path-1"></use>
            <use fill="#FFFFFF" fill-rule="evenodd" xlink:href="#path-1"></use>
        </g>
        <circle id="Path" stroke="#41BE41" fill="#FFFFFF" cx="30" cy="35.6691867" r="22.4245165"></circle>
        <g id="Group" transform="translate(15.500000, 22.000000)">
            <path d="M11.146661,4.712171 L3.25469754,4.63204588 C3.25469754,4.63204588 1.72654547,4.19027494 0.787421313,3.50091017 L0.15002959,2.0088505 L0.479192247,1.83993808 L2.2238987,3.41789766 L4.44935587,3.46048668 L3.51600649,0.918138272 L4.08554451,0.626511708 L7.35768118,3.47781103 L11.1250055,3.53050593 C11.1250055,3.53050593 12.1132153,3.72612672 12.1500296,4.16501026 C12.1500296,4.16501026 11.9457466,4.59523163 11.146661,4.712171 Z" id="Fill-1" fill="#41BE41"></path>
            <g id="Group-14-Copy" transform="translate(4.233594, 6.717188)">
                <g id="Page-1-Copy" transform="translate(0.347900, 0.514160)">
                    <polygon id="Fill-1" fill="#41BE41" points="0.118377686 2.8927141 0.118377686 13.6353325 1.7695875 13.6353325 1.7695875 4.79656139 14.2738654 4.75879653 14.3065428 13.5975677 15.9602298 13.6353325 15.9602298 2.8927141 8.30146056 0"></polygon>
                    <rect id="Rectangle-8" fill="#41BE41" x="5.56965637" y="11.4476852" width="2.18051147" height="2.18051147"></rect>
                    <rect id="Rectangle-8" fill="#41BE41" x="2.84401703" y="8.7220459" width="2.18051147" height="2.18051147"></rect>
                    <rect id="Rectangle-8" fill="#41BE41" x="5.56965637" y="8.7220459" width="2.18051147" height="2.18051147"></rect>
                    <rect id="Rectangle-8" fill="#D91A26" x="8.17691803" y="11.4476852" width="2.18051147" height="2.18051147"></rect>
                    <rect id="Rectangle-8" fill="#41BE41" x="8.29529572" y="8.7220459" width="2.18051147" height="2.18051147"></rect>
                    <rect id="Rectangle-8" fill="#41BE41" x="2.84401703" y="5.99640656" width="2.18051147" height="2.18051147"></rect>
                    <rect id="Rectangle-8" fill="#41BE41" x="2.84401703" y="11.4476852" width="2.18051147" height="2.18051147"></rect>
                </g>
                <g id="Group-Copy-4" transform="translate(8.508752, 11.737680)" fill="#41BE41">
                    <rect id="Rectangle" x="0.0109141995" y="0.207425416" width="11.9029432" height="3.95414733"></rect>
                    <path d="M13.448261,4.94313043 C13.310013,4.50988183 12.9307106,4.1935831 12.47863,4.17180751 L12.47863,1.12824754 L14.7675598,2.3987137 L14.7675598,4.94313043 L13.448261,4.94313043 Z" id="Combined-Shape"></path>
                    <ellipse id="Oval" cx="2.31442906" cy="5.37965178" rx="1" ry="1"></ellipse>
                    <ellipse id="Oval" cx="4.01680886" cy="5.37965178" rx="1" ry="1"></ellipse>
                    <ellipse id="Oval-Copy-2" cx="12.2539137" cy="5.37965178" rx="1" ry="1"></ellipse>
                </g>
            </g>
        </g>
    </g>
</svg>