<?xml version="1.0" encoding="UTF-8"?>
<svg width="60px" height="87px" viewBox="0 0 60 87" version="1.1" xmlns="http://www.w3.org/2000/svg" xmlns:xlink="http://www.w3.org/1999/xlink">
    <!-- Generator: Sketch 52.6 (67491) - http://www.bohemiancoding.com/sketch -->
    <title>MarkerFOHRed</title>
    <desc>Created with Sketch.</desc>
    <defs>
        <path d="M30,80.3795653 C30.4797197,80.3795653 43.2772033,64.9137759 52.3388983,51.8882117 C56.0121662,46.6081415 57.3579102,39.5885064 57.3579102,35.6691867 C57.3579102,20.5598301 45.1093566,8.31127655 30,8.31127655 C14.8906434,8.31127655 2.64208984,20.5598301 2.64208984,35.6691867 C2.64208984,39.6353159 4.4295186,46.6706728 8.211998,51.8882117 C18.9639732,66.7194491 29.522287,80.3795653 30,80.3795653 Z" id="path-1"></path>
        <filter x="-11.0%" y="-8.3%" width="121.9%" height="116.7%" filterUnits="objectBoundingBox" id="filter-2">
            <feOffset dx="0" dy="0" in="SourceAlpha" result="shadowOffsetOuter1"></feOffset>
            <feGaussianBlur stdDeviation="2" in="shadowOffsetOuter1" result="shadowBlurOuter1"></feGaussianBlur>
            <feColorMatrix values="0 0 0 0 0   0 0 0 0 0   0 0 0 0 0  0 0 0 0.5 0" type="matrix" in="shadowBlurOuter1"></feColorMatrix>
        </filter>
    </defs>
    <g id="MarkerFOHRed" stroke="none" stroke-width="1" fill="none" fill-rule="evenodd">
        <circle id="Oval" fill="#D91A26" cx="29.5791016" cy="79.4666667" r="6.93333333"></circle>
        <g id="Oval">
            <use fill="black" fill-opacity="1" filter="url(#filter-2)" xlink:href="#path-1"></use>
            <use fill="#FFFFFF" fill-rule="evenodd" xlink:href="#path-1"></use>
        </g>
        <circle id="Path" stroke="#D91A26" fill="#FFFFFF" cx="29.8876953" cy="35.7783989" r="22.4245165"></circle>
        <g id="Group-14" transform="translate(15.000000, 22.406982)" fill="#D81F27">
            <path d="M13.9616642,13.6394077 L21.8900811,10.8367178 L29.3105015,13.6394077 L29.3105015,24.0477047 L27.708279,24.0111151 L27.6766185,15.4474157 L15.5614867,15.4840052 L15.5614867,24.0477047 L13.9616642,24.0477047 L13.9616642,13.6394077 Z M19.2432935,21.9281392 L21.3559452,21.9281392 L21.3559452,24.0407909 L19.2432935,24.0407909 L19.2432935,21.9281392 Z M16.6024789,19.2873246 L18.7151306,19.2873246 L18.7151306,21.3999763 L16.6024789,21.3999763 L16.6024789,19.2873246 Z M19.2432935,19.2873246 L21.3559452,19.2873246 L21.3559452,21.3999763 L19.2432935,21.3999763 L19.2432935,19.2873246 Z M21.8841081,21.9281392 L23.9967598,21.9281392 L23.9967598,24.0407909 L21.8841081,24.0407909 L21.8841081,21.9281392 Z M24.5249227,21.9281392 L26.6375744,21.9281392 L26.6375744,24.0407909 L24.5249227,24.0407909 L24.5249227,21.9281392 Z M24.5249227,19.2873246 L26.6375744,19.2873246 L26.6375744,21.3999763 L24.5249227,21.3999763 L24.5249227,19.2873246 Z M21.8841081,19.2873246 L23.9967598,19.2873246 L23.9967598,21.3999763 L21.8841081,21.3999763 L21.8841081,19.2873246 Z M16.6024789,16.64651 L18.7151306,16.64651 L18.7151306,18.7591617 L16.6024789,18.7591617 L16.6024789,16.64651 Z M16.6024789,21.9281392 L18.7151306,21.9281392 L18.7151306,24.0407909 L16.6024789,24.0407909 L16.6024789,21.9281392 Z" id="Combined-Shape-Copy"></path>
            <path d="M11.5514578,4.31340699 L3.86970484,4.23541609 C3.86970484,4.23541609 2.38225666,3.80541217 1.46814703,3.13440933 L0.847732886,1.68209219 L1.16812796,1.51767893 L2.86636237,3.05360794 L5.03254223,3.09506257 L4.12405356,0.620432195 L4.67842136,0.336573401 L7.86340133,3.11192547 L11.5303792,3.16321678 C11.5303792,3.16321678 12.492267,3.35362701 12.5281007,3.78082044 C12.5281007,3.78082044 12.329259,4.19958243 11.5514578,4.31340699 Z" id="Fill-1-Copy"></path>
            <path d="M7.50733125,7.00100964 L7.50733125,8.49330726 L12.3239649,8.49330726 L10.7081021,11.7656627 L14.0575692,11.7656627 L11.6431801,16.6574556 L8.85422887,16.6574556 L8.85422887,24.1763252 L5.08131149,24.1763252 L5.08131149,16.6574556 L2.58716739,16.6574556 L0.172778282,11.7656627 L3.42426064,11.7656627 L1.80895602,8.49330726 L6.71748922,8.49330726 L6.71748922,7.00100964 L4.42486642,7.00100964 L4.42486642,6.21056364 L9.84507834,6.21056364 L9.84507834,7.00100964 L7.50733125,7.00100964 Z" id="Combined-Shape"></path>
        </g>
    </g>
</svg>