<?xml version="1.0" encoding="UTF-8"?>
<svg width="60px" height="87px" viewBox="0 0 60 87" version="1.1" xmlns="http://www.w3.org/2000/svg" xmlns:xlink="http://www.w3.org/1999/xlink">
    <!-- Generator: Sketch 52.6 (67491) - http://www.bohemiancoding.com/sketch -->
    <title>MarkerExportImportTerminalRed</title>
    <desc>Created with Sketch.</desc>
    <defs>
        <path d="M30,80.3795653 C30.4797197,80.3795653 43.2772033,64.9137759 52.3388983,51.8882117 C56.0121662,46.6081415 57.3579102,39.5885064 57.3579102,35.6691867 C57.3579102,20.5598301 45.1093566,8.31127655 30,8.31127655 C14.8906434,8.31127655 2.64208984,20.5598301 2.64208984,35.6691867 C2.64208984,39.6353159 4.4295186,46.6706728 8.211998,51.8882117 C18.9639732,66.7194491 29.522287,80.3795653 30,80.3795653 Z" id="path-1"></path>
        <filter x="-11.0%" y="-8.3%" width="121.9%" height="116.7%" filterUnits="objectBoundingBox" id="filter-2">
            <feOffset dx="0" dy="0" in="SourceAlpha" result="shadowOffsetOuter1"></feOffset>
            <feGaussianBlur stdDeviation="2" in="shadowOffsetOuter1" result="shadowBlurOuter1"></feGaussianBlur>
            <feColorMatrix values="0 0 0 0 0   0 0 0 0 0   0 0 0 0 0  0 0 0 0.5 0" type="matrix" in="shadowBlurOuter1"></feColorMatrix>
        </filter>
    </defs>
    <g id="MarkerExportImportTerminalRed" stroke="none" stroke-width="1" fill="none" fill-rule="evenodd">
        <circle id="Oval" fill="#D91A26" cx="29.5791016" cy="79.4666667" r="6.93333333"></circle>
        <g id="Oval">
            <use fill="black" fill-opacity="1" filter="url(#filter-2)" xlink:href="#path-1"></use>
            <use fill="#FFFFFF" fill-rule="evenodd" xlink:href="#path-1"></use>
        </g>
        <circle id="Path" stroke="#D91A26" fill="#FFFFFF" cx="30" cy="35.6691867" r="22.4245165"></circle>
        <g id="Page-1-Copy" transform="translate(19.000000, 21.267578)" fill="#D61925">
            <path d="M2.02691205,15.7951549 L9.74198911,9.45210206 C9.35732814,9.33286314 8.94616326,9.10821711 8.66712644,8.68839906 L8.91816092,8.14672135 C8.91816092,8.14672135 9.93241379,8.95970248 10.7664368,8.611282 C11.6004598,8.26286151 11.8009195,6.96766642 10.2303448,6.61924594 L10.2098253,5.72970521 L9.61793103,5.72970521 L8.12275862,3.87146262 L8.12275862,-0.000185824259 L13.5370115,-0.000185824259 L13.5370115,3.87146262 L12.0197701,5.72970521 L11.8064368,5.72970521 L11.8064368,5.8629412 C11.8064368,5.8629412 12.7682759,6.47430302 12.7682759,7.70538873 C12.7682759,8.45841826 12.3100087,8.99103425 11.7766712,9.29135581 L19.6391168,15.7951549 L21.4556322,15.7951549 L21.4556322,26.036859 L5.68434189e-14,26.036859 L5.68434189e-14,15.7951549 L2.02691205,15.7951549 Z M2.70835588,15.7951549 L18.9596164,15.7951549 L11.3307083,9.48519363 C11.132612,9.54782608 10.9384131,9.57942639 10.7664368,9.57942639 C10.7664368,9.57942639 10.5689648,9.59546574 10.2864345,9.56393307 L2.70835588,15.7951549 Z" id="Combined-Shape"></path>
        </g>
    </g>
</svg>