<?xml version="1.0" encoding="UTF-8"?>
<svg width="60px" height="87px" viewBox="0 0 60 87" version="1.1" xmlns="http://www.w3.org/2000/svg" xmlns:xlink="http://www.w3.org/1999/xlink">
    <!-- Generator: Sketch 52.6 (67491) - http://www.bohemiancoding.com/sketch -->
    <title>MarkerAirportRed</title>
    <desc>Created with Sketch.</desc>
    <defs>
        <path d="M30,80.3795653 C30.4797197,80.3795653 43.2772033,64.9137759 52.3388983,51.8882117 C56.0121662,46.6081415 57.3579102,39.5885064 57.3579102,35.6691867 C57.3579102,20.5598301 45.1093566,8.31127655 30,8.31127655 C14.8906434,8.31127655 2.64208984,20.5598301 2.64208984,35.6691867 C2.64208984,39.6353159 4.4295186,46.6706728 8.211998,51.8882117 C18.9639732,66.7194491 29.522287,80.3795653 30,80.3795653 Z" id="path-1"></path>
        <filter x="-11.0%" y="-8.3%" width="121.9%" height="116.7%" filterUnits="objectBoundingBox" id="filter-2">
            <feOffset dx="0" dy="0" in="SourceAlpha" result="shadowOffsetOuter1"></feOffset>
            <feGaussianBlur stdDeviation="2" in="shadowOffsetOuter1" result="shadowBlurOuter1"></feGaussianBlur>
            <feColorMatrix values="0 0 0 0 0   0 0 0 0 0   0 0 0 0 0  0 0 0 0.5 0" type="matrix" in="shadowBlurOuter1"></feColorMatrix>
        </filter>
    </defs>
    <g id="MarkerAirportRed" stroke="none" stroke-width="1" fill="none" fill-rule="evenodd">
        <circle id="Oval" fill="#D91A26" cx="29.5791016" cy="79.4666667" r="6.93333333"></circle>
        <g id="Oval">
            <use fill="black" fill-opacity="1" filter="url(#filter-2)" xlink:href="#path-1"></use>
            <use fill="#FFFFFF" fill-rule="evenodd" xlink:href="#path-1"></use>
        </g>
        <circle id="Path" stroke="#D91A26" fill="#FFFFFF" cx="30" cy="35.6691867" r="22.4245165"></circle>
        <g id="Group-18" transform="translate(15.000000, 24.402344)" fill="#D81F27">
            <path d="M11.1061237,18.3579669 C11.6637719,18.550113 11.9427295,18.7704191 11.9984715,18.8175876 C12.1030733,18.7304638 12.980352,18.0526478 14.9559818,18.0526478 C16.9316115,18.0526478 17.7961141,18.7304638 17.8990737,18.8175876 C18.0036756,18.7304638 18.8809543,18.0526478 20.856584,18.0526478 C22.8322137,18.0526478 23.6967163,18.7304638 23.7996759,18.8175876 C23.9042778,18.7304638 24.7815565,18.0526478 26.7571862,18.0526478 C28.8685063,18.0526478 29.7108288,18.8267689 29.7108288,18.8267689 L29.6895545,18.8267689 L29.6895545,21.5361926 L0.186543367,21.5361926 L0.186543367,18.8267689 L6.0871456,18.8267689 C6.0871456,18.8267689 6.26417203,18.6668463 6.65554822,18.4923763 L6.65554822,12.8324954 L3.53947459,12.8324954 L0.691434271,7.06187822 L4.62573888,7.06187822 L2.67909957,3.1181511 L8.41461003,3.1181511 L8.41461003,1.03962578 L5.68359204,1.03962578 L5.68359204,0.107173954 L12.0773345,0.107173954 L12.0773345,1.03962578 L9.34631649,1.03962578 L9.34631649,3.1181511 L15.0827214,3.1181511 L13.1354094,7.06187822 L17.0700885,7.06187822 L14.2220482,12.8324954 L11.1061237,12.8324954 L11.1061237,18.3579669 Z" id="Combined-Shape"></path>
            <path d="M25.3179778,13.4838393 L19.5848076,13.4256318 C19.5848076,13.4256318 18.4746711,13.1047044 17.792438,12.6039107 L17.3294005,11.5199938 L17.5685229,11.3972862 L18.8359768,12.5436057 L20.4526752,12.5745447 L19.7746372,10.7276385 L20.188382,10.5157844 L22.5654478,12.5871301 L25.3022461,12.6254107 C25.3022461,12.6254107 26.0201378,12.7675207 26.0468817,13.0863507 C26.0468817,13.0863507 25.898479,13.3988879 25.3179778,13.4838393 Z" id="Fill-1-Copy"></path>
        </g>
    </g>
</svg>