<?xml version="1.0" encoding="UTF-8"?>
<svg width="12px" height="16px" viewBox="0 0 12 16" version="1.1" xmlns="http://www.w3.org/2000/svg" xmlns:xlink="http://www.w3.org/1999/xlink">
    <!-- Generator: Sketch 50.2 (55047) - http://www.bohemiancoding.com/sketch -->
    <title>NewIconNegative</title>
    <desc>Created with Sketch.</desc>
    <defs></defs>
    <g id="NewIconNegative" stroke="none" stroke-width="1" fill="none" fill-rule="evenodd">
        <path d="M6.66666667,6.66666667 L12,6.66666667 L12,15.6666667 C12,15.7644444 11.9688889,15.8444444 11.9066667,15.9066667 C11.8448889,15.9688889 11.7644444,16 11.6666667,16 L0.333333333,16 C0.235555556,16 0.155555556,15.9688889 0.0933333333,15.9066667 C0.0315555556,15.8444444 0,15.7644444 0,15.6666667 L0,0.333333333 C0,0.235555556 0.0315555556,0.155555556 0.0933333333,0.0933333333 C0.155555556,0.0311111111 0.235555556,0 0.333333333,0 L6.66666667,0 L6.66666667,6.66666667 L6.66666667,6.66666667 L6.66666667,6.66666667 L6.66666667,6.66666667 Z M12,5.33333333 L8,5.33333333 L8,1.33333333 L12,5.33333333 L12,5.33333333 Z" id="Fill-28" fill="#FFFFFF"></path>
    </g>
</svg>