<?xml version="1.0" encoding="UTF-8"?>
<svg width="22px" height="24px" viewBox="0 0 22 24" version="1.1" xmlns="http://www.w3.org/2000/svg" xmlns:xlink="http://www.w3.org/1999/xlink">
    <!-- Generator: Sketch 50.2 (55047) - http://www.bohemiancoding.com/sketch -->
    <title>Notification</title>
    <desc>Created with Sketch.</desc>
    <defs></defs>
    <g id="Notification" stroke="none" stroke-width="1" fill="none" fill-rule="evenodd">
        <path d="M19.7593333,16 L20.0993333,16 C20.366,16 20.59,16.0966667 20.7693333,16.2893333 C20.9493333,16.4833333 21.0393333,16.72 21.0393333,17 C21.0393333,17.2666667 20.9533333,17.5326667 20.78,17.7993333 C20.606,18.0666667 20.4,18.246 20.1593333,18.34 C19.866,18.46 19.446,18.6133333 18.9,18.7993333 C18.3526667,18.9873333 17.236,19.2333333 15.5493333,19.5393333 C13.8626667,19.8466667 12.186,20 10.5193333,20 C8.85266667,20 7.216,19.8633333 5.60933333,19.59 C4.00266667,19.3166667 2.81266667,19.0393333 2.03933333,18.7593333 L0.879333333,18.3593333 C0.639333333,18.2666667 0.432,18.0833333 0.259333333,17.81 C0.086,17.5366667 0,17.2666667 0,17 C0,16.72 0.09,16.4833333 0.269333333,16.2893333 C0.449333333,16.0966667 0.672666667,16 0.939333333,16 L1.28,16 L3.63933333,12.5393333 L4.9,6 C5.09933333,4.97266667 5.606,4.03933333 6.41933333,3.19933333 C7.23333333,2.35933333 8.19266667,1.806 9.29933333,1.53933333 L8.93933333,0.9 C8.85933333,0.647333333 8.87933333,0.433333333 9,0.259333333 C9.12,0.086 9.31266667,0 9.57933333,0 L11.46,0 C11.7266667,0 11.9193333,0.0706666667 12.0393333,0.21 C12.1593333,0.35 12.18,0.546666667 12.0993333,0.799333333 L11.7393333,1.53933333 C12.8466667,1.79266667 13.806,2.344 14.62,3.19 C15.432,4.03666667 15.9393333,4.97266667 16.1393333,6 L17.4,12.5393333 L19.7593333,16 L19.7593333,16 L19.7593333,16 L19.7593333,16 Z M10.5193333,21.9193333 C9.79933333,21.9193333 9.11266667,21.88 8.46,21.7993333 C8.62,22.4533333 8.886,22.9833333 9.25933333,23.3893333 C9.63266667,23.7966667 10.0526667,24 10.5193333,24 C10.986,24 11.406,23.7966667 11.78,23.3893333 C12.1526667,22.9833333 12.4126667,22.4533333 12.56,21.7993333 C11.9193333,21.88 11.2393333,21.9193333 10.5193333,21.9193333 L10.5193333,21.9193333 Z" id="Fill-197" fill="#D91A26"></path>
    </g>
</svg>