<?xml version="1.0" encoding="UTF-8"?>
<svg width="195px" height="39px" viewBox="0 0 195 39" version="1.1" xmlns="http://www.w3.org/2000/svg" xmlns:xlink="http://www.w3.org/1999/xlink">
    <!-- Generator: Sketch 52.6 (67491) - http://www.bohemiancoding.com/sketch -->
    <title>PanalpinaFullLogo</title>
    <desc>Created with Sketch.</desc>
    <g id="PanalpinaFullLogo" stroke="none" stroke-width="1" fill="none" fill-rule="evenodd">
        <g id="Page-1" fill="#373C8C">
            <path d="M5.662,10.9294 L7.057,10.9294 C8.843,10.9294 9.115,10.0514 9.115,7.8704 C9.115,4.9344 8.177,4.9344 6.299,4.9344 L5.662,4.9344 L5.662,10.9294 Z M0.091,0.6334 L6.057,0.6334 C12.174,0.6334 14.687,1.6624 14.687,7.9914 C14.687,11.5344 13.808,15.2304 8.812,15.2304 L5.662,15.2304 L5.662,24.8294 L0.091,24.8294 L0.091,0.6334 Z" id="Fill-1"></path>
            <path d="M20.6503,16.2292 L23.4363,16.2292 L22.1353,4.3882 L22.0743,4.3882 L20.6503,16.2292 Z M18.4103,0.6332 L25.7983,0.6332 L30.3413,24.8302 L24.4983,24.8302 L23.9823,20.5292 L20.0763,20.5292 L19.5013,24.8302 L13.9283,24.8302 L18.4103,0.6332 Z" id="Fill-3"></path>
            <polygon id="Fill-5" points="31.7939 0.6335 37.8799 0.6335 42.3609 14.8975 42.4219 14.8975 42.4219 0.6335 47.8129 0.6335 47.8129 24.8295 41.7559 24.8295 37.2439 9.8695 37.1829 9.8695 37.1829 24.8295 31.7939 24.8295"></polygon>
            <path d="M55.9853,16.2292 L58.7713,16.2292 L57.4683,4.3882 L57.4083,4.3882 L55.9853,16.2292 Z M53.7443,0.6332 L61.1323,0.6332 L65.6743,24.8302 L59.8303,24.8302 L59.3153,20.5292 L55.4093,20.5292 L54.8343,24.8302 L49.2613,24.8302 L53.7443,0.6332 Z" id="Fill-7"></path>
            <polygon id="Fill-9" points="67.1269 0.6335 72.6989 0.6335 72.6989 20.1655 78.7559 20.1655 78.7559 24.8295 67.1269 24.8295"></polygon>
            <path d="M85.8378,10.9294 L87.2308,10.9294 C89.0178,10.9294 89.2898,10.0514 89.2898,7.8704 C89.2898,4.9344 88.3518,4.9344 86.4728,4.9344 L85.8378,4.9344 L85.8378,10.9294 Z M80.2658,0.6334 L86.2318,0.6334 C92.3488,0.6334 94.8638,1.6624 94.8638,7.9914 C94.8638,11.5344 93.9848,15.2304 88.9868,15.2304 L85.8378,15.2304 L85.8378,24.8294 L80.2658,24.8294 L80.2658,0.6334 Z" id="Fill-11"></path>
            <polygon id="Fill-13" points="96.379 24.8294 101.961 24.8294 101.961 0.6334 96.379 0.6334"></polygon>
            <polygon id="Fill-15" points="104.623 0.6335 110.709 0.6335 115.19 14.8975 115.251 14.8975 115.251 0.6335 120.642 0.6335 120.642 24.8295 114.585 24.8295 110.073 9.8695 110.012 9.8695 110.012 24.8295 104.623 24.8295"></polygon>
            <path d="M128.8134,16.2292 L131.6004,16.2292 L130.2974,4.3882 L130.2374,4.3882 L128.8134,16.2292 Z M126.5734,0.6332 L133.9624,0.6332 L138.5034,24.8302 L132.6604,24.8302 L132.1454,20.5292 L128.2384,20.5292 L127.6624,24.8302 L122.0914,24.8302 L126.5734,0.6332 Z" id="Fill-16"></path>
            <path d="M170.6357,38.5485 C174.4297,38.5485 177.5047,35.4735 177.5047,31.6795 C177.5047,27.8865 174.4297,24.8115 170.6357,24.8115 C166.8417,24.8115 163.7677,27.8865 163.7677,31.6795 C163.7677,35.4735 166.8417,38.5485 170.6357,38.5485" id="Fill-30"></path>
            <path d="M178.0741,24.9997 C174.6771,24.9927 170.3301,21.6087 170.3301,21.6087 L170.3301,18.6917 L171.5331,19.5447 C171.5331,19.5447 174.6841,21.7977 177.1781,21.8087 C180.7011,21.8227 183.9371,19.4577 184.4851,15.1177 C184.8781,15.9057 185.0341,17.1237 185.0101,17.9987 C184.9881,18.7647 184.5721,25.0137 178.0741,24.9997 L178.0741,24.9997 Z M158.7781,13.3537 L160.6011,11.9017 L169.8341,18.3777 L169.8041,21.2947 L158.7781,13.3537 Z M162.5421,10.3057 C162.5421,10.3057 168.5801,10.3147 169.1271,10.3147 C169.6731,10.3147 169.6731,10.5997 169.6731,10.5997 L169.6731,11.1577 C169.6731,11.1577 169.6731,11.6717 170.0451,11.6717 C170.4811,11.6717 170.4611,11.1647 170.4611,11.1587 C170.4571,11.1587 170.4611,11.1577 170.4611,11.1577 L170.4611,11.1587 C170.4911,11.1627 170.9531,11.1807 176.4771,11.1807 C182.7781,11.1807 184.0041,14.3527 184.0041,14.3527 C184.0041,14.3527 184.0371,14.6577 183.9961,14.9657 C183.3301,19.9627 179.3391,21.3087 177.2641,21.2877 C174.8831,21.2637 171.8751,19.2087 171.8751,19.2087 C171.8751,19.2087 161.4031,11.8597 160.9951,11.5737 L162.5421,10.3057 Z M168.6011,2.9977 C168.8861,2.7137 168.9081,2.7137 169.3231,2.7137 C169.6731,2.7137 169.6731,3.1067 169.6731,3.1067 L169.6731,7.8977 C169.6731,8.1827 168.5801,8.7947 168.5801,8.7947 L163.4601,8.4447 L168.6011,2.9977 Z M158.3551,13.6817 C158.7591,13.9507 168.5361,21.0397 168.5361,21.0397 C168.5361,21.0397 174.4821,25.3507 177.1401,26.4587 C180.2061,27.7347 184.9191,27.9147 189.0711,25.3847 C192.4381,23.3317 194.9981,19.0207 194.9861,14.0897 C194.9631,4.7047 187.7971,0.6717 181.7591,0.6567 L170.4831,0.6567 C170.4831,0.6567 170.5481,-0.0173 170.0891,0.0007 C169.6511,0.0177 169.6731,0.6567 169.6731,0.6567 C169.6731,0.6567 169.1481,0.6997 168.4481,1.2697 C167.7481,1.8387 162.7821,6.2137 162.7821,6.2137 C162.7821,6.2137 162.7441,4.6617 162.3221,4.2677 C161.8471,3.8217 160.9941,3.5197 160.0911,3.8287 C159.2601,4.1137 158.6461,4.7487 158.6911,5.9077 C158.7431,7.2847 160.0201,7.4817 159.5881,8.0077 C159.2311,8.4397 157.5951,7.7017 157.5971,6.2797 L157.5971,3.7637 C157.5971,3.7637 157.3121,0.6567 154.2931,0.6567 L140.2251,0.6567 C140.2251,0.6567 142.4501,4.0747 144.7991,3.9927 C145.1481,4.9547 146.0461,7.1767 148.9551,7.1767 C149.9621,8.7947 150.3111,10.2827 153.8111,10.2827 L156.4151,10.2827 C156.4151,10.2827 156.7631,10.2597 156.4581,10.5217 L153.2651,13.1927 C153.2651,13.1927 150.4861,15.0967 152.8711,17.2837 L164.0291,27.4567 C164.0291,27.4567 164.2761,27.8667 164.6631,27.3257 C164.9931,26.8647 165.9011,26.0097 166.5891,25.5537 C167.2011,25.1467 166.5891,25.2917 166.5891,25.2917 C166.5891,25.2917 165.3861,25.4877 164.7731,25.6637 C164.3731,25.7767 164.2261,25.7947 163.5691,24.9627 C162.9131,24.1317 156.2841,15.8397 156.2841,15.8397 C156.2841,15.8397 156.0211,15.5997 156.5471,15.1617 L158.3551,13.6817 Z" id="Fill-31"></path>
        </g>
    </g>
</svg>