<?xml version="1.0" encoding="UTF-8"?>
<svg width="40px" height="40px" viewBox="0 0 40 40" version="1.1" xmlns="http://www.w3.org/2000/svg" xmlns:xlink="http://www.w3.org/1999/xlink">
    <!-- Generator: Sketch 50.2 (55047) - http://www.bohemiancoding.com/sketch -->
    <title>PanalpinaCoin</title>
    <desc>Created with Sketch.</desc>
    <defs>
        <polygon id="path-1" points="14.6341463 13.6585366 7.56947396e-15 13.6585366 0 0 14.6341463 0"></polygon>
        <path d="M7.57107489,11.2057863 C9.66359854,11.2057863 11.3595685,9.45041031 11.3595685,7.28459025 C11.3595685,5.11934104 9.66359854,3.363965 7.57107489,3.363965 C5.47855125,3.363965 3.78313277,5.11934104 3.78313277,7.28459025 C3.78313277,9.45041031 5.47855125,11.2057863 7.57107489,11.2057863" id="path-3"></path>
        <filter x="-19.8%" y="-19.1%" width="139.6%" height="138.3%" filterUnits="objectBoundingBox" id="filter-4">
            <feOffset dx="0" dy="0" in="SourceAlpha" result="shadowOffsetOuter1"></feOffset>
            <feGaussianBlur stdDeviation="0.5" in="shadowOffsetOuter1" result="shadowBlurOuter1"></feGaussianBlur>
            <feColorMatrix values="0 0 0 0 0   0 0 0 0 0   0 0 0 0 0  0 0 0 0.599467844 0" type="matrix" in="shadowBlurOuter1"></feColorMatrix>
        </filter>
        <polygon id="path-5" points="36.097561 22.4390244 36.097561 0 0 0 0 22.4390244 36.097561 22.4390244"></polygon>
        <path d="M23.6720881,16.7186829 C21.7610739,16.7146971 19.3156282,14.7878552 19.3156282,14.7878552 L19.3156282,13.126922 L19.9923871,13.6126183 C19.9923871,13.6126183 21.7650118,14.8954714 23.1680349,14.9017347 C25.1499316,14.9097063 26.9703738,13.5630807 27.2786564,11.0918945 C27.4997422,11.5405799 27.5875015,12.2341063 27.574,12.7323294 C27.5616237,13.168488 27.327599,16.7266545 23.6720881,16.7186829 L23.6720881,16.7186829 Z M12.8169421,10.0874769 L13.8424879,9.26071137 L19.0365987,12.9481311 L19.0197219,14.6090643 L12.8169421,10.0874769 Z M14.9344156,8.35195258 C14.9344156,8.35195258 18.3311492,8.35707716 18.6388692,8.35707716 C18.9460267,8.35707716 18.9460267,8.51935551 18.9460267,8.51935551 L18.9460267,8.83707945 C18.9460267,8.83707945 18.9460267,9.12974989 19.1552988,9.12974989 C19.4005746,9.12974989 19.3893235,8.84106523 19.3893235,8.83764885 C19.3870732,8.83764885 19.3893235,8.83707945 19.3893235,8.83707945 L19.3893235,8.83764885 C19.4062002,8.83992644 19.6661027,8.8501756 22.7736808,8.8501756 C26.3183675,8.8501756 27.0080653,10.6563052 27.0080653,10.6563052 C27.0080653,10.6563052 27.0266298,10.8299715 27.0035648,11.005346 C26.6289003,13.8506265 24.3837257,14.6170359 23.216415,14.6050785 C21.8769611,14.591413 20.1847824,13.4213006 20.1847824,13.4213006 C20.1847824,13.4213006 14.2936605,9.23679666 14.0641363,9.07394891 L14.9344156,8.35195258 Z M18.342963,4.19079392 C18.5032924,4.02908497 18.5156687,4.02908497 18.7491309,4.02908497 C18.9460267,4.02908497 18.9460267,4.25285828 18.9460267,4.25285828 L18.9460267,6.98084283 C18.9460267,7.14312119 18.3311492,7.4915926 18.3311492,7.4915926 L15.4508452,7.29230339 L18.342963,4.19079392 Z M12.5789795,10.2742393 C12.8062535,10.4274073 18.3063966,14.4638679 18.3063966,14.4638679 C18.3063966,14.4638679 21.6513748,16.9185415 23.1466576,17.5494342 C24.8714647,18.2759857 27.5228071,18.3784773 29.8585537,16.937901 C31.7526912,15.7689275 33.1928433,13.3142538 33.1860925,10.5065536 C33.1731537,5.16275586 29.1418531,2.86637479 25.7451195,2.85783382 L19.4016998,2.85783382 C19.4016998,2.85783382 19.4382661,2.47405975 19.1800514,2.48430891 C18.9336503,2.49398867 18.9460267,2.85783382 18.9460267,2.85783382 C18.9460267,2.85783382 18.650683,2.88231793 18.2568914,3.20687464 C17.8630998,3.53086195 15.0694299,6.02197704 15.0694299,6.02197704 C15.0694299,6.02197704 15.0480526,5.13827176 14.8106526,4.91392905 C14.5434369,4.65997766 14.0635737,4.48801954 13.5555826,4.66396344 C13.0880957,4.8262418 12.7426842,5.18780936 12.7679994,5.84774134 C12.7972525,6.63180202 13.5156408,6.74397337 13.2726152,7.04347658 C13.0717815,7.2894564 12.1514343,6.86924087 12.1525594,6.05955729 L12.1525594,4.62695259 C12.1525594,4.62695259 11.99223,2.85783382 10.2938632,2.85783382 L2.37977769,2.85783382 C2.37977769,2.85783382 3.63147233,4.80403529 4.95292434,4.75734467 C5.14925757,5.30510529 5.65443591,6.57030706 7.29092118,6.57030706 C7.85741848,7.4915926 8.05375171,8.33885643 10.0227096,8.33885643 L11.4876142,8.33885643 C11.4876142,8.33885643 11.6833849,8.32576028 11.5118043,8.47494249 L9.71555216,9.99580384 C9.71555216,9.99580384 8.15219961,11.0799371 9.49390375,12.32521 L15.7709414,18.1176931 C15.7709414,18.1176931 15.9098936,18.3511462 16.1276041,18.043102 C16.3132487,17.7806097 16.8240526,17.2937746 17.2110935,17.0341293 C17.5553798,16.8023844 17.2110935,16.8849471 17.2110935,16.8849471 C17.2110935,16.8849471 16.5343345,16.996549 16.1894856,17.096763 C15.9644619,17.161105 15.8817656,17.1713541 15.5121641,16.6976152 C15.1431252,16.2244457 11.413919,11.5029996 11.413919,11.5029996 C11.413919,11.5029996 11.2659658,11.3663442 11.5618721,11.116948 L12.5789795,10.2742393 Z" id="path-7"></path>
        <filter x="-4.9%" y="-9.5%" width="109.7%" height="119.1%" filterUnits="objectBoundingBox" id="filter-8">
            <feOffset dx="0" dy="0" in="SourceAlpha" result="shadowOffsetOuter1"></feOffset>
            <feGaussianBlur stdDeviation="0.5" in="shadowOffsetOuter1" result="shadowBlurOuter1"></feGaussianBlur>
            <feColorMatrix values="0 0 0 0 0   0 0 0 0 0   0 0 0 0 0  0 0 0 0.6 0" type="matrix" in="shadowBlurOuter1"></feColorMatrix>
        </filter>
    </defs>
    <g id="PanalpinaCoin" stroke="none" stroke-width="1" fill="none" fill-rule="evenodd">
        <g id="Group-4">
            <circle id="Oval-2" fill="#E09500" cx="20" cy="20" r="20"></circle>
            <g id="Group-3" transform="translate(13.658537, 23.414634)">
                <mask id="mask-2" fill="white">
                    <use xlink:href="#path-1"></use>
                </mask>
                <g id="Clip-2"></g>
                <g id="Fill-1" mask="url(#mask-2)">
                    <use fill="black" fill-opacity="1" filter="url(#filter-4)" xlink:href="#path-3"></use>
                    <use fill="#FFAA00" fill-rule="evenodd" xlink:href="#path-3"></use>
                </g>
            </g>
            <g id="Group-6" transform="translate(1.951220, 9.756098)">
                <mask id="mask-6" fill="white">
                    <use xlink:href="#path-5"></use>
                </mask>
                <g id="Clip-5"></g>
                <g id="Fill-4" mask="url(#mask-6)">
                    <use fill="black" fill-opacity="1" filter="url(#filter-8)" xlink:href="#path-7"></use>
                    <use fill="#FFAA00" fill-rule="evenodd" xlink:href="#path-7"></use>
                </g>
            </g>
        </g>
    </g>
</svg>