<?xml version="1.0" encoding="UTF-8"?>
<svg width="40px" height="30px" viewBox="0 0 40 30" version="1.1" xmlns="http://www.w3.org/2000/svg" xmlns:xlink="http://www.w3.org/1999/xlink">
    <!-- Generator: Sketch 50.2 (55047) - http://www.bohemiancoding.com/sketch -->
    <title>PanalpinaIcon</title>
    <desc>Created with Sketch.</desc>
    <defs>
        <polygon id="path-1" points="10.3847273 10.1818182 0.394181818 10.1818182 0.394181818 0.191345455 10.3847273 0.191345455"></polygon>
        <polygon id="path-3" points="39.8254545 20.4051867 39.8254545 0.328727273 0 0.328727273 0 20.4051867 39.8254545 20.4051867"></polygon>
    </defs>
    <g id="PanalpinaIcon" stroke="none" stroke-width="1" fill="none" fill-rule="evenodd">
        <g id="Page-1">
            <g id="Group-3" transform="translate(16.727273, 18.580655)">
                <mask id="mask-2" fill="white">
                    <use xlink:href="#path-1"></use>
                </mask>
                <g id="Clip-2"></g>
                <path d="M5.38909091,10.1818909 C8.14836364,10.1818909 10.3847273,7.94552727 10.3847273,5.18625455 C10.3847273,2.42770909 8.14836364,0.191345455 5.38909091,0.191345455 C2.62981818,0.191345455 0.394181818,2.42770909 0.394181818,5.18625455 C0.394181818,7.94552727 2.62981818,10.1818909 5.38909091,10.1818909" id="Fill-1" fill="#373C8C" mask="url(#mask-2)"></path>
            </g>
            <g id="Group-6" transform="translate(0.000000, 0.398836)">
                <mask id="mask-4" fill="white">
                    <use xlink:href="#path-3"></use>
                </mask>
                <g id="Clip-5"></g>
                <path d="M27.5261818,18.5100364 C25.0556364,18.5049455 21.8941818,16.0438545 21.8941818,16.0438545 L21.8941818,13.9224 L22.7690909,14.5427636 C22.7690909,14.5427636 25.0607273,16.1813091 26.8745455,16.1893091 C29.4367273,16.1994909 31.7901818,14.4794909 32.1887273,11.3231273 C32.4745455,11.8962182 32.588,12.7820364 32.5705455,13.4184 C32.5545455,13.9754909 32.252,18.5202182 27.5261818,18.5100364 L27.5261818,18.5100364 Z M13.4927273,10.0402182 L14.8185455,8.98421818 L21.5334545,13.6940364 L21.5116364,15.8154909 L13.4927273,10.0402182 Z M16.2301818,7.82349091 C16.2301818,7.82349091 20.6214545,7.83003636 21.0192727,7.83003636 C21.4163636,7.83003636 21.4163636,8.03730909 21.4163636,8.03730909 L21.4163636,8.44312727 C21.4163636,8.44312727 21.4163636,8.81694545 21.6869091,8.81694545 C22.004,8.81694545 21.9894545,8.44821818 21.9894545,8.44385455 C21.9865455,8.44385455 21.9894545,8.44312727 21.9894545,8.44312727 L21.9894545,8.44385455 C22.0112727,8.44676364 22.3472727,8.45985455 26.3647273,8.45985455 C30.9472727,8.45985455 31.8389091,10.7667636 31.8389091,10.7667636 C31.8389091,10.7667636 31.8629091,10.9885818 31.8330909,11.2125818 C31.3487273,14.8467636 28.4461818,15.8256727 26.9370909,15.8104 C25.2054545,15.7929455 23.0178182,14.2984 23.0178182,14.2984 C23.0178182,14.2984 15.4018182,8.95367273 15.1050909,8.74567273 L16.2301818,7.82349091 Z M20.6367273,2.50858182 C20.844,2.30203636 20.86,2.30203636 21.1618182,2.30203636 C21.4163636,2.30203636 21.4163636,2.58785455 21.4163636,2.58785455 L21.4163636,6.07221818 C21.4163636,6.27949091 20.6214545,6.72458182 20.6214545,6.72458182 L16.8978182,6.47003636 L20.6367273,2.50858182 Z M13.1850909,10.2787636 C13.4789091,10.4744 20.5894545,15.6300364 20.5894545,15.6300364 C20.5894545,15.6300364 24.9138182,18.7653091 26.8469091,19.5711273 C29.0767273,20.4991273 32.5043636,20.6300364 35.524,18.7900364 C37.9727273,17.2969455 39.8345455,14.1616727 39.8258182,10.5754909 C39.8090909,3.75003636 34.5974545,0.816945455 30.2061818,0.806036364 L22.0054545,0.806036364 C22.0054545,0.806036364 22.0527273,0.315854545 21.7189091,0.328945455 C21.4003636,0.341309091 21.4163636,0.806036364 21.4163636,0.806036364 C21.4163636,0.806036364 21.0345455,0.837309091 20.5254545,1.25185455 C20.0163636,1.66567273 16.4047273,4.84749091 16.4047273,4.84749091 C16.4047273,4.84749091 16.3770909,3.71876364 16.0701818,3.43221818 C15.7247273,3.10785455 15.1043636,2.88821818 14.4476364,3.11294545 C13.8432727,3.32021818 13.3967273,3.78203636 13.4294545,4.62494545 C13.4672727,5.6264 14.396,5.76967273 14.0818182,6.15221818 C13.8221818,6.4664 12.6323636,5.92967273 12.6338182,4.89549091 L12.6338182,3.06567273 C12.6338182,3.06567273 12.4265455,0.806036364 10.2309091,0.806036364 L-0.000363636364,0.806036364 C-0.000363636364,0.806036364 1.61781818,3.29185455 3.32618182,3.23221818 C3.58,3.93185455 4.23309091,5.54785455 6.34872727,5.54785455 C7.08109091,6.72458182 7.33490909,7.80676364 9.88036364,7.80676364 L11.7741818,7.80676364 C11.7741818,7.80676364 12.0272727,7.79003636 11.8054545,7.98058182 L9.48327273,9.92312727 C9.48327273,9.92312727 7.46218182,11.3078545 9.19672727,12.8984 L17.3116364,20.2969455 C17.3116364,20.2969455 17.4912727,20.5951273 17.7727273,20.2016727 C18.0127273,19.8664 18.6730909,19.2445818 19.1734545,18.9129455 C19.6185455,18.6169455 19.1734545,18.7224 19.1734545,18.7224 C19.1734545,18.7224 18.2985455,18.8649455 17.8527273,18.9929455 C17.5618182,19.0751273 17.4549091,19.0882182 16.9770909,18.4831273 C16.5,17.8787636 11.6789091,11.8482182 11.6789091,11.8482182 C11.6789091,11.8482182 11.4876364,11.6736727 11.8701818,11.3551273 L13.1850909,10.2787636 Z" id="Fill-4" fill="#373C8C" mask="url(#mask-4)"></path>
            </g>
        </g>
    </g>
</svg>