<?xml version="1.0" encoding="UTF-8"?>
<svg width="15px" height="16px" viewBox="0 0 15 16" version="1.1" xmlns="http://www.w3.org/2000/svg" xmlns:xlink="http://www.w3.org/1999/xlink">
    <!-- Generator: Sketch 50.2 (55047) - http://www.bohemiancoding.com/sketch -->
    <title>PasswordIcon</title>
    <desc>Created with Sketch.</desc>
    <defs></defs>
    <g id="PasswordIcon" stroke="none" stroke-width="1" fill="none" fill-rule="evenodd" opacity="0.5">
        <path d="M12.2727273,5.33333333 L13.6363636,5.33333333 C14.0095455,5.33333333 14.33,5.46444444 14.5981818,5.72666667 C14.8659091,5.98888889 15,6.30222222 15,6.66666667 L15,14.6666667 C15,15.0311111 14.8659091,15.3444444 14.5981818,15.6066667 C14.33,15.8688889 14.0095455,16 13.6363636,16 L1.36363636,16 C0.990909091,16 0.670454545,15.8688889 0.402272727,15.6066667 C0.134090909,15.3444444 0,15.0311111 0,14.6666667 L0,6.66666667 C0,6.30222222 0.134090909,5.98888889 0.402272727,5.72666667 C0.670454545,5.46444444 0.990909091,5.33333333 1.36363636,5.33333333 L2.72727273,5.33333333 L2.72727273,2.66666667 C2.72727273,1.93733333 2.99545455,1.31066667 3.53181818,0.786666667 C4.06818182,0.262222222 4.70909091,0 5.45454545,0 L9.54545455,0 C10.2909091,0 10.9318182,0.262222222 11.4686364,0.786666667 C12.0045455,1.31066667 12.2727273,1.93733333 12.2727273,2.66666667 L12.2727273,5.33333333 L12.2727273,5.33333333 L12.2727273,5.33333333 L12.2727273,5.33333333 Z M5.45454545,5.33333333 L9.54545455,5.33333333 L9.54545455,3.33333333 C9.54545455,3.14666667 9.47954545,2.98888889 9.34772727,2.85955556 C9.21636364,2.73111111 9.05454545,2.66666667 8.86363636,2.66666667 L6.13636364,2.66666667 C5.94545455,2.66666667 5.78409091,2.73111111 5.65272727,2.85955556 C5.52045455,2.98888889 5.45454545,3.14666667 5.45454545,3.33333333 L5.45454545,5.33333333 L5.45454545,5.33333333 Z" id="Fill-196" fill="#231F20"></path>
    </g>
</svg>