<?xml version="1.0" encoding="UTF-8"?>
<svg width="60px" height="60px" viewBox="0 0 60 60" version="1.1" xmlns="http://www.w3.org/2000/svg" xmlns:xlink="http://www.w3.org/1999/xlink">
    <!-- Generator: Sketch 52.6 (67491) - http://www.bohemiancoding.com/sketch -->
    <title>PortGreen</title>
    <desc>Created with Sketch.</desc>
    <defs>
        <polygon id="path-1" points="0 36.6616692 27.2632361 36.6616692 27.2632361 0.511976923 0 0.511976923"></polygon>
    </defs>
    <g id="PortGreen" stroke="none" stroke-width="1" fill="none" fill-rule="evenodd">
        <g id="Page-1" transform="translate(16.000000, 11.000000)">
            <g id="Group-3" transform="translate(0.000000, 0.123208)" fill="#00C300">
                <path d="M27.2630875,13.8014538 C27.2630875,21.2085308 15.2832467,36.5386077 13.6314695,36.5386077 C11.7969867,36.5386077 -0.000148541114,21.2085308 -0.000148541114,13.8014538 C-0.000148541114,6.39437692 6.10340584,0.387453846 13.6314695,0.387453846 C21.1610186,0.387453846 27.2630875,6.39437692 27.2630875,13.8014538" id="Fill-1"></path>
            </g>
            <polygon id="Fill-4" fill="#FEFEFE" points="23.0345676 15.2077462 17.4895279 15.2077462 20.261305 12.4805154"></polygon>
            <polygon id="Fill-6" fill="#FEFEFE" points="9.77474801 15.2077462 4.22970822 15.2077462 7.00148541 12.4805154"></polygon>
            <path d="M20.2611565,15.2077462 C20.2611565,18.8104385 17.293305,21.7305923 13.6317666,21.7305923 C9.97022812,21.7305923 7.00089125,18.8104385 7.00089125,15.2077462" id="Stroke-8" stroke="#FEFEFE" stroke-width="1.5"></path>
            <mask id="mask-2" fill="white">
                <use xlink:href="#path-1"></use>
            </mask>
            <g id="Clip-11"></g>
            <polygon id="Fill-10" fill="#FEFEFE" mask="url(#mask-2)" points="12.6393634 21.0977462 14.9684881 21.0977462 14.9684881 8.60451538 12.6393634 8.60451538"></polygon>
            <path d="M10.8293899,8.6051 C10.8293899,6.9901 12.1603183,5.6791 13.803183,5.6791 C15.4445623,5.6791 16.7769761,6.9901 16.7769761,8.6051 C16.7769761,10.2201 15.4445623,11.5311 13.803183,11.5311 C12.1603183,11.5311 10.8293899,10.2201 10.8293899,8.6051" id="Fill-12" fill="#FEFEFE" mask="url(#mask-2)"></path>
            <path d="M12.6570398,8.6051 C12.6570398,7.98248462 13.170992,7.47825385 13.8022918,7.47825385 C14.4350769,7.47825385 14.9475438,7.98248462 14.9475438,8.6051 C14.9475438,9.22771538 14.4350769,9.73194615 13.8022918,9.73194615 C13.170992,9.73194615 12.6570398,9.22771538 12.6570398,8.6051" id="Fill-13" fill="#00C300" mask="url(#mask-2)"></path>
        </g>
    </g>
</svg>