<?xml version="1.0" encoding="UTF-8"?>
<svg width="50px" height="50px" viewBox="0 0 50 50" version="1.1" xmlns="http://www.w3.org/2000/svg" xmlns:xlink="http://www.w3.org/1999/xlink">
    <!-- Generator: Sketch 50.2 (55047) - http://www.bohemiancoding.com/sketch -->
    <title>PreviousArrowWhite</title>
    <desc>Created with Sketch.</desc>
    <defs></defs>
    <g id="PreviousArrowWhite" stroke="none" stroke-width="1" fill="none" fill-rule="evenodd">
        <g id="Group-2" transform="translate(25.000000, 25.000000) rotate(-180.000000) translate(-25.000000, -25.000000) ">
            <path d="M32.9194649,26.10503 L15.875,26.10503 C15.3917508,26.10503 15,25.7132792 15,25.23003 C15,24.7467809 15.3917508,24.35503 15.875,24.35503 L33.23003,24.35503 L24.3687184,15.4937184 C24.0270097,15.1520097 24.0270097,14.5979903 24.3687184,14.2562816 C24.7104272,13.9145728 25.2644465,13.9145728 25.6061553,14.2562816 L35.5056502,24.1557765 C35.6357485,24.2858748 35.7163146,24.4467483 35.7473487,24.6149631 C35.9035578,24.77301 36,24.9902574 36,25.23003 C36,25.594115 35.7776315,25.906263 35.4612995,26.0380692 L25.6061553,35.8932134 C25.2644465,36.2349221 24.7104272,36.2349221 24.3687184,35.8932134 C24.0270097,35.5515046 24.0270097,34.9974853 24.3687184,34.6557765 L32.9194649,26.10503 Z" id="Combined-Shape" fill="#FFFFFF"></path>
            <circle id="Oval" stroke-opacity="0.5" stroke="#FFFFFF" cx="25" cy="25" r="25"></circle>
        </g>
    </g>
</svg>