<?xml version="1.0" encoding="UTF-8"?>
<svg width="24px" height="24px" viewBox="0 0 24 24" version="1.1" xmlns="http://www.w3.org/2000/svg" xmlns:xlink="http://www.w3.org/1999/xlink">
    <!-- Generator: Sketch 50.2 (55047) - http://www.bohemiancoding.com/sketch -->
    <title>Print</title>
    <desc>Created with Sketch.</desc>
    <defs></defs>
    <g id="Print" stroke="none" stroke-width="1" fill="none" fill-rule="evenodd">
        <g id="PrintIcon" fill="#231F20">
            <path d="M24,8 L24,22 L20,22 L20,18 L4,18 L4,22 L0,22 L0,8 L4,8 L6,12 L18,12 L20,8 L24,8 L24,8 L24,8 L24,8 Z M18.9406667,7.42 L17.06,0.5 C17.0333333,0.353333333 16.9666667,0.233333333 16.86,0.14 C16.7533333,0.0466666667 16.6333333,0 16.5,0 L7.5,0 C7.36666667,0 7.24666667,0.0466666667 7.14,0.14 C7.03333333,0.233333333 6.96666667,0.353333333 6.94066667,0.5 L5.06,7.42 L5.86,9.9 L17.7,9.9 L18.9406667,7.42 L18.9406667,7.42 L18.9406667,7.42 L18.9406667,7.42 Z M17.62,20.48 L18.3806667,23.52 C18.4066667,23.6533333 18.3833333,23.7666667 18.31,23.86 C18.2366667,23.9533333 18.1333333,24 18,24 L6,24 C5.86666667,24 5.76333333,23.9533333 5.69066667,23.86 C5.61666667,23.7666667 5.59333333,23.6533333 5.62,23.52 L6.38066667,20.48 C6.40666667,20.3473333 6.48333333,20.2333333 6.61,20.14 C6.73666667,20.0466667 6.86666667,20 7,20 L17,20 C17.1333333,20 17.2633333,20.0466667 17.39,20.14 C17.5166667,20.2333333 17.5933333,20.3473333 17.62,20.48 L17.62,20.48 Z" id="Fill-49"></path>
        </g>
    </g>
</svg>