<?xml version="1.0" encoding="UTF-8"?>
<svg width="60px" height="60px" viewBox="0 0 60 60" version="1.1" xmlns="http://www.w3.org/2000/svg" xmlns:xlink="http://www.w3.org/1999/xlink">
    <!-- Generator: Sketch 52.6 (67491) - http://www.bohemiancoding.com/sketch -->
    <title>ReadyForCarriageDarkOrange</title>
    <desc>Created with Sketch.</desc>
    <defs>
        <polygon id="path-1" points="0.0277718165 43.8288902 27.9826612 43.8288902 27.9826612 18.1735364 0.0277718165 18.1735364"></polygon>
    </defs>
    <g id="ReadyForCarriageDarkOrange" stroke="none" stroke-width="1" fill="none" fill-rule="evenodd">
        <path d="M28,29.0673958 L39.3640642,25.050207 L50,29.0673958 L50,43.9859548 L47.7034811,43.9335097 L47.6581011,31.6588739 L30.2930789,31.711319 L30.2930789,43.9859548 L28,43.9859548 L28,29.0673958 Z M35.5703352,40.947911 L38.5984693,40.947911 L38.5984693,43.9760451 L35.5703352,43.9760451 L35.5703352,40.947911 Z M31.7851676,37.1627434 L34.8133017,37.1627434 L34.8133017,40.1908775 L31.7851676,40.1908775 L31.7851676,37.1627434 Z M35.5703352,37.1627434 L38.5984693,37.1627434 L38.5984693,40.1908775 L35.5703352,40.1908775 L35.5703352,37.1627434 Z M39.3555029,40.947911 L42.383637,40.947911 L42.383637,43.9760451 L39.3555029,43.9760451 L39.3555029,40.947911 Z M43.1406705,40.947911 L46.1688046,40.947911 L46.1688046,43.9760451 L43.1406705,43.9760451 L43.1406705,40.947911 Z M43.1406705,37.1627434 L46.1688046,37.1627434 L46.1688046,40.1908775 L43.1406705,40.1908775 L43.1406705,37.1627434 Z M39.3555029,37.1627434 L42.383637,37.1627434 L42.383637,40.1908775 L39.3555029,40.1908775 L39.3555029,37.1627434 Z M31.7851676,33.3775758 L34.8133017,33.3775758 L34.8133017,36.4057099 L31.7851676,36.4057099 L31.7851676,33.3775758 Z M31.7851676,40.947911 L34.8133017,40.947911 L34.8133017,43.9760451 L31.7851676,43.9760451 L31.7851676,40.947911 Z" id="Combined-Shape" fill="#FF7300"></path>
        <path d="M24.5453707,15.7001281 L13.5348582,15.5883412 C13.5348582,15.5883412 11.4028491,14.9720022 10.0926253,14.0102315 L9.20336505,11.9285769 L9.66259799,11.6929179 L12.096734,13.8944162 L15.2015918,13.9538345 L13.8994247,10.4068643 L14.6940185,10 L19.2591565,13.9780046 L24.515158,14.0515222 C24.515158,14.0515222 25.893864,14.3244435 25.9452255,14.9367541 C25.9452255,14.9367541 25.6602191,15.5369796 24.5453707,15.7001281 Z" id="Fill-1" fill="#FF7300"></path>
        <polygon id="Fill-3" fill="#FF7300" points="24.6768394 33.3932645 11.6965545 33.3932645 8.23593012 26.3816947 28.1374638 26.3816947"></polygon>
        <polygon id="Fill-5" fill="#FF7300" points="23.0306714 27.0011653 13.2021721 27.0011653 10.5811182 21.6913185 25.652631 21.6913185"></polygon>
        <mask id="mask-2" fill="white">
            <use xlink:href="#path-1"></use>
        </mask>
        <g id="Clip-8"></g>
        <polygon id="Fill-7" fill="#FF7300" mask="url(#mask-2)" points="15.2714944 44.1703109 20.6793426 44.1703109 20.6793426 32.2446649 15.2714944 32.2446649"></polygon>
        <polygon id="Fill-9" fill="#FF7300" mask="url(#mask-2)" points="17.6166825 27.1148266 18.7487894 27.1148266 18.7487894 19.3461304 17.6166825 19.3461304"></polygon>
        <polygon id="Fill-10" fill="#FF7300" mask="url(#mask-2)" points="14.0989003 19.306509 21.8678707 19.306509 21.8678707 18.1735364 14.0989003 18.1735364"></polygon>
        <circle id="Oval-3" fill="#FF7300" cx="45.5" cy="43.5" r="7.5"></circle>
        <path d="M50.3637661,39.7104891 C50.8811639,40.1175707 50.9729002,40.8699624 50.5686646,41.391003 L46.5480837,46.6008622 C46.1438482,47.1219028 45.3967168,47.2142849 44.8793189,46.8072033 C44.361921,46.4001218 44.2701848,45.6477301 44.6744203,45.1266895 L48.6950012,39.9168303 C49.0992368,39.3957897 49.8463682,39.3034076 50.3637661,39.7104891 Z" id="Rectangle" fill="#FFFFFF"></path>
        <path d="M40.3228933,43.371373 C40.672483,42.7987483 41.446742,42.6025526 42.0522492,42.9331577 L45.9790934,45.0772024 C46.5846006,45.4078074 46.7920627,46.1400198 46.442473,46.7126445 C46.0928832,47.2852692 45.3186242,47.4814649 44.7131171,47.1508599 L40.7862728,45.0068151 C40.1807657,44.6762101 39.9733036,43.9439977 40.3228933,43.371373 Z" id="Rectangle" fill="#FFFFFF"></path>
    </g>
</svg>