<?xml version="1.0" encoding="UTF-8"?>
<svg width="16px" height="16px" viewBox="0 0 16 16" version="1.1" xmlns="http://www.w3.org/2000/svg" xmlns:xlink="http://www.w3.org/1999/xlink">
    <!-- Generator: Sketch 52.6 (67491) - http://www.bohemiancoding.com/sketch -->
    <title>RecurrenceIcon</title>
    <desc>Created with Sketch.</desc>
    <g id="RecurrenceIcon" stroke="none" stroke-width="1" fill="none" fill-rule="evenodd">
        <g id="Group-22">
            <circle id="Oval" fill="#D0021B" cx="8" cy="8" r="8"></circle>
            <path d="M8.64166667,6.33333333 L9.86666667,5.10833333 C9.24444444,4.66388889 8.55861111,4.44166667 7.80833333,4.44166667 C6.825,4.44166667 5.98611111,4.78888889 5.29166667,5.48333333 C4.59722222,6.17777778 4.25,7.01666667 4.25,8 L3,8 C3,7.34444444 3.12638889,6.72083333 3.37916667,6.12916667 C3.63194444,5.5375 3.97388889,5.02638889 4.40416667,4.59583333 C4.83472222,4.16527778 5.34583333,3.82361111 5.93777778,3.57083333 C6.52916667,3.31805556 7.15277778,3.19166667 7.80833333,3.19166667 C8.90833333,3.19166667 9.89444444,3.53055556 10.7669444,4.20833333 L11.975,3 L11.975,6.33333333 L8.64166667,6.33333333 L8.64166667,6.33333333 L8.64166667,6.33333333 L8.64166667,6.33333333 Z M6.975,9.66666667 L5.75,10.8916667 C6.37222222,11.3361111 7.05833333,11.5583333 7.80833333,11.5583333 C8.79166667,11.5583333 9.63055556,11.2113889 10.3252778,10.5166667 C11.0197222,9.82222222 11.3669444,8.98333333 11.3669444,8 L12.6169444,8 C12.6169444,8.65555556 12.4905556,9.27916667 12.2377778,9.87083333 C11.9847222,10.4625 11.6430556,10.9736111 11.2125,11.4041667 C10.7819444,11.8347222 10.2711111,12.1763889 9.67916667,12.4291667 C9.08777778,12.6822222 8.46388889,12.8083333 7.80833333,12.8083333 C6.70833333,12.8083333 5.7225,12.4694444 4.85,11.7916667 L3.64166667,13 L3.64166667,9.66666667 L6.975,9.66666667 L6.975,9.66666667 Z" id="Fill-37" fill="#FFFFFF"></path>
        </g>
    </g>
</svg>