<?xml version="1.0" encoding="UTF-8"?>
<svg width="16px" height="16px" viewBox="0 0 16 16" version="1.1" xmlns="http://www.w3.org/2000/svg" xmlns:xlink="http://www.w3.org/1999/xlink">
    <!-- Generator: Sketch 50.2 (55047) - http://www.bohemiancoding.com/sketch -->
    <title>SaveIcon</title>
    <desc>Created with Sketch.</desc>
    <defs></defs>
    <g id="SaveIcon" stroke="none" stroke-width="1" fill="none" fill-rule="evenodd">
        <path d="M16,2.90909091 L16,15.2727273 C16,15.4763636 15.9272727,15.6484848 15.7818182,15.7886061 C15.6363636,15.9301818 15.4671515,16 15.2727273,16 L13.0909091,16 L13.0909091,10.1818182 L2.90909091,10.1818182 L2.90909091,16 L0.727272727,16 C0.523636364,16 0.351515152,15.9301818 0.211393939,15.7886061 C0.0703030303,15.6484848 0,15.4763636 0,15.2727273 L0,0.727272727 C0,0.533333333 0.0703030303,0.363636364 0.211393939,0.21769697 C0.351515152,0.0727272727 0.523636364,0 0.727272727,0 L4.36363636,0 L4.36363636,4.36363636 L11.6363636,4.36363636 L11.6363636,0 L13.0909091,0 L16,2.90909091 L16,2.90909091 L16,2.90909091 L16,2.90909091 Z M6.63495346,2.21165115 L7.74077903,2.21165115 L7.74077903,0 L6.63495346,0 L6.63495346,0 L6.63495346,2.21165115 L6.63495346,2.21165115 Z" id="Fill-163" fill="#000000"></path>
    </g>
</svg>