<?xml version="1.0" encoding="UTF-8"?>
<svg width="24px" height="24px" viewBox="0 0 24 24" version="1.1" xmlns="http://www.w3.org/2000/svg" xmlns:xlink="http://www.w3.org/1999/xlink">
    <!-- Generator: Sketch 50.2 (55047) - http://www.bohemiancoding.com/sketch -->
    <title>Search</title>
    <desc>Created with Sketch.</desc>
    <defs></defs>
    <g id="Search" stroke="none" stroke-width="1" fill="none" fill-rule="evenodd">
        <path d="M16.7214808,14.6027157 L23.5925452,21.4795013 C23.6809016,21.5813363 23.7253977,21.6959006 23.7253977,21.8231942 C23.7253977,21.9504879 23.6809016,22.0650522 23.5925452,22.1668871 L22.0973212,23.5829441 C21.9949803,23.6720497 21.8811976,23.7166025 21.7540661,23.7166025 C21.6269345,23.7166025 21.5125162,23.6720497 21.410811,23.5829441 L14.5397465,16.7061585 C13.0268814,17.699049 11.0350161,18.4830396 9.22974849,18.4830396 C6.68648239,18.4830396 4.51253337,17.5792546 2.70853707,15.7716846 C0.902633805,13.9641147 0,11.787393 0,9.24151982 C0,6.69564659 0.902633805,4.51892498 2.70853707,2.71135499 C4.51253337,0.903784996 6.68648239,5.32907052e-15 9.22974849,5.32907052e-15 C11.7723789,5.32907052e-15 13.946328,0.903784996 15.7522312,2.71135499 C17.5568632,4.51892498 18.4601326,6.69564659 18.4601326,9.24151982 C18.4601326,11.0490898 17.9643197,12.7102721 16.9726938,14.2250667 L16.7214808,14.6027157 Z M4.74369146,4.77334369 C3.50123056,6.01768711 2.88000011,7.51218204 2.88000011,9.25682848 C2.88000011,11.0014749 3.50123056,12.4959698 4.74369146,13.7403133 C5.98615236,14.9846567 7.48479077,15.6068284 9.23960668,15.6068284 C10.9944226,15.6068284 12.4898588,14.9885052 13.7259152,13.7499345 C14.9619717,12.5120052 15.5799999,11.0143032 15.5799999,9.25682848 C15.5799999,7.49935375 14.9619717,6.00165176 13.7259152,4.76372248 C12.4898588,3.52579321 10.9944226,2.90682857 9.23960668,2.90682857 C7.48479077,2.90682857 5.98615236,3.52900028 4.74369146,4.77334369 L4.74369146,4.77334369 Z" id="Fill-10" fill="#969696"></path>
        <circle id="Oval" fill="#969696" cx="22.5" cy="22.5" r="1.5"></circle>
    </g>
</svg>