<?xml version="1.0" encoding="UTF-8"?>
<svg width="48px" height="48px" viewBox="0 0 48 48" version="1.1" xmlns="http://www.w3.org/2000/svg" xmlns:xlink="http://www.w3.org/1999/xlink">
    <!-- Generator: Sketch 50.2 (55047) - http://www.bohemiancoding.com/sketch -->
    <title>SensorTemperature</title>
    <desc>Created with Sketch.</desc>
    <defs>
        <polygon id="path-1" points="0 0.0876437956 18.5569106 0.0876437956 18.5569106 47.8248175 0 47.8248175"></polygon>
    </defs>
    <g id="SensorTemperature" stroke="none" stroke-width="1" fill="none" fill-rule="evenodd">
        <g id="Group" transform="translate(13.000000, 0.000000)">
            <g id="Group-3" transform="translate(0.000000, 0.087591)">
                <mask id="mask-2" fill="white">
                    <use xlink:href="#path-1"></use>
                </mask>
                <g id="Clip-2"></g>
                <path d="M9.27845528,46.0730453 C5.14853659,46.0730453 1.78861789,42.7822423 1.78861789,38.7372788 C1.78861789,36.4085781 2.88074797,34.2692496 4.78508943,32.8681401 C5.01009756,32.7025927 5.14227642,32.4431474 5.14227642,32.1677606 L5.14227642,5.8905635 C5.14227642,3.65681168 6.99778862,1.83946861 9.27845528,1.83946861 C11.559122,1.83946861 13.4146341,3.65681168 13.4146341,5.8905635 L13.4146341,32.1677606 C13.4146341,32.4431474 13.546813,32.7025927 13.7718211,32.8681401 C15.6761626,34.2692496 16.7682927,36.4085781 16.7682927,38.7372788 C16.7682927,42.7822423 13.408374,46.0730453 9.27845528,46.0730453 M15.203252,31.7434686 L15.203252,5.8905635 C15.203252,2.69068029 12.5455447,0.0876437956 9.27845528,0.0876437956 C6.01136585,0.0876437956 3.35365854,2.69068029 3.35365854,5.8905635 L3.35365854,31.7434686 C1.21661789,33.4768993 0,36.001454 0,38.7372788 C0,43.7481985 4.16229268,47.8248701 9.27845528,47.8248701 C14.3946179,47.8248701 18.5569106,43.7481985 18.5569106,38.7372788 C18.5569106,36.001454 17.3402927,33.4768993 15.203252,31.7434686" id="Fill-1" fill="#373C8C" mask="url(#mask-2)"></path>
            </g>
            <path d="M8.49593496,5.97815474 C8.49593496,5.55543942 8.84704065,5.21173139 9.27845528,5.21173139 C9.70986992,5.21173139 10.0609756,5.55543942 10.0609756,5.97815474 L10.0609756,17.4745051 L8.49593496,17.4745051 L8.49593496,5.97815474 Z M11.8495935,34.5264175 L11.8495935,5.97815474 C11.8495935,4.58948321 10.6962927,3.45990657 9.27845528,3.45990657 C7.86061789,3.45990657 6.70731707,4.58948321 6.70731707,5.97815474 L6.70731707,34.5264175 C5.16195122,35.4130161 4.1921626,37.0427387 4.1921626,38.8248701 C4.1921626,41.5719066 6.47372358,43.8065343 9.27845528,43.8065343 C12.083187,43.8065343 14.3649268,41.5719066 14.3649268,38.8248701 C14.3649268,37.0427387 13.3949593,35.4130161 11.8495935,34.5264175 Z" id="Fill-4" fill="#D91A26"></path>
            <path d="M17.6626016,5.21173139 L21.0162602,5.21173139 C21.5102764,5.21173139 21.9105691,4.81949781 21.9105691,4.33581898 C21.9105691,3.85196496 21.5102764,3.45990657 21.0162602,3.45990657 L17.6626016,3.45990657 C17.1685854,3.45990657 16.7682927,3.85196496 16.7682927,4.33581898 C16.7682927,4.81949781 17.1685854,5.21173139 17.6626016,5.21173139" id="Fill-6" fill="#373C8C"></path>
            <path d="M21.0162602,16.5985927 L17.6626016,16.5985927 C17.1685854,16.5985927 16.7682927,16.9906511 16.7682927,17.4745051 C16.7682927,17.9581839 17.1685854,18.3504175 17.6626016,18.3504175 L21.0162602,18.3504175 C21.5102764,18.3504175 21.9105691,17.9581839 21.9105691,17.4745051 C21.9105691,16.9906511 21.5102764,16.5985927 21.0162602,16.5985927" id="Fill-8" fill="#373C8C"></path>
            <path d="M21.0162602,23.1679358 L17.6626016,23.1679358 C17.1685854,23.1679358 16.7682927,23.5599942 16.7682927,24.0438482 C16.7682927,24.5277022 17.1685854,24.9197606 17.6626016,24.9197606 L21.0162602,24.9197606 C21.5102764,24.9197606 21.9105691,24.5277022 21.9105691,24.0438482 C21.9105691,23.5599942 21.5102764,23.1679358 21.0162602,23.1679358" id="Fill-10" fill="#373C8C"></path>
            <path d="M21.0162602,29.7372788 L17.6626016,29.7372788 C17.1685854,29.7372788 16.7682927,30.1293372 16.7682927,30.6131912 C16.7682927,31.0970453 17.1685854,31.4891036 17.6626016,31.4891036 L21.0162602,31.4891036 C21.5102764,31.4891036 21.9105691,31.0970453 21.9105691,30.6131912 C21.9105691,30.1293372 21.5102764,29.7372788 21.0162602,29.7372788" id="Fill-12" fill="#373C8C"></path>
            <path d="M21.0162602,10.0292496 L17.6626016,10.0292496 C17.1685854,10.0292496 16.7682927,10.421308 16.7682927,10.905162 C16.7682927,11.3888409 17.1685854,11.7810745 17.6626016,11.7810745 L21.0162602,11.7810745 C21.5102764,11.7810745 21.9105691,11.3888409 21.9105691,10.905162 C21.9105691,10.421308 21.5102764,10.0292496 21.0162602,10.0292496" id="Fill-14" fill="#373C8C"></path>
        </g>
    </g>
</svg>