<?xml version="1.0" encoding="UTF-8"?>
<svg width="43px" height="48px" viewBox="0 0 43 48" version="1.1" xmlns="http://www.w3.org/2000/svg" xmlns:xlink="http://www.w3.org/1999/xlink">
    <!-- Generator: Sketch 50.2 (55047) - http://www.bohemiancoding.com/sketch -->
    <title>SensorLight</title>
    <desc>Created with Sketch.</desc>
    <defs></defs>
    <g id="SensorLight" stroke="none" stroke-width="1" fill="none" fill-rule="evenodd">
        <g id="Group">
            <path d="M26.9032258,40.6451613 L15.2903226,40.6451613 C14.8626581,40.6451613 14.516129,40.9916903 14.516129,41.4193548 C14.516129,41.8470194 14.8626581,42.1935484 15.2903226,42.1935484 L26.9032258,42.1935484 C27.3308903,42.1935484 27.6774194,41.8470194 27.6774194,41.4193548 C27.6774194,40.9916903 27.3308903,40.6451613 26.9032258,40.6451613" id="Fill-1" fill="#373C8C"></path>
            <path d="M26.9032258,43.5483871 L15.2903226,43.5483871 C14.8626581,43.5483871 14.516129,43.8949161 14.516129,44.3225806 C14.516129,44.7502452 14.8626581,45.0967742 15.2903226,45.0967742 L26.9032258,45.0967742 C27.3308903,45.0967742 27.6774194,44.7502452 27.6774194,44.3225806 C27.6774194,43.8949161 27.3308903,43.5483871 26.9032258,43.5483871" id="Fill-3" fill="#373C8C"></path>
            <path d="M24,46.4516129 L18.1935484,46.4516129 C17.7658839,46.4516129 17.4193548,46.7981419 17.4193548,47.2258065 C17.4193548,47.653471 17.7658839,48 18.1935484,48 L24,48 C24.4276645,48 24.7741935,47.653471 24.7741935,47.2258065 C24.7741935,46.7981419 24.4276645,46.4516129 24,46.4516129" id="Fill-5" fill="#373C8C"></path>
            <path d="M27.6185961,29.7530787 C27.6130219,29.7572594 27.6074477,29.7617497 27.6020284,29.7660852 C26.6791897,30.4582142 26.1290477,31.5563303 26.1290477,32.7097239 L26.1290477,37.7419819 L16.0645316,37.7419819 L16.0645316,32.7097239 C16.0645316,31.5552465 15.5134606,30.4560465 14.5892284,29.7640723 C14.5844284,29.7603561 14.5797832,29.75664 14.5749832,29.7530787 C11.831551,27.6827303 10.25808,24.5275819 10.25808,21.0968206 C10.25808,15.1203561 15.1203252,10.258111 21.0967897,10.258111 C27.0732542,10.258111 31.9354994,15.1203561 31.9354994,21.0968206 C31.9354994,24.5277368 30.3620284,27.6828852 27.6185961,29.7530787 M21.0967897,8.70972387 C14.2665445,8.70972387 8.7096929,14.2664206 8.7096929,21.0968206 C8.7096929,25.00944 10.4997832,28.6078916 13.6221058,30.9738271 C13.6307768,30.9809497 13.6397574,30.9877626 13.6485832,30.9942658 C14.1999639,31.4007174 14.5161445,32.0259561 14.5161445,32.7097239 L14.5161445,38.5161755 C14.5161445,38.9436852 14.8626735,39.290369 15.2903381,39.290369 L26.9032413,39.290369 C27.3309058,39.290369 27.6774348,38.9436852 27.6774348,38.5161755 L27.6774348,32.7097239 C27.6774348,32.0259561 27.9936155,31.4007174 28.5449961,30.9942658 C28.5549058,30.9871432 28.564351,30.979711 28.5737961,30.971969 C31.6947252,28.6063432 33.4838865,25.008511 33.4838865,21.0968206 C33.4838865,14.2664206 27.9270348,8.70972387 21.0967897,8.70972387" id="Fill-7" fill="#373C8C"></path>
            <path d="M15.5076077,28.5170942 L17.6129497,30.1058942 L17.6129497,33.4679071 L17.6129497,33.6761652 L17.6129497,35.4193394 C17.6129497,35.8470039 17.9594787,36.1935329 18.3871432,36.1935329 L23.8064981,36.1935329 C24.2340077,36.1935329 24.5806916,35.8470039 24.5806916,35.4193394 L24.5806916,33.6761652 L24.5806916,33.4679071 L24.5806916,30.1058942 L26.6858787,28.5170942 C29.0381884,26.7420232 30.3871432,24.0374555 30.3871432,21.0967587 L11.8064981,21.0967587 C11.8064981,24.0374555 13.1554529,26.7420232 15.5076077,28.5170942" id="Fill-9" fill="#D91A26"></path>
            <path d="M21.0967742,7.35483871 C21.5244387,7.35483871 21.8709677,7.00830968 21.8709677,6.58064516 L21.8709677,0.774193548 C21.8709677,0.346529032 21.5244387,0 21.0967742,0 C20.6691097,0 20.3225806,0.346529032 20.3225806,0.774193548 L20.3225806,6.58064516 C20.3225806,7.00830968 20.6691097,7.35483871 21.0967742,7.35483871" id="Fill-11" fill="#373C8C"></path>
            <path d="M6.58064516,14.516129 L0.774193548,14.516129 C0.346529032,14.516129 0,14.8626581 0,15.2903226 C0,15.7179871 0.346529032,16.0645161 0.774193548,16.0645161 L6.58064516,16.0645161 C7.00830968,16.0645161 7.35483871,15.7179871 7.35483871,15.2903226 C7.35483871,14.8626581 7.00830968,14.516129 6.58064516,14.516129" id="Fill-13" fill="#373C8C"></path>
            <path d="M41.4193548,14.516129 L35.6129032,14.516129 C35.1852387,14.516129 34.8387097,14.8626581 34.8387097,15.2903226 C34.8387097,15.7179871 35.1852387,16.0645161 35.6129032,16.0645161 L41.4193548,16.0645161 C41.8470194,16.0645161 42.1935484,15.7179871 42.1935484,15.2903226 C42.1935484,14.8626581 41.8470194,14.516129 41.4193548,14.516129" id="Fill-15" fill="#373C8C"></path>
            <path d="M12.3870968,10.2580645 C12.5851355,10.2580645 12.7834839,10.1825032 12.9344516,10.0312258 C13.2368516,9.72898065 13.2368516,9.23876129 12.9344516,8.93651613 L8.82874839,4.83065806 C8.52650323,4.52825806 8.03597419,4.52825806 7.73388387,4.83065806 C7.43148387,5.13290323 7.43148387,5.62312258 7.73388387,5.92552258 L11.8397419,10.0312258 C11.9907097,10.1825032 12.1890581,10.2580645 12.3870968,10.2580645" id="Fill-17" fill="#373C8C"></path>
            <path d="M33.3648619,4.83068903 L29.2590039,8.9365471 C28.9566039,9.23879226 28.9566039,9.72901161 29.2590039,10.0312568 C29.4101265,10.1823794 29.60832,10.2580955 29.8065135,10.2580955 C30.0045523,10.2580955 30.2027458,10.1823794 30.3538684,10.0312568 L34.4595716,5.92539871 C34.7619716,5.62315355 34.7619716,5.13293419 34.4595716,4.83068903 C34.1574813,4.52828903 33.6669523,4.52828903 33.3648619,4.83068903" id="Fill-19" fill="#373C8C"></path>
        </g>
    </g>
</svg>