<?xml version="1.0" encoding="UTF-8"?>
<svg width="48px" height="48px" viewBox="0 0 48 48" version="1.1" xmlns="http://www.w3.org/2000/svg" xmlns:xlink="http://www.w3.org/1999/xlink">
    <!-- Generator: Sketch 50.2 (55047) - http://www.bohemiancoding.com/sketch -->
    <title>SensorHumidity</title>
    <desc>Created with Sketch.</desc>
    <defs>
        <polygon id="path-1" points="0 0.0876437956 31.3138686 0.0876437956 31.3138686 47.8248175 0 47.8248175"></polygon>
    </defs>
    <g id="SensorHumidity" stroke="none" stroke-width="1" fill="none" fill-rule="evenodd">
        <g id="Group" transform="translate(10.000000, 0.000000)">
            <g id="Group-3" transform="translate(0.000000, 0.087591)">
                <mask id="mask-2" fill="white">
                    <use xlink:href="#path-1"></use>
                </mask>
                <g id="Clip-2"></g>
                <path d="M15.6569343,46.0730453 C7.98954745,46.0730453 1.75182482,39.8353226 1.75182482,32.1679358 C1.75182482,22.5146803 12.7436496,6.52139562 15.6569343,2.4526073 C18.5712701,6.52192117 29.5620438,22.5113518 29.5620438,32.1679358 C29.5620438,39.8353226 23.3243212,46.0730453 15.6569343,46.0730453 M16.3576642,0.438008759 C16.192292,0.217454015 15.9326715,0.0876437956 15.6569343,0.0876437956 C15.3811971,0.0876437956 15.1215766,0.217454015 14.9562044,0.438008759 C14.3455182,1.25225693 0,20.513746 0,32.1679358 C0,40.8011036 7.02376642,47.8248701 15.6569343,47.8248701 C24.2901022,47.8248701 31.3138686,40.8011036 31.3138686,32.1679358 C31.3138686,20.513746 16.9683504,1.25225693 16.3576642,0.438008759" id="Fill-1" fill="#373C8C" mask="url(#mask-2)"></path>
            </g>
            <path d="M24.8268088,23.7169226 C24.6933197,23.3854774 24.3718599,23.1686015 24.0144876,23.1686015 L7.29945109,23.1679007 C6.94225401,23.1679007 6.62061898,23.3847766 6.48730511,23.7162219 C5.08864818,27.1844847 4.37950949,30.0574774 4.37950949,32.255492 C4.37950949,38.4737693 9.43860438,43.5328642 15.6568818,43.5328642 C21.8751591,43.5328642 26.934254,38.4737693 26.934254,32.255492 C26.934254,30.0576526 26.2251153,27.184835 24.8268088,23.7169226" id="Fill-4" fill="#D91A26"></path>
        </g>
    </g>
</svg>