<?xml version="1.0" encoding="UTF-8"?>
<svg width="16px" height="16px" viewBox="0 0 16 16" version="1.1" xmlns="http://www.w3.org/2000/svg" xmlns:xlink="http://www.w3.org/1999/xlink">
    <!-- Generator: Sketch 52.6 (67491) - http://www.bohemiancoding.com/sketch -->
    <title>SettingsIcon</title>
    <desc>Created with Sketch.</desc>
    <g id="SettingsIcon" stroke="none" stroke-width="1" fill="none" fill-rule="evenodd">
        <path d="M6.36961761,13.7835719 C5.91388171,13.6627856 5.47765744,13.4816062 5.05908655,13.2400337 L4.98940217,13.198223 L3.13579745,14.3271101 C2.57832235,13.8997126 2.09053163,13.4119218 1.67242531,12.863738 L2.78737551,10.9961964 L2.74556488,10.926512 C2.52257484,10.5176969 2.34604106,10.0856537 2.21596353,9.63038239 L2.18855434,9.54676113 L0.0836212654,9.01715978 C0.0278737551,8.63621846 0,8.29244215 0,7.98583084 C0,7.75354955 0.0278737551,7.41441886 0.0836212654,6.96843878 L2.18855434,6.43883743 L2.21596353,6.35521617 C2.3367498,5.92828315 2.51328359,5.49577538 2.74556488,5.05908655 L2.78737551,4.98940217 L1.67242531,3.12186057 C2.09982289,2.58296797 2.5876136,2.09564182 3.13579745,1.65848843 L4.98940217,2.78737551 L5.05908655,2.74556488 C5.46790163,2.51328359 5.90505502,2.33210418 6.36961761,2.20202665 L6.43930199,2.18808978 L6.96843878,0.0696843878 C7.40512761,0.0232281293 7.74890392,1.15463195e-14 7.99976772,1.15463195e-14 C8.31567028,1.15463195e-14 8.65944659,0.0232281293 9.03156122,0.0696843878 L9.56069801,2.18808978 L9.64431927,2.20202665 C10.0902994,2.33210418 10.5223426,2.51328359 10.9404489,2.74556488 L11.0105978,2.78737551 L12.8776749,1.65848843 C13.4356145,2.09564182 13.9187596,2.58296797 14.3271101,3.12186057 L13.2126245,4.98940217 L13.2544351,5.05908655 C13.4676693,5.44931913 13.6488488,5.88136233 13.7979733,6.35521617 L13.8114457,6.43883743 L15.9303156,6.96843878 C15.9763073,7.38654511 16,7.72567579 16,7.98583084 C16,8.3017334 15.9763073,8.64550971 15.9303156,9.01715978 L13.8114457,9.54676113 L13.7979733,9.63038239 C13.65814,10.0856537 13.4769606,10.5176969 13.2544351,10.926512 L13.2126245,10.9961964 L14.3271101,12.863738 C13.88113,13.4305043 13.3975204,13.9182951 12.8776749,14.3271101 L11.0105978,13.198223 L10.9404489,13.2400337 C10.5037601,13.4816062 10.0712523,13.6627856 9.64431927,13.7835719 L9.56069801,13.8114457 L9.03156122,15.9159142 C8.59440783,15.9623704 8.25063151,15.9855986 7.99976772,15.9855986 C7.68432972,15.9855986 7.34008885,15.9623704 6.96843878,15.9159142 L6.43930199,13.8114457 L6.36961761,13.7835719 L6.36961761,13.7835719 L6.36961761,13.7835719 L6.36961761,13.7835719 Z M5.00333904,7.98583084 C5.00333904,8.81321681 5.29601347,9.51888737 5.88136233,10.1042362 C6.46717575,10.6895851 7.17284632,10.9822595 7.99976772,10.9822595 C8.82668912,10.9822595 9.53282425,10.6895851 10.1186377,10.1042362 C10.7039865,9.51888737 10.996661,8.81321681 10.996661,7.98583084 C10.996661,7.16820069 10.7039865,6.46671119 10.1186377,5.88136233 C9.53282425,5.29601347 8.82668912,5.00333904 7.99976772,5.00333904 C7.17284632,5.00333904 6.46717575,5.29601347 5.88136233,5.88136233 C5.29601347,6.46671119 5.00333904,7.16820069 5.00333904,7.98583084 L5.00333904,7.98583084 Z" id="Fill-25" fill="#000000"></path>
    </g>
</svg>