<?xml version="1.0" encoding="UTF-8"?>
<svg width="22px" height="16px" viewBox="0 0 22 16" version="1.1" xmlns="http://www.w3.org/2000/svg" xmlns:xlink="http://www.w3.org/1999/xlink">
    <!-- Generator: Sketch 50.2 (55047) - http://www.bohemiancoding.com/sketch -->
    <title>ShareIcon</title>
    <desc>Created with Sketch.</desc>
    <defs></defs>
    <g id="ShareIcon" stroke="none" stroke-width="1" fill="none" fill-rule="evenodd">
        <g id="ShareIconNegative" fill="#000000">
            <path d="M10.654828,10.654828 C9.53015168,10.6790973 8.44691084,10.7968923 7.40510544,11.0099889 C6.36330004,11.2230855 5.35701073,11.5314835 4.38623751,11.9334073 C3.4154643,12.335923 2.54532001,12.8834628 1.77580466,13.5760266 C1.00628931,14.2685905 0.414354421,15.0706622 0,15.982242 C0.0710321865,14.4195339 0.31372549,13.0077691 0.728671846,11.7469478 C1.14243433,10.4861265 1.75508694,9.34369219 2.56603774,8.31964484 C3.37698853,7.29559748 4.46614872,6.47872734 5.83411025,5.86903441 C7.2008879,5.25934147 8.80799112,4.90773215 10.654828,4.81243063 L10.654828,0 L21.3096559,8.04439512 L10.654828,16 L10.654828,10.654828 Z" id="Fill-97"></path>
        </g>
    </g>
</svg>