<?xml version="1.0" encoding="UTF-8"?>
<svg width="16px" height="13px" viewBox="0 0 16 13" version="1.1" xmlns="http://www.w3.org/2000/svg" xmlns:xlink="http://www.w3.org/1999/xlink">
    <!-- Generator: Sketch 52.6 (67491) - http://www.bohemiancoding.com/sketch -->
    <title>SnapshotIconNegative</title>
    <desc>Created with Sketch.</desc>
    <g id="SnapshotIconNegative" stroke="none" stroke-width="1" fill="none" fill-rule="evenodd">
        <path d="M15.6071111,12.6165 C15.3448889,12.8721667 15.0315556,13 14.6666667,13 L1.33333333,13 C0.968888889,13 0.655555556,12.8721667 0.393333333,12.6165 C0.131111111,12.3608333 0,12.0553333 0,11.7 L0,3.9 C0,3.54466667 0.131111111,3.23916667 0.393333333,2.9835 C0.655555556,2.72783333 0.968888889,2.6 1.33333333,2.6 L3.33333333,2.6 L3.49333333,2.34 C3.59111111,2.15843333 3.74222222,1.93916667 3.94666667,1.6835 C4.15111111,1.42783333 4.38222222,1.17216667 4.64,0.9165 C4.89777778,0.660833333 5.20888889,0.444166667 5.57333333,0.2665 C5.93777778,0.0888333333 6.30222222,0 6.66666667,0 L9.33333333,0 C9.70666667,0 10.0777778,0.0931666667 10.4466667,0.2795 C10.8151111,0.4654 11.1226667,0.673833333 11.3671111,0.903066667 C11.6111111,1.13316667 11.8466667,1.3975 12.0733333,1.69606667 C12.3,1.99593333 12.4466667,2.20306667 12.5133333,2.32093333 C12.58,2.4375 12.6311111,2.53066667 12.6666667,2.6 L14.6666667,2.6 C15.0315556,2.6 15.3448889,2.72783333 15.6071111,2.9835 C15.8688889,3.23916667 16,3.54466667 16,3.9 L16,11.7 C16,12.0553333 15.8688889,12.3608333 15.6071111,12.6165 C15.6071111,12.6165 15.8688889,12.3608333 15.6071111,12.6165 L15.6071111,12.6165 L15.6071111,12.6165 Z M8,4.628 C7.11111111,4.628 6.34666667,4.94 5.70666667,5.564 C5.06711111,6.18756667 4.74666667,6.93333333 4.74666667,7.8 C4.74666667,8.66666667 5.06711111,9.41156667 5.70666667,10.036 C6.34666667,10.66 7.11111111,10.972 8,10.972 C8.88888889,10.972 9.65377778,10.66 10.2933333,10.036 C10.9333333,9.41156667 11.2537778,8.66666667 11.2537778,7.8 C11.2537778,6.93333333 10.9333333,6.18756667 10.2933333,5.564 C9.65377778,4.94 8.88888889,4.628 8,4.628 L8,4.628 L8,4.628 L8,4.628 Z M8,9.178 C7.60844444,9.178 7.27511111,9.04323333 7,8.775 C6.72444444,8.5059 6.58711111,8.1809 6.58711111,7.8 C6.58711111,7.41823333 6.72444444,7.09323333 7,6.825 C7.27511111,6.5559 7.60844444,6.422 8,6.422 C8.39111111,6.422 8.72444444,6.5559 9,6.825 C9.27511111,7.09323333 9.41333333,7.41823333 9.41333333,7.8 C9.41333333,8.1809 9.27511111,8.5059 9,8.775 C8.72444444,9.04323333 8.39111111,9.178 8,9.178 L8,9.178 L8,9.178 L8,9.178 Z M12,5.2 L13.3333333,5.2 L13.3333333,3.9 L12,3.9 L12,3.9 L12,5.2 L12,5.2 Z" id="Fill-195" fill="#FFFFFF"></path>
    </g>
</svg>