<?xml version="1.0" encoding="UTF-8"?>
<svg width="16px" height="16px" viewBox="0 0 16 16" version="1.1" xmlns="http://www.w3.org/2000/svg" xmlns:xlink="http://www.w3.org/1999/xlink">
    <!-- Generator: Sketch 50.2 (55047) - http://www.bohemiancoding.com/sketch -->
    <title>SortIcon</title>
    <desc>Created with Sketch.</desc>
    <defs></defs>
    <g id="SortIcon" stroke="none" stroke-width="1" fill="none" fill-rule="evenodd">
        <path d="M0,12 L2.65756949,12 L2.65756949,0 L5.34198311,0 L5.34198311,12 L8,12 L3.9997763,16 L0,12 L0,12 L0,12 L0,12 Z M9,3 L16,3 L16,0 L9,0 L9,0 L9,3 L9,3 Z M9,7 L14,7 L14,4 L9,4 L9,4 L9,7 L9,7 Z M9,11 L13,11 L13,8 L9,8 L9,8 L9,11 L9,11 Z M9,15 L12,15 L12,12 L9,12 L9,12 L9,15 L9,15 Z" id="Fill-147" fill="#000000"></path>
    </g>
</svg>