<?xml version="1.0" encoding="UTF-8"?>
<svg width="14px" height="9px" viewBox="0 0 14 9" version="1.1" xmlns="http://www.w3.org/2000/svg" xmlns:xlink="http://www.w3.org/1999/xlink">
    <!-- Generator: Sketch 50.2 (55047) - http://www.bohemiancoding.com/sketch -->
    <title>TrackIconNegative</title>
    <desc>Created with Sketch.</desc>
    <defs></defs>
    <g id="TrackIconNegative" stroke="none" stroke-width="1" fill="none" fill-rule="evenodd">
        <path d="M13,4.5 L12.7536842,4.87894737 C12.7157895,4.94210526 12.6526316,5.03684211 12.5645263,5.16315789 C12.4757895,5.28978947 12.3210526,5.49 12.1003158,5.76473684 C11.8789474,6.03947368 11.644,6.30947368 11.3942105,6.57473684 C11.1447368,6.84 10.8384211,7.12421053 10.4752632,7.42736842 C10.1121053,7.73052632 9.74421053,7.99452632 9.37157895,8.21842105 C8.99926316,8.44263158 8.58052632,8.62894737 8.11663158,8.77736842 C7.65210526,8.92578947 7.19294737,9 6.73789474,9 C6.28315789,9 5.824,8.92578947 5.35947368,8.77736842 C4.89526316,8.62894737 4.47684211,8.44263158 4.10421053,8.21842105 C3.73157895,7.99452632 3.36368421,7.73052632 3.00052632,7.42736842 C2.63736842,7.12421053 2.33105263,6.84 2.08157895,6.57473684 C1.83210526,6.30947368 1.59684211,6.03947368 1.37578947,5.76473684 C1.15473684,5.49 1,5.28978947 0.911578947,5.16315789 C0.823473684,5.03684211 0.760315789,4.94210526 0.722421053,4.87894737 L0.475789474,4.5 L0.722421053,4.12105263 C0.760315789,4.05789474 0.823473684,3.96315789 0.911578947,3.83684211 C1,3.71052632 1.15473684,3.51 1.37578947,3.23526316 C1.59684211,2.96052632 1.83210526,2.69052632 2.08157895,2.42526316 C2.33105263,2.16 2.63736842,1.87578947 3.00052632,1.57263158 C3.36368421,1.26947368 3.73157895,1.00578947 4.10421053,0.781578947 C4.47684211,0.557368421 4.89526316,0.371052632 5.35947368,0.222631579 C5.824,0.0742105263 6.28315789,0 6.73789474,0 C7.19294737,0 7.65210526,0.0742105263 8.11663158,0.222631579 C8.58052632,0.371052632 8.99926316,0.557368421 9.37157895,0.781578947 C9.74421053,1.00578947 10.1121053,1.26947368 10.4752632,1.57263158 C10.8384211,1.87578947 11.1447368,2.16 11.3942105,2.42526316 C11.644,2.69052632 11.8789474,2.96052632 12.1003158,3.23526316 C12.3210526,3.51 12.4757895,3.71052632 12.5645263,3.83684211 C12.6526316,3.96315789 12.7157895,4.05789474 12.7536842,4.12105263 L13,4.5 L13,4.5 L13,4.5 L13,4.5 Z M5.55368421,7.70684211 C5.93894737,7.84263158 6.33368421,7.91052632 6.73789474,7.91052632 C7.14210526,7.91052632 7.53210526,7.84736842 7.90789474,7.72105263 C8.28368421,7.59473684 8.60105263,7.45105263 8.86,7.29 C9.11894737,7.12894737 9.38894737,6.90315789 9.67,6.61263158 C9.95105263,6.32242105 10.1610526,6.08368421 10.3003158,5.89736842 C10.4389474,5.71105263 10.6221053,5.45368421 10.8494737,5.12526316 C11.0771579,4.79715789 11.2252632,4.58842105 11.2947368,4.5 C11.2887368,4.494 11.1984211,4.37557895 11.0250526,4.14473684 C10.8510526,3.91421053 10.7184211,3.74052632 10.6271579,3.62368421 C10.5352632,3.50684211 10.3978947,3.33947368 10.2147368,3.12157895 C10.0315789,2.90368421 9.85031579,2.70347368 9.67,2.52 C9.49,2.33684211 9.30526316,2.16631579 9.11610526,2.00842105 C9.42526316,2.47578947 9.58,2.99052632 9.58,3.55263158 C9.58,4.33578947 9.30210526,5.00526316 8.74663158,5.56105263 C8.19052632,6.11684211 7.52105263,6.39473684 6.73789474,6.39473684 C5.95473684,6.39473684 5.28526316,6.11684211 4.72947368,5.56105263 C4.17368421,5.00526316 3.89578947,4.33578947 3.89578947,3.55263158 C3.89578947,3.01578947 4.04105263,2.51684211 4.33157895,2.05578947 C3.68736842,2.60526316 2.97368421,3.42 2.19052632,4.5 C2.23473684,4.56315789 2.36263158,4.74631579 2.57452632,5.04947368 C2.78578947,5.35263158 2.96263158,5.60052632 3.10473684,5.79315789 C3.24715789,5.98578947 3.46157895,6.23052632 3.74894737,6.52736842 C4.03663158,6.82421053 4.31294737,7.06105263 4.57789474,7.23789474 C4.84315789,7.41473684 5.16873684,7.57105263 5.55368421,7.70684211 C5.55368421,7.70684211 5.16873684,7.57105263 5.55368421,7.70684211 L5.55368421,7.70684211 L5.55368421,7.70684211 Z M5.63894737,2.96526316 L4.62526316,3.96947368 C4.93473684,4.75263158 5.42105263,5.35578947 6.08421053,5.77894737 L7.07894737,4.78421053 C6.84526316,4.63263158 6.60842105,4.40526316 6.36842105,4.10210526 C6.12842105,3.79894737 5.94842105,3.53368421 5.82842105,3.30631579 L5.63894737,2.96526316 L5.63894737,2.96526316 Z" id="Fill-103" fill="#FFFFFF"></path>
    </g>
</svg>