<?xml version="1.0" encoding="UTF-8"?>
<svg width="60px" height="60px" viewBox="0 0 60 60" version="1.1" xmlns="http://www.w3.org/2000/svg" xmlns:xlink="http://www.w3.org/1999/xlink">
    <!-- Generator: Sketch 52.6 (67491) - http://www.bohemiancoding.com/sketch -->
    <title>TransshipmentPortDarkOrange</title>
    <desc>Created with Sketch.</desc>
    <defs>
        <polygon id="path-1" points="0.165037037 0.315259259 21.9179259 0.315259259 21.9179259 29.6296296 0.165037037 29.6296296"></polygon>
        <polygon id="path-3" points="0 30.4999111 31.3007407 30.4999111 31.3007407 1.18554074 0 1.18554074"></polygon>
    </defs>
    <g id="TransshipmentPortDarkOrange" stroke="none" stroke-width="1" fill="none" fill-rule="evenodd">
        <g id="Page-1" transform="translate(14.000000, 15.000000)">
            <path d="M0.545303704,24.5974519 C0.545303704,24.5974519 3.67893333,22.9737481 7.23093333,21.2338963 C9.30856296,20.2170074 10.1500444,20.2170074 10.9061926,20.2170074 C11.4644148,20.2170074 12.1731556,20.2632296 12.8795259,20.5453037 C17.5420444,22.4072296 18.4309333,22.7556741 18.4309333,22.7556741 C18.4309333,22.7556741 21.1248593,24.0451556 24.406637,23.0970074 C25.8987852,22.6667852 28.1150815,21.8810074 30.1156741,20.2170074" id="Stroke-3" stroke="#FF7300" stroke-width="2"></path>
            <path d="M0.545303704,19.8567111 C0.545303704,19.8567111 3.67893333,18.2330074 7.23093333,16.4931556 C9.30856296,15.4762667 10.1500444,15.4762667 10.9061926,15.4762667 C11.4644148,15.4762667 12.1731556,15.5224889 12.8795259,15.804563 C17.5420444,17.6664889 18.4309333,18.0149333 18.4309333,18.0149333 C18.4309333,18.0149333 21.1248593,19.3044148 24.406637,18.3562667 C25.8987852,17.9260444 28.1150815,17.1402667 30.1156741,15.4762667" id="Stroke-3-Copy-2" stroke="#FF7300" stroke-width="2"></path>
            <path d="M0.972325926,28.9029926 C0.972325926,28.9029926 4.10595556,27.2792889 7.65795556,25.5406222 C9.73558519,24.5237333 10.5758815,24.5237333 11.3332148,24.5237333 C11.891437,24.5237333 12.6001778,24.5687704 13.3065481,24.8508444 C17.9690667,26.7139556 18.8579556,27.0612148 18.8579556,27.0612148 C18.8579556,27.0612148 21.5506963,28.3506963 24.8336593,27.4037333 C26.3258074,26.9735111 28.5421037,26.1877333 30.5426963,24.5237333" id="Stroke-5" stroke="#FF7300" stroke-width="2"></path>
            <g id="Group-9" transform="translate(4.555556, 0.870281)">
                <mask id="mask-2" fill="white">
                    <use xlink:href="#path-1"></use>
                </mask>
                <g id="Clip-8"></g>
                <path d="M21.9179259,11.1913481 C21.9179259,17.1978667 12.3594074,29.6304593 11.0414815,29.6304593 C9.57777778,29.6304593 0.165037037,17.1978667 0.165037037,11.1913481 C0.165037037,5.18482963 5.03496296,0.314903704 11.0414815,0.314903704 C17.0491852,0.314903704 21.9179259,5.18482963 21.9179259,11.1913481" id="Fill-7" fill="#FF7300" mask="url(#mask-2)"></path>
            </g>
            <polygon id="Fill-10" fill="#FEFEFE" points="23.0996148 13.1021037 18.6753185 13.1021037 20.8880593 10.8905481"></polygon>
            <polygon id="Fill-12" fill="#FEFEFE" points="12.5198222 13.1021037 8.09552593 13.1021037 10.3082667 10.8905481"></polygon>
            <path d="M20.8878222,13.1021037 C20.8878222,16.0235852 18.518637,18.3927704 15.5971556,18.3927704 C12.6756741,18.3927704 10.3076741,16.0235852 10.3076741,13.1021037" id="Stroke-14" stroke="#FEFEFE" stroke-width="1.5"></path>
            <mask id="mask-4" fill="white">
                <use xlink:href="#path-3"></use>
            </mask>
            <g id="Clip-17"></g>
            <polygon id="Fill-16" fill="#FEFEFE" mask="url(#mask-4)" points="14.8053333 17.8788741 16.6637037 17.8788741 16.6637037 7.74791111 14.8053333 7.74791111"></polygon>
            <path d="M13.3611852,7.74791111 C13.3611852,6.43828148 14.4231111,5.37635556 15.7339259,5.37635556 C17.0435556,5.37635556 18.1066667,6.43828148 18.1066667,7.74791111 C18.1066667,9.05754074 17.0435556,10.1206519 15.7339259,10.1206519 C14.4231111,10.1206519 13.3611852,9.05754074 13.3611852,7.74791111" id="Fill-18" fill="#FEFEFE" mask="url(#mask-4)"></path>
            <path d="M14.8207407,7.74791111 C14.8207407,7.24302222 15.2296296,6.83413333 15.7345185,6.83413333 C16.2382222,6.83413333 16.6482963,7.24302222 16.6482963,7.74791111 C16.6482963,8.2528 16.2382222,8.66168889 15.7345185,8.66168889 C15.2296296,8.66168889 14.8207407,8.2528 14.8207407,7.74791111" id="Fill-19" fill="#FF7300" mask="url(#mask-4)"></path>
        </g>
    </g>
</svg>