<?xml version="1.0" encoding="UTF-8"?>
<svg width="15px" height="10px" viewBox="0 0 15 10" version="1.1" xmlns="http://www.w3.org/2000/svg" xmlns:xlink="http://www.w3.org/1999/xlink">
    <!-- Generator: Sketch 50.2 (55047) - http://www.bohemiancoding.com/sketch -->
    <title>Truck</title>
    <desc>Created with Sketch.</desc>
    <defs></defs>
    <g id="Truck" stroke="none" stroke-width="1" fill="none" fill-rule="evenodd">
        <path d="M3,6.28571429 C1.96608717,6.28571429 1.125,7.16685323 1.125,8.25 C1.125,8.26022745 1.12507499,8.27043689 1.12522442,8.28062775 L0.376697449,8.28062775 C0.146277887,8.28062775 -0.000266381421,8.12138368 4.6321989e-12,7.86527589 L3.7411761e-12,5.5 L11.2569142,5.5 L11.2569142,1.33226923 C13.5311796,1.33226923 14.9667736,2.14792288 15,4.35911829 L15,8.28062775 C14.7604096,8.28623128 14.5102518,8.29084663 14.2495265,8.29447381 C14.2498416,8.27968842 14.25,8.26486323 14.25,8.25 C14.25,7.16685323 13.4089128,6.28571429 12.375,6.28571429 C11.3410872,6.28571429 10.5,7.16685323 10.5,8.25 C10.5,8.26307451 10.5001226,8.27611959 10.5003665,8.28913404 C10.3051609,8.28661031 10.106622,8.28377488 9.90474972,8.28062775 L7.87477558,8.28062775 C7.87492501,8.27043689 7.875,8.26022745 7.875,8.25 C7.875,7.16685323 7.03391283,6.28571429 6,6.28571429 L3,6.28571429 Z M4.49913565,7.07142857 L4.50086435,7.07142857 C4.50057614,7.07183002 4.500288,7.07223159 4.5,7.07263328 C4.499712,7.07223159 4.49942386,7.07183002 4.49913557,7.07142857 Z" id="Combined-Shape" fill="#373C8C"></path>
        <path d="M9.71228869,4.71428571 L10.5,4.71428571 L10.5,0.398942538 C10.5,0.200519779 10.3250937,0.0384510727 10.1109536,0.0384510727 L0.389097644,0.0384510727 C0.175210737,0.0384510727 5.12820525e-05,0.200519779 5.12820525e-05,0.398942538 L5.12820525e-05,4.71428571 L0.389097644,4.71428571 L9.71228869,4.71428571 Z" id="Path" fill="#373C8C"></path>
        <path d="M12.375,7.07142857 C11.7546523,7.07142857 11.25,7.60011194 11.25,8.25 C11.25,8.89988806 11.7546523,9.42857143 12.375,9.42857143 C12.9953477,9.42857143 13.5,8.89988806 13.5,8.25 C13.5,7.60011194 12.9953477,7.07142857 12.375,7.07142857" id="Fill-7" fill="#373C8C"></path>
        <path d="M3,7.07142857 C2.3796523,7.07142857 1.875,7.60011194 1.875,8.25 C1.875,8.89988806 2.3796523,9.42857143 3,9.42857143 C3.6203477,9.42857143 4.125,8.89988806 4.125,8.25 C4.125,7.60011194 3.6203477,7.07142857 3,7.07142857" id="Fill-7" fill="#373C8C"></path>
        <path d="M6,7.07142857 C5.3796523,7.07142857 4.875,7.60011194 4.875,8.25 C4.875,8.89988806 5.3796523,9.42857143 6,9.42857143 C6.6203477,9.42857143 7.125,8.89988806 7.125,8.25 C7.125,7.60011194 6.6203477,7.07142857 6,7.07142857" id="Fill-7" fill="#373C8C"></path>
    </g>
</svg>