<?xml version="1.0" encoding="UTF-8"?>
<svg width="60px" height="60px" viewBox="0 0 60 60" version="1.1" xmlns="http://www.w3.org/2000/svg" xmlns:xlink="http://www.w3.org/1999/xlink">
    <!-- Generator: Sketch 52.6 (67491) - http://www.bohemiancoding.com/sketch -->
    <title>UpdatedOnTimeGreen</title>
    <desc>Created with Sketch.</desc>
    <g id="UpdatedOnTimeGreen" stroke="none" stroke-width="1" fill="none" fill-rule="evenodd">
        <g id="Group" transform="translate(12.000000, 11.000000)">
            <circle id="Oval-3" fill="#00C300" cx="12.5" cy="12.5" r="12.5"></circle>
            <circle id="Oval-3" stroke="#FFFFFF" stroke-width="2" cx="12.5" cy="12.5" r="9.5"></circle>
            <path d="M17.8053452,8.57715896 C18.1461455,9.18936062 18.0278597,10.0331524 17.5411464,10.4618206 L12.6930006,14.7551577 C12.2062874,15.183826 11.5354551,15.0350427 11.1946548,14.422841 C10.8538545,13.8106394 10.9721403,12.9668476 11.4588536,12.5381794 L16.3069994,8.24484226 C16.7937126,7.81617405 17.4645449,7.9649573 17.8053452,8.57715896 Z" id="Rectangle" fill="#FFFFFF"></path>
            <path d="M7.15774666,10.6596461 C7.48248222,10.028849 8.20169509,9.81272199 8.76415357,10.1769128 L12.4118179,12.5387689 C12.9742764,12.9029598 13.1669889,13.7095569 12.8422533,14.3403539 C12.5175178,14.971151 11.7983049,15.187278 11.2358464,14.8230872 L7.58818209,12.4612311 C7.02572361,12.0970402 6.83301111,11.2904431 7.15774666,10.6596461 Z" id="Rectangle" fill="#FFFFFF"></path>
        </g>
        <path d="M27,37 L31,37 L31,46 L27,46 L27,46 L27,37 L27,37 Z M42.39,26.8093333 C42.7973333,27.35 43,27.9133333 43,28.5 L43,31.5 C43,31.5933333 42.8133333,32.4266667 42.44,34 L49,34 C49.52,34 49.9833333,34.27 50.39,34.8093333 C50.7973333,35.35 51,35.9133333 51,36.5 L51,38.5 C51,39.0733333 50.8066667,39.5666667 50.42,39.9793333 L45.6606667,46.86 C45.1666667,47.6193333 44.6133333,48 44,48 L39,48 C38.7866667,48 37.86,47.3333333 36.22,46 L35,46 C33.6666667,46 33,45.5 33,44.5 L33,36.5 C33,36.0066667 33.1333333,35.586 33.4,35.24 L36.3006667,31.32 L38.22,27.36 C38.4066667,26.9866667 38.6606667,26.6666667 38.9806667,26.3993333 C39.3006667,26.1333333 39.64,26 40,26 L41,26 C41.52,26 41.9833333,26.27 42.39,26.8093333 C42.39,26.8093333 41.9833333,26.27 42.39,26.8093333 L42.39,26.8093333 L42.39,26.8093333 Z M41,28 L40,28 L38,32.2593333 L35,36.5 L35,44 L37,44 L39.72,46 L44,46 L49,38.5 L49,36 L40,36 L41,31.5 L41,28 L41,28 Z" id="Fill-121" fill="#00C300"></path>
    </g>
</svg>