<?xml version="1.0" encoding="UTF-8"?>
<svg width="16px" height="16px" viewBox="0 0 16 16" version="1.1" xmlns="http://www.w3.org/2000/svg" xmlns:xlink="http://www.w3.org/1999/xlink">
    <!-- Generator: Sketch 52.6 (67491) - http://www.bohemiancoding.com/sketch -->
    <title>ValidIcon</title>
    <desc>Created with Sketch.</desc>
    <g id="ValidIcon" stroke="none" stroke-width="1" fill="none" fill-rule="evenodd">
        <path d="M3.98648837,1.0720268 C5.21481812,0.357342267 6.55258089,0 7.99977667,0 C9.44741911,0 10.7847352,0.357342267 12.0135116,1.0720268 C13.2413947,1.78671133 14.2133385,2.75823562 14.9275565,3.98659966 C15.642221,5.21496371 16,6.55276382 16,8 C16,9.44723618 15.642221,10.7850363 14.9275565,12.0134003 C14.2133385,13.2417644 13.2413947,14.2132887 12.0135116,14.9279732 C10.7847352,15.6426577 9.44741911,16 7.99977667,16 C6.55258089,16 5.21481812,15.6426577 3.98648837,14.9279732 C2.75815862,14.2132887 1.78666146,13.2417644 1.07244354,12.0134003 C0.357332291,10.7850363 0,9.44723618 0,8 C0,6.55276382 0.357332291,5.21496371 1.07244354,3.98659966 C1.78666146,2.75823562 2.75815862,1.78671133 3.98648837,1.0720268 C3.98648837,1.0720268 2.75815862,1.78671133 3.98648837,1.0720268 L3.98648837,1.0720268 L3.98648837,1.0720268 Z M7.27617878,7.69179229 L5.90982943,6.32495812 L3.57778956,8.65661642 L7.27617878,12.3685092 L12.7835627,6.86097152 L10.4385696,4.52931323 L7.27617878,7.69179229 L7.27617878,7.69179229 Z" id="Fill-86" fill="#41BE41"></path>
    </g>
</svg>