<?xml version="1.0" encoding="UTF-8"?>
<svg width="14px" height="14px" viewBox="0 0 14 14" version="1.1" xmlns="http://www.w3.org/2000/svg" xmlns:xlink="http://www.w3.org/1999/xlink">
    <!-- Generator: Sketch 50.2 (55047) - http://www.bohemiancoding.com/sketch -->
    <title>ViewIconNegative</title>
    <desc>Created with Sketch.</desc>
    <defs></defs>
    <g id="ViewIconNegative" stroke="none" stroke-width="1" fill="none" fill-rule="evenodd">
        <g id="Group" transform="translate(7.000000, 7.000000) scale(-1, 1) translate(-7.000000, -7.000000) " fill="#FFFFFF">
            <path d="M13.2837808,12.0408379 C13.618108,12.1395992 13.8794781,12.4084016 13.967744,12.7470981 C13.9892151,12.7890836 14,12.8341555 14,12.882314 C14,12.8965567 13.9990567,12.9105294 13.9971726,12.9242321 C13.9990463,12.9492428 14,12.97451 14,13 C14,13.5522847 13.5522847,14 13,14 C12.9643751,14 12.9291853,13.9981371 12.8945228,13.9945035 C12.8757991,13.9981678 12.8565474,14 12.8367469,14 C12.7711613,14 12.7113096,13.9798983 12.6571918,13.939695 C12.3826396,13.8395103 12.1643236,13.6224317 12.062471,13.3486865 L8.57968552,9.86170844 C7.68696659,10.4478155 6.51159688,10.9106081 5.44633564,10.9106081 C3.9455926,10.9106081 2.66277801,10.3771004 1.59826695,9.31008501 C0.53263062,8.24306962 0,6.95814263 0,5.45530405 C0,3.95246547 0.53263062,2.66753848 1.59826695,1.60052309 C2.66277801,0.533507696 3.9455926,0 5.44633564,0 C6.94670358,0 8.22951817,0.533507696 9.29515451,1.60052309 C10.3600407,2.66753848 10.8930464,3.95246547 10.8930464,5.45530405 C10.8930464,6.52231944 10.6004746,7.50292162 10.0153311,8.39711057 L9.86709407,8.62003823 L13.2837808,12.0408379 Z M3.02723147,3.02878788 C2.34241049,3.71464646 2,4.53838384 2,5.5 C2,6.46161616 2.34241049,7.28535354 3.02723147,7.97121212 C3.71205245,8.65707071 4.53807363,9 5.50529501,9 C6.47251639,9 7.29677257,8.65919192 7.97806354,7.97651515 C8.65935451,7.29419192 9,6.46868687 9,5.5 C9,4.53131313 8.65935451,3.70580808 7.97806354,3.02348485 C7.29677257,2.34116162 6.47251639,2 5.50529501,2 C4.53807363,2 3.71205245,2.34292929 3.02723147,3.02878788 Z" id="Combined-Shape"></path>
        </g>
    </g>
</svg>