<?xml version="1.0" encoding="UTF-8"?>
<svg width="24px" height="21px" viewBox="0 0 24 21" version="1.1" xmlns="http://www.w3.org/2000/svg" xmlns:xlink="http://www.w3.org/1999/xlink">
    <!-- Generator: Sketch 50.2 (55047) - http://www.bohemiancoding.com/sketch -->
    <title>Warning</title>
    <desc>Created with Sketch.</desc>
    <defs></defs>
    <g id="Warning" stroke="none" stroke-width="1" fill="none" fill-rule="evenodd">
        <g>
            <path d="M0.0887291882,19.50912 C-0.0625266257,19.12832 -0.0201080211,18.75872 0.213752444,18.40032 L10.9635199,0.49152 C11.1873338,0.13312 11.4546827,-0.02928 11.767799,0.00432 C12.079799,0.03792 12.3477059,0.23952 12.5709617,0.60912 L23.3212873,18.34992 C23.5557059,18.70832 23.5970083,19.08632 23.4463106,19.48392 C23.2956129,19.88152 23.0137524,20.08032 22.6012873,20.08032 L0.933752444,20.08032 C0.520729188,20.08032 0.238868723,19.88992 0.0887291882,19.50912 C0.0887291882,19.50912 0.238868723,19.88992 0.0887291882,19.50912 L0.0887291882,19.50912 L0.0887291882,19.50912 Z" id="Fill-105" fill="#969696"></path>
            <polygon id="Path" fill="#FFFFFF" points="11.7209302 13.3687775 10.0465116 8.32877755 10.0465116 7.28 13.3953488 7.28 13.3953488 8.32877755"></polygon>
            <ellipse id="Oval" fill="#FFFFFF" cx="11.7209302" cy="7.28" rx="1.6744186" ry="1.68"></ellipse>
            <ellipse id="Oval" fill="#FFFFFF" cx="11.7209302" cy="15.68" rx="1.6744186" ry="1.68"></ellipse>
        </g>
    </g>
</svg>