<?xml version="1.0" encoding="UTF-8"?>
<svg width="60px" height="87px" viewBox="0 0 60 87" version="1.1" xmlns="http://www.w3.org/2000/svg" xmlns:xlink="http://www.w3.org/1999/xlink">
    <!-- Generator: Sketch 52.6 (67491) - http://www.bohemiancoding.com/sketch -->
    <title>MarkerLATGrey</title>
    <desc>Created with Sketch.</desc>
    <defs>
        <path d="M30,80.3795653 C30.4797197,80.3795653 43.2772033,64.9137759 52.3388983,51.8882117 C56.0121662,46.6081415 57.3579102,39.5885064 57.3579102,35.6691867 C57.3579102,20.5598301 45.1093566,8.31127655 30,8.31127655 C14.8906434,8.31127655 2.64208984,20.5598301 2.64208984,35.6691867 C2.64208984,39.6353159 4.4295186,46.6706728 8.211998,51.8882117 C18.9639732,66.7194491 29.522287,80.3795653 30,80.3795653 Z" id="path-1"></path>
        <filter x="-11.0%" y="-8.3%" width="121.9%" height="116.7%" filterUnits="objectBoundingBox" id="filter-2">
            <feOffset dx="0" dy="0" in="SourceAlpha" result="shadowOffsetOuter1"></feOffset>
            <feGaussianBlur stdDeviation="2" in="shadowOffsetOuter1" result="shadowBlurOuter1"></feGaussianBlur>
            <feColorMatrix values="0 0 0 0 0   0 0 0 0 0   0 0 0 0 0  0 0 0 0.5 0" type="matrix" in="shadowBlurOuter1"></feColorMatrix>
        </filter>
    </defs>
    <g id="MarkerLATGrey" stroke="none" stroke-width="1" fill="none" fill-rule="evenodd">
        <circle id="Oval" fill="#C8C8C8" cx="29.5791016" cy="79.4666667" r="6.93333333"></circle>
        <g id="Oval">
            <use fill="black" fill-opacity="1" filter="url(#filter-2)" xlink:href="#path-1"></use>
            <use fill="#FFFFFF" fill-rule="evenodd" xlink:href="#path-1"></use>
        </g>
        <circle id="Path" stroke="#C8C8C8" fill="#FFFFFF" cx="30" cy="35.6691867" r="22.4245165"></circle>
        <g id="Group" transform="translate(19.000000, 23.843750)" fill="#C8C8C8">
            <path d="M10.7843137,21.5686275 C4.82830172,21.5686275 0,16.7403257 0,10.7843137 C0,4.82830172 4.82830172,0 10.7843137,0 C16.7403257,0 21.5686275,4.82830172 21.5686275,10.7843137 C21.5686275,16.7403257 16.7403257,21.5686275 10.7843137,21.5686275 Z M10.7843137,19.6824257 C15.6986053,19.6824257 19.6824257,15.6986053 19.6824257,10.7843137 C19.6824257,5.87002218 15.6986053,1.88620175 10.7843137,1.88620175 C5.87002218,1.88620175 1.88620175,5.87002218 1.88620175,10.7843137 C1.88620175,15.6986053 5.87002218,19.6824257 10.7843137,19.6824257 Z" id="Combined-Shape"></path>
            <path d="M10.7843137,17.8599399 C6.87655331,17.8599399 3.70868758,14.6920741 3.70868758,10.7843137 C3.70868758,6.87655331 6.87655331,3.70868758 10.7843137,3.70868758 C14.6920741,3.70868758 17.8599399,6.87655331 17.8599399,10.7843137 C17.8599399,14.6920741 14.6920741,17.8599399 10.7843137,17.8599399 Z M10.3151165,13.5134903 C10.5318886,13.54414 10.7580889,13.4793466 10.9508241,13.3095969 L15.1335381,9.60554129 C15.5534476,9.23570989 15.6554981,8.50773269 15.3614743,7.97955871 C15.0674505,7.45138473 14.4886932,7.32302271 14.0687838,7.69285411 L10.2329848,11.0896946 L7.56123053,9.35973853 C7.07597223,9.04553466 6.45547485,9.2319972 6.17531085,9.77621427 C5.89514684,10.3204313 6.06140861,11.016319 6.54666691,11.3305229 L9.69367143,13.3682026 C9.88923124,13.4948273 10.1067553,13.5401386 10.3151165,13.5134903 Z" id="Combined-Shape"></path>
        </g>
    </g>
</svg>