<?xml version="1.0" encoding="UTF-8"?>
<svg width="60px" height="87px" viewBox="0 0 60 87" version="1.1" xmlns="http://www.w3.org/2000/svg" xmlns:xlink="http://www.w3.org/1999/xlink">
    <!-- Generator: Sketch 52.6 (67491) - http://www.bohemiancoding.com/sketch -->
    <title>MarkerEDIGreen</title>
    <desc>Created with Sketch.</desc>
    <defs>
        <path d="M30,80.3795653 C30.4797197,80.3795653 43.2772033,64.9137759 52.3388983,51.8882117 C56.0121662,46.6081415 57.3579102,39.5885064 57.3579102,35.6691867 C57.3579102,20.5598301 45.1093566,8.31127655 30,8.31127655 C14.8906434,8.31127655 2.64208984,20.5598301 2.64208984,35.6691867 C2.64208984,39.6353159 4.4295186,46.6706728 8.211998,51.8882117 C18.9639732,66.7194491 29.522287,80.3795653 30,80.3795653 Z" id="path-1"></path>
        <filter x="-11.0%" y="-8.3%" width="121.9%" height="116.7%" filterUnits="objectBoundingBox" id="filter-2">
            <feOffset dx="0" dy="0" in="SourceAlpha" result="shadowOffsetOuter1"></feOffset>
            <feGaussianBlur stdDeviation="2" in="shadowOffsetOuter1" result="shadowBlurOuter1"></feGaussianBlur>
            <feColorMatrix values="0 0 0 0 0   0 0 0 0 0   0 0 0 0 0  0 0 0 0.5 0" type="matrix" in="shadowBlurOuter1"></feColorMatrix>
        </filter>
    </defs>
    <g id="MarkerEDIGreen" stroke="none" stroke-width="1" fill="none" fill-rule="evenodd">
        <circle id="Oval" fill="#41BE41" cx="29.5791016" cy="79.4666667" r="6.93333333"></circle>
        <g id="Oval">
            <use fill="black" fill-opacity="1" filter="url(#filter-2)" xlink:href="#path-1"></use>
            <use fill="#FFFFFF" fill-rule="evenodd" xlink:href="#path-1"></use>
        </g>
        <circle id="Path" stroke="#41BE41" fill="#FFFFFF" cx="30" cy="35.6691867" r="22.4245165"></circle>
        <path d="M24.5,22.3105469 L35.5,22.3105469 C38.2614237,22.3105469 40.5,24.5491231 40.5,27.3105469 L40.5,44.5327691 C40.5,47.2941928 38.2614237,49.5327691 35.5,49.5327691 L24.5,49.5327691 C21.7385763,49.5327691 19.5,47.2941928 19.5,44.5327691 L19.5,27.3105469 C19.5,24.5491231 21.7385763,22.3105469 24.5,22.3105469 Z M33.5,22.3105469 C33.5,22.9210858 33.5,24.1453709 33.5,25.983402 C33.5,27.8214331 34.5854676,28.7208496 36.7564027,28.6816516 L40.2559581,28.6816516 L33.5,22.3105469 Z M27.9325087,37.3875868 L27.9325087,36.1981337 L25.4168837,36.1981337 L25.4168837,34.7990451 L28.3973524,34.7990451 L28.3973524,33.5640191 L23.8172743,33.5640191 L23.8172743,40.1994358 L28.3882378,40.1994358 L28.3882378,38.968967 L25.4168837,38.968967 L25.4168837,37.3875868 L27.9325087,37.3875868 Z M29.0399306,40.1994358 L31.2228733,40.1994358 C31.7970949,40.1963976 32.3173805,40.0589206 32.7837457,39.7870009 C33.2501108,39.5150811 33.6116524,39.1383488 33.8683811,38.6567925 C34.1251098,38.1752363 34.2534722,37.6306454 34.2534722,37.0230035 L34.2534722,36.7176649 C34.250434,36.1160994 34.1175143,35.5730276 33.8547092,35.0884332 C33.5919041,34.6038387 33.2265648,34.2286255 32.7586806,33.9627821 C32.2907963,33.6969388 31.7636748,33.5640191 31.1773003,33.5640191 L29.0399306,33.5640191 L29.0399306,40.1994358 Z M30.6395399,34.7990451 L31.1773003,34.7990451 C31.6482228,34.7990451 32.0067262,34.9615869 32.2528212,35.2866753 C32.4989162,35.6117638 32.6219618,36.0948319 32.6219618,36.7358941 L32.6219618,37.0230035 C32.6219618,37.6671039 32.4989162,38.1524506 32.2528212,38.4790582 C32.0067262,38.8056657 31.6542992,38.968967 31.1955295,38.968967 L30.6395399,38.968967 L30.6395399,34.7990451 Z M36.7782118,40.1994358 L36.7782118,33.5640191 L35.1831597,33.5640191 L35.1831597,40.1994358 L36.7782118,40.1994358 Z" id="Combined-Shape" fill="#41BE41"></path>
    </g>
</svg>