<?xml version="1.0" encoding="UTF-8"?>
<svg width="60px" height="87px" viewBox="0 0 60 87" version="1.1" xmlns="http://www.w3.org/2000/svg" xmlns:xlink="http://www.w3.org/1999/xlink">
    <!-- Generator: Sketch 52.6 (67491) - http://www.bohemiancoding.com/sketch -->
    <title>MarkerReadyForCarriageGrey</title>
    <desc>Created with Sketch.</desc>
    <defs>
        <path d="M30,80.3795653 C30.4797197,80.3795653 43.2772033,64.9137759 52.3388983,51.8882117 C56.0121662,46.6081415 57.3579102,39.5885064 57.3579102,35.6691867 C57.3579102,20.5598301 45.1093566,8.31127655 30,8.31127655 C14.8906434,8.31127655 2.64208984,20.5598301 2.64208984,35.6691867 C2.64208984,39.6353159 4.4295186,46.6706728 8.211998,51.8882117 C18.9639732,66.7194491 29.522287,80.3795653 30,80.3795653 Z" id="path-1"></path>
        <filter x="-11.0%" y="-8.3%" width="121.9%" height="116.7%" filterUnits="objectBoundingBox" id="filter-2">
            <feOffset dx="0" dy="0" in="SourceAlpha" result="shadowOffsetOuter1"></feOffset>
            <feGaussianBlur stdDeviation="2" in="shadowOffsetOuter1" result="shadowBlurOuter1"></feGaussianBlur>
            <feColorMatrix values="0 0 0 0 0   0 0 0 0 0   0 0 0 0 0  0 0 0 0.5 0" type="matrix" in="shadowBlurOuter1"></feColorMatrix>
        </filter>
    </defs>
    <g id="MarkerReadyForCarriageGrey" stroke="none" stroke-width="1" fill="none" fill-rule="evenodd">
        <circle id="Oval" fill="#C8C8C8" cx="29.5791016" cy="79.4666667" r="6.93333333"></circle>
        <g id="Oval">
            <use fill="black" fill-opacity="1" filter="url(#filter-2)" xlink:href="#path-1"></use>
            <use fill="#FFFFFF" fill-rule="evenodd" xlink:href="#path-1"></use>
        </g>
        <circle id="Path" stroke="#C8C8C8" fill="#FFFFFF" cx="30" cy="35.6691867" r="22.4245165"></circle>
        <g id="Group-16" transform="translate(15.000000, 21.589844)">
            <path d="M13.1822917,13.1725347 L20.7583344,10.4944088 L27.8489583,13.1725347 L27.8489583,23.1182407 L26.3179457,23.0832773 L26.2876924,14.9001868 L14.7110109,14.9351501 L14.7110109,23.1182407 L13.1822917,23.1182407 L13.1822917,13.1725347 Z M18.2291818,21.0928782 L20.2479379,21.0928782 L20.2479379,23.1116342 L18.2291818,23.1116342 L18.2291818,21.0928782 Z M15.7057367,18.5694331 L17.7244928,18.5694331 L17.7244928,20.5881892 L15.7057367,20.5881892 L15.7057367,18.5694331 Z M18.2291818,18.5694331 L20.2479379,18.5694331 L20.2479379,20.5881892 L18.2291818,20.5881892 L18.2291818,18.5694331 Z M20.7526269,21.0928782 L22.771383,21.0928782 L22.771383,23.1116342 L20.7526269,23.1116342 L20.7526269,21.0928782 Z M23.276072,21.0928782 L25.2948281,21.0928782 L25.2948281,23.1116342 L23.276072,23.1116342 L23.276072,21.0928782 Z M23.276072,18.5694331 L25.2948281,18.5694331 L25.2948281,20.5881892 L23.276072,20.5881892 L23.276072,18.5694331 Z M20.7526269,18.5694331 L22.771383,18.5694331 L22.771383,20.5881892 L20.7526269,20.5881892 L20.7526269,18.5694331 Z M15.7057367,16.045988 L17.7244928,16.045988 L17.7244928,18.0647441 L15.7057367,18.0647441 L15.7057367,16.045988 Z M15.7057367,21.0928782 L17.7244928,21.0928782 L17.7244928,23.1116342 L15.7057367,23.1116342 L15.7057367,21.0928782 Z" id="Combined-Shape" fill="#C8C8C8"></path>
            <path d="M10.8792055,4.26102293 L3.53886379,4.18649829 C3.53886379,4.18649829 2.11752442,3.77560566 1.24404189,3.13442517 L0.651201703,1.74665545 L0.957356995,1.58954945 L2.58011432,3.05721495 L4.65001952,3.09682715 L3.78190813,0.732180347 L4.31163735,0.4609375 L7.35506266,3.11294058 L10.8590637,3.16195229 C10.8590637,3.16195229 11.778201,3.34389984 11.812442,3.7521069 C11.812442,3.7521069 11.6224377,4.15225723 10.8792055,4.26102293 Z" id="Fill-1" fill="#C8C8C8"></path>
            <path d="M7.01481791,6.71980157 L7.01481791,8.25514985 L11.617379,8.25514985 L10.0733323,11.3820673 L13.2739342,11.3820673 L10.9668513,16.0564472 L8.30185342,16.0564472 L8.30185342,23.2411448 L4.69662125,23.2411448 L4.69662125,16.0564472 L2.313328,16.0564472 L0.00624508027,11.3820673 L3.11321712,11.3820673 L1.5697038,8.25514985 L6.26007998,8.25514985 L6.26007998,6.71980157 L4.08334892,6.71980157 L4.08334892,5.96448651 L9.26266253,5.96448651 L9.26266253,6.71980157 L7.01481791,6.71980157 Z" id="Combined-Shape" fill="#C8C8C8"></path>
            <circle id="Oval-3" fill="#C8C8C8" cx="24.8489583" cy="22.7942708" r="5"></circle>
            <path d="M25.4695855,24.948375 C25.2330225,25.3205815 24.7236599,25.4461886 24.3243697,25.2281774 L21.7064735,23.7988142 C21.3028021,23.5784109 21.1644941,23.0902693 21.3975539,22.7085195 C21.6306137,22.3267697 22.1467864,22.1959726 22.5504578,22.4163759 L24.57433,23.5214038 L26.9789592,20.405491 C27.2484495,20.0581306 27.7465371,19.9965426 28.0914691,20.2679303 C28.436401,20.539318 28.4975584,21.0409124 28.2280681,21.3882728 L25.5476808,24.8615123 C25.5234102,24.8927959 25.4972855,24.9217617 25.4695855,24.948375 Z" id="Combined-Shape" fill="#FFFFFF"></path>
        </g>
    </g>
</svg>